<svg width="322" height="74" viewBox="0 0 322 74" fill="none" xmlns="http://www.w3.org/2000/svg">
<path d="M72.1666 38.4C72.1666 43.2 71.2386 47.744 69.3826 52.032C67.5266 56.256 64.9986 59.936 61.7986 63.072C58.5986 66.144 54.7906 68.576 50.3746 70.368C45.9586 72.16 41.2546 73.056 36.2626 73.056C31.2706 73.056 26.5666 72.16 22.1506 70.368C17.7346 68.576 13.9266 66.144 10.7266 63.072C7.52663 59.936 4.99863 56.256 3.14263 52.032C1.28663 47.744 0.358628 43.2 0.358628 38.4C0.358628 33.6 1.28663 29.088 3.14263 24.864C4.99863 20.576 7.52663 16.896 10.7266 13.824C13.9266 10.688 17.7346 8.224 22.1506 6.432C26.5666 4.64 31.2706 3.744 36.2626 3.744C41.2546 3.744 45.9586 4.64 50.3746 6.432C54.7906 8.224 58.5986 10.688 61.7986 13.824C64.9986 16.896 67.5266 20.576 69.3826 24.864C71.2386 29.088 72.1666 33.6 72.1666 38.4ZM55.1746 38.4C55.1746 35.648 54.6946 33.088 53.7346 30.72C52.7746 28.288 51.4306 26.208 49.7026 24.48C48.0386 22.752 46.0546 21.408 43.7506 20.448C41.4466 19.424 38.9506 18.912 36.2626 18.912C33.5746 18.912 31.0786 19.424 28.7746 20.448C26.4706 21.408 24.4546 22.752 22.7266 24.48C21.0626 26.208 19.7506 28.288 18.7906 30.72C17.8306 33.088 17.3506 35.648 17.3506 38.4C17.3506 41.152 17.8306 43.744 18.7906 46.176C19.7506 48.544 21.0626 50.592 22.7266 52.32C24.4546 54.048 26.4706 55.424 28.7746 56.448C31.0786 57.408 33.5746 57.888 36.2626 57.888C38.9506 57.888 41.4466 57.408 43.7506 56.448C46.0546 55.424 48.0386 54.048 49.7026 52.32C51.4306 50.592 52.7746 48.544 53.7346 46.176C54.6946 43.744 55.1746 41.152 55.1746 38.4ZM83.0581 72V4.8L98.6101 1.44V24.672C100.466 23.264 102.546 22.176 104.85 21.408C107.218 20.64 109.682 20.256 112.242 20.256C118.194 20.256 123.058 22.176 126.834 26.016C130.61 29.856 132.498 34.752 132.498 40.704V72H116.946V42.816C116.946 40.064 116.082 37.856 114.354 36.192C112.69 34.464 110.482 33.6 107.73 33.6C105.746 33.6 103.986 33.952 102.45 34.656C100.914 35.36 99.6341 36.352 98.6101 37.632V72H83.0581ZM167.024 4.8H182.576L213.104 43.776V4.8H228.656V72H214.064L182.576 31.488V72H167.024V4.8ZM239.582 46.656C239.582 43.008 240.286 39.584 241.694 36.384C243.166 33.12 245.118 30.304 247.55 27.936C250.046 25.568 252.958 23.712 256.286 22.368C259.678 20.96 263.294 20.256 267.134 20.256C270.974 20.256 274.558 20.96 277.886 22.368C281.278 23.712 284.19 25.568 286.622 27.936C289.118 30.304 291.07 33.12 292.478 36.384C293.95 39.584 294.686 43.008 294.686 46.656C294.686 50.304 293.95 53.76 292.478 57.024C291.07 60.224 289.118 63.008 286.622 65.376C284.19 67.744 281.278 69.6 277.886 70.944C274.558 72.288 270.974 72.96 267.134 72.96C263.294 72.96 259.678 72.288 256.286 70.944C252.958 69.6 250.046 67.744 247.55 65.376C245.118 63.008 243.166 60.224 241.694 57.024C240.286 53.76 239.582 50.304 239.582 46.656ZM267.134 59.52C270.59 59.52 273.502 58.272 275.87 55.776C278.302 53.28 279.518 50.24 279.518 46.656C279.518 43.008 278.302 39.936 275.87 37.44C273.502 34.944 270.59 33.696 267.134 33.696C263.678 33.696 260.734 34.944 258.302 37.44C255.934 39.936 254.75 43.008 254.75 46.656C254.75 50.24 255.934 53.28 258.302 55.776C260.734 58.272 263.678 59.52 267.134 59.52ZM306.491 51.264L304.571 0.479994H320.315L318.395 51.264H306.491ZM312.443 73.056C310.011 73.056 307.899 72.192 306.107 70.464C304.379 68.672 303.515 66.56 303.515 64.128C303.515 61.696 304.379 59.616 306.107 57.888C307.899 56.096 310.011 55.2 312.443 55.2C314.875 55.2 316.955 56.096 318.683 57.888C320.475 59.616 321.371 61.696 321.371 64.128C321.371 66.56 320.475 68.672 318.683 70.464C316.955 72.192 314.875 73.056 312.443 73.056Z" fill="url(#paint0_radial)"/>
<defs>
<radialGradient id="paint0_radial" cx="0" cy="0" r="1" gradientUnits="userSpaceOnUse" gradientTransform="translate(179.333 24) scale(175 80.0045)">
<stop stop-color="#7C83FF"/>
<stop offset="1" stop-color="#424AD0"/>
</radialGradient>
</defs>
</svg>
