<svg width="204" height="253" viewBox="0 0 204 253" fill="none" xmlns="http://www.w3.org/2000/svg">
<g clip-path="url(#clip0)">
<path fill-rule="evenodd" clip-rule="evenodd" d="M83.9622 52.6592C84.9302 51.8223 86.0919 51.1785 87.3181 50.7922C89.3833 50.0841 91.642 50.0197 93.1909 50.7279C93.8363 51.0497 94.288 51.5004 94.6753 52.0154L94.7398 52.1441C95.0625 52.1441 95.4497 52.2085 95.7724 52.2085C96.1596 51.8866 96.6759 51.3716 97.1922 50.5347C97.6439 49.8266 98.1602 48.9897 98.4829 47.8953C98.8056 47.0584 98.9347 46.1571 98.8056 45.449C98.7411 45.0627 98.612 44.7408 98.4184 44.4833C98.3538 44.3546 98.2248 44.2902 98.0957 44.1614C97.1276 44.934 96.1596 45.7709 94.9979 46.7365L94.9334 46.8009C93.4491 48.0884 91.7711 48.6034 89.9641 48.7322C88.2861 48.8609 86.4791 48.5391 84.8657 48.024C83.7686 47.7022 82.9296 47.3159 82.3488 46.8009C81.3807 46.0284 80.9935 45.1271 80.9935 44.0971C80.9935 43.1958 81.3807 42.2945 81.9616 41.3933C82.8651 40.0413 84.2203 38.7538 85.5111 37.7882C88.867 35.1487 92.0938 34.2475 94.8043 34.0543C97.4503 33.8612 99.58 34.3762 100.484 34.5693C100.871 34.6981 101.387 34.8912 101.903 35.1487C102.42 35.4062 103 35.7925 103.452 36.2431C104.033 36.6294 104.549 37.1444 104.937 37.7882C106.292 39.977 106.292 42.9383 105.646 45.8352C105.001 48.6678 103.71 51.5004 102.291 53.5604C103.194 53.8823 104.098 54.2042 105.066 54.5905C106.937 55.363 108.551 56.2642 110.035 57.1655C111.584 54.6548 115.65 48.2815 119.586 45.5134C119.909 45.1915 120.296 44.934 120.683 44.7408H120.748C120.942 44.6765 121.135 44.6121 121.329 44.6121C122.039 44.419 122.491 44.4833 122.878 44.7408C123.329 44.8696 123.846 45.0627 124.362 45.3202C124.814 45.5777 125.266 45.8352 125.782 46.2859C126.234 46.6721 126.75 47.2515 127.266 47.8953C128.492 49.6335 129.073 51.6935 129.073 53.8823C129.138 56.3286 128.557 58.9037 127.589 61.2212C127.137 62.2513 126.621 63.0238 126.105 63.4744C125.524 63.9894 124.943 64.1826 124.362 64.2469C123.781 64.3113 123.265 64.1826 122.813 63.9894C121.974 63.6676 121.329 63.0882 121.135 62.7663C120.813 62.38 120.554 62.0581 120.296 61.6719C119.715 60.8994 119.07 59.9981 117.715 58.7749L117.65 58.7106C117.457 58.5818 117.328 58.3887 117.199 58.2599C116.489 58.9037 115.779 59.6762 115.198 60.5131L115.069 60.6419C115.262 60.7062 115.391 60.7706 115.585 60.835C117.392 61.6719 118.554 63.1525 119.264 64.8907C119.586 65.6632 119.78 66.4357 119.974 67.2083C120.425 67.4658 120.813 67.7877 121.264 68.1739C123.652 70.234 125.266 73.1953 125.588 76.5429C125.846 79.9548 124.749 83.1093 122.684 85.4912C121.522 86.8431 120.038 88.0019 118.36 88.7101C116.811 92.8945 114.423 97.0146 111.132 100.362C110.035 101.457 108.809 102.487 107.518 103.388C109.131 105.319 109.712 107.572 109.841 109.375C119.457 107.379 135.527 103.774 143.271 101.972C145.207 101.521 146.304 101.392 147.143 101.972C147.982 102.551 148.305 103.581 148.563 105.512C148.628 106.22 149.015 107.83 149.531 110.083C149.725 109.954 149.919 109.826 150.112 109.697C150.564 109.439 151.016 109.246 151.467 109.053H151.532C152.952 108.538 154.372 108.538 155.598 108.924C156.824 109.311 157.921 110.147 158.502 111.177C158.696 111.435 158.825 111.757 158.889 112.014C159.405 113.431 159.212 114.718 158.631 115.877C158.373 116.392 157.986 116.907 157.598 117.422C157.921 117.615 158.179 117.808 158.437 118.066C159.018 118.645 159.405 119.418 159.534 120.255C159.664 121.027 159.599 121.864 159.405 122.765C159.276 123.28 159.018 123.795 158.76 124.31C158.825 124.375 158.889 124.439 158.954 124.503C159.922 125.662 160.309 127.014 160.309 128.302V128.366C160.244 129.847 159.664 131.263 158.825 132.293C158.05 133.259 157.082 133.838 156.114 134.417L155.92 134.546C157.727 140.855 159.534 146.842 161.083 150.769C161.793 152.572 161.664 153.73 161.019 154.503C160.438 155.275 159.47 155.597 158.373 155.919C150.887 157.915 130.687 162.55 115.908 165.64C115.585 168.215 115.004 170.726 113.843 172.593C114.553 173.816 114.875 175.039 114.746 176.327C114.682 176.584 114.682 176.906 114.553 177.163C114.294 178.322 113.649 179.545 112.487 180.704C111.971 181.219 111.39 181.734 110.745 182.249C114.488 188.751 116.553 195.511 117.521 200.017C122.361 199.631 124.298 205.747 124.491 206.455V206.519C124.491 206.584 128.299 219.266 128.88 220.618C128.944 220.811 129.202 221.068 129.46 221.326C129.719 221.519 130.041 221.712 130.429 221.841C131.267 222.098 132.106 222.42 132.945 222.806C133.655 223.128 134.301 223.45 134.752 223.837C135.204 224.158 135.72 224.673 136.172 225.382C136.495 225.961 136.818 226.605 137.011 227.442C137.528 229.437 137.269 230.596 136.882 231.304C137.592 231.948 138.56 233.364 138.947 235.939C139.141 237.484 139.27 238.45 139.27 239.223C139.27 240.253 138.947 240.768 138.237 241.089C135.398 242.248 129.719 242.956 123.459 242.892C117.844 242.828 111.648 242.248 106.485 240.896H106.421C102.613 239.931 102.549 237.549 102.484 236.197L102.42 235.231C102.355 233.751 102.226 231.884 103.13 230.532L103 229.309C102.549 225.253 101.774 217.849 100.419 211.026C99.1283 204.781 102.613 202.914 104.807 202.27C104.291 199.245 103.581 196.348 102.742 193.708C102.161 191.906 101.581 190.296 101.064 188.816C98.1602 190.876 94.4171 192.485 89.7059 193.451C85.2529 194.352 79.9609 194.738 73.5718 194.288H73.2491C72.7328 196.798 72.4101 199.116 72.2811 200.983C74.8625 201.627 77.5085 203.3 76.605 208.322C76.1533 211.412 76.1533 214.566 76.2823 217.528C76.4114 220.489 76.7986 223.193 77.0568 225.382L77.3795 227.313C77.7021 229.437 78.0248 231.111 78.0248 233.235C78.0248 234.845 77.8312 235.939 77.0568 236.905C76.3469 237.806 75.1207 238.45 73.1846 239.094C69.4415 240.317 64.8594 241.218 60.3418 241.733C54.6626 242.441 48.9834 242.57 45.3048 242.441C41.8844 242.313 40.0128 241.798 38.9802 241.218C37.754 240.51 37.4959 239.673 37.4313 239.094V239.029C37.1732 237.742 36.5924 234.394 38.0122 233.364C37.4959 232.72 36.9796 231.626 37.0441 229.759C37.0441 227.635 37.625 226.09 38.5285 224.995C39.3674 223.901 40.5291 223.193 41.6908 222.613C44.6594 221.197 50.145 220.36 50.8549 220.296C50.984 220.231 51.6939 219.781 52.2102 216.819C52.8556 213.15 53.8236 209.738 55.2434 207.099C56.5987 204.588 58.4703 202.721 60.9226 202.142C61.3099 198.021 61.9552 194.481 62.7942 191.455C60.2773 190.232 57.8249 188.687 55.6952 186.884C50.5323 182.635 46.5955 176.842 44.9176 170.533C44.2722 168.022 44.5304 166.348 45.1757 165.125C45.8856 163.902 46.9182 163.323 47.8863 162.936C49.177 162.421 50.6613 161.777 52.2102 160.812C53.3073 160.104 54.469 159.138 55.6952 157.851C53.6946 157.464 51.7585 156.692 50.0805 155.597C48.2089 156.112 46.4665 156.048 44.9821 155.469C44.5304 155.275 44.1431 155.082 43.7559 154.825C42.078 154.954 40.4 154.954 38.7866 154.825C36.3342 154.632 34.0109 154.117 31.9457 153.215C31.2358 152.894 30.5905 152.507 30.1387 152.121C29.0416 151.22 28.4608 150.125 28.3317 148.967C28.2026 147.808 28.3962 146.649 28.9125 145.49C29.2997 144.525 29.9451 143.559 30.655 142.722C32.9783 139.889 37.1732 137.121 41.6908 134.932C43.046 134.289 44.4658 133.645 45.8856 133.13C44.2077 132.035 42.2716 130.684 43.1751 128.173V128.109C43.2396 127.98 43.3042 127.787 43.3687 127.658C43.8205 126.757 44.724 125.984 45.8211 125.533C46.531 125.276 47.3054 125.147 48.0799 125.212C47.7572 124.246 47.6927 123.473 47.9508 122.83C48.2735 121.928 49.1125 121.349 50.8549 121.027C57.6313 119.804 65.3757 118.323 73.5718 116.778C72.2811 115.362 71.5712 113.366 71.2485 111.757C70.7322 108.86 71.5712 106.156 73.0555 103.967C74.0881 102.422 75.4434 101.135 76.8632 100.169C74.1526 97.0146 72.9264 94.1177 72.7974 93.9246C72.4747 93.2808 66.9891 81.4355 70.7322 69.3971C70.2804 68.3027 70.0223 67.0795 69.8932 65.8564V65.792C69.6351 62.4444 70.7322 59.2899 72.7974 56.8436L72.8619 56.7793C74.9271 54.3973 77.8312 52.7879 81.1871 52.5304H81.2517C82.0906 52.466 83.0587 52.5304 83.9622 52.6592Z" fill="#EBEBEB"/>
<path fill-rule="evenodd" clip-rule="evenodd" d="M167.73 245.146C167.73 249.653 136.365 253.129 97.772 253C59.1791 252.807 27.8789 249.073 27.8789 244.567C27.8789 240.06 59.2437 236.584 97.8365 236.777C136.429 236.906 167.73 240.704 167.73 245.146Z" fill="#EBEBEB"/>
<path fill-rule="evenodd" clip-rule="evenodd" d="M125.201 159.332C125.201 159.332 126.686 171.177 122.943 176.134C124.556 178.516 124.491 180.963 122.168 183.216C119.716 185.598 114.617 188.752 111.455 191.134C106.034 195.19 97.3861 197.829 84.027 196.864C71.3133 195.962 59.3095 185.92 56.0827 173.624C54.8565 169.117 56.9217 167.701 58.5351 167.122C61.1811 166.092 64.666 164.482 68.0865 160.104C71.5069 155.727 83.8979 157.851 83.8979 157.851L125.201 159.332Z" fill="#45519E" stroke="#3D408A" stroke-width="2.7651" stroke-miterlimit="10" stroke-linecap="round" stroke-linejoin="round"/>
<path fill-rule="evenodd" clip-rule="evenodd" d="M67.5711 161.973C67.9583 164.29 68.6037 168.475 68.9909 170.792C68.0874 171.114 67.0548 171.307 65.9577 171.436C61.2465 172.015 59.1813 173.754 60.6011 177.809C62.15 182.509 65.1187 186.629 69.5717 190.62C64.0861 187.401 58.6005 179.869 56.858 173.689C56.5353 172.402 56.4063 171.114 56.7935 169.891C57.5034 167.767 60.2139 167.316 62.0209 166.35C63.957 165.449 65.7641 164.161 67.5711 161.973Z" fill="#5C66B8"/>
<path fill-rule="evenodd" clip-rule="evenodd" d="M78.9282 179.805C82.155 179.226 86.0917 179.29 88.6732 180.835C90.093 181.672 90.8674 183.153 90.7383 184.698C90.6093 186.5 89.5767 186.178 88.7377 184.955C86.2853 181.415 81.1224 181.093 78.3473 180.9C76.4758 180.771 77.1211 180.127 78.9282 179.805Z" fill="#5C66B8"/>
<path fill-rule="evenodd" clip-rule="evenodd" d="M57.8251 171.242C57.7606 172.079 57.1798 172.272 57.1152 171.242C57.1152 168.925 59.2449 168.152 61.181 167.38C62.7299 166.8 64.0206 166.092 65.3114 165.127C66.6021 164.161 67.2475 164.225 67.312 164.998C67.5702 167.38 65.3759 167.959 63.5689 168.474C62.02 168.86 58.2769 169.44 57.8251 171.242Z" fill="#6B78D1"/>
<path fill-rule="evenodd" clip-rule="evenodd" d="M85.511 191.521C85.1883 192.294 84.8657 193.131 84.543 194.096C88.157 195.255 92.2874 195.513 96.6113 195.706C101.71 195.062 106.421 193.517 110.68 190.749C110.616 190.556 110.551 190.362 110.487 190.105C105.13 190.169 103.581 188.045 102.291 184.762C100.096 186.757 96.4822 186.371 94.0298 185.599C93.5781 185.47 92.61 185.212 92.3519 185.727C91.3193 190.556 90.2867 191.521 85.511 191.521Z" fill="#3E4A94"/>
<path fill-rule="evenodd" clip-rule="evenodd" d="M102.355 184.762C102.226 183.603 103.258 182.766 103.387 183.925C103.387 183.925 104.226 189.461 109.067 188.625C111.713 188.174 118.618 185.213 121.522 181.865C124.362 178.646 122.039 175.492 119.199 173.174C118.295 172.466 119.457 171.693 120.361 172.402C124.555 175.62 126.879 179.869 122.684 184.247C119.263 187.852 112.552 190.685 109.454 191.264C103 192.423 102.355 184.762 102.355 184.762Z" fill="#3D408A"/>
<path fill-rule="evenodd" clip-rule="evenodd" d="M92.0289 190.425C89.1893 195.833 80.0896 192.034 76.3465 189.137C73.7005 187.013 69.7638 183.022 72.797 179.545C75.3139 176.648 75.8302 174.524 75.8302 174.524C75.9593 174.073 76.411 173.751 76.8628 173.88C77.3145 174.009 77.5727 174.46 77.5081 174.975C77.5081 174.975 76.9273 177.035 74.1522 180.253C72.1516 182.571 75.7657 185.661 77.4436 186.949C81.2513 189.781 90.48 194.223 91.8998 186.562C92.1579 185.146 92.9969 184.953 92.9969 186.434C92.9324 187.657 92.6097 189.331 92.0289 190.425Z" fill="#3D408A"/>
<path fill-rule="evenodd" clip-rule="evenodd" d="M122.878 174.717C122.297 174.073 121.587 173.429 120.748 172.785C121.781 171.82 122.684 170.79 123.459 169.76L124.298 169.566C124.168 171.24 123.717 172.914 122.878 174.717Z" fill="#3E4A94"/>
<path fill-rule="evenodd" clip-rule="evenodd" d="M118.489 176.779C116.424 176.393 115.843 176.779 114.1 177.616C111.519 178.839 109.26 179.676 106.421 180.32C105.388 180.577 104.614 180.771 104.743 182.444C104.872 184.247 106.098 183.474 107.066 182.38C110.035 179.29 115.585 178.002 119.909 178.324C121.845 178.453 120.296 177.101 118.489 176.779Z" fill="#5C66B8"/>
<path fill-rule="evenodd" clip-rule="evenodd" d="M110.81 57.8086C113.972 54.3323 117.07 46.1565 114.424 41.7789C111.261 36.6287 100.936 42.1651 100.936 42.1651L106.034 46.3496C110.1 45.7702 110.616 48.9247 109.648 51.6929C108.68 54.5254 107.002 56.1992 106.292 56.6498C105.453 57.2936 110.81 57.8086 110.81 57.8086Z" fill="#DC7545" stroke="#C55434" stroke-width="2.9582" stroke-miterlimit="10"/>
<path fill-rule="evenodd" clip-rule="evenodd" d="M95.4492 50.663C89.3828 48.9249 93.3195 44.5473 96.4818 42.101C102.806 37.144 108.873 38.6246 110.615 39.0753C112.035 39.4615 114.746 41.0065 113.778 42.8735C113.584 43.3241 113.132 43.646 112.616 43.9035C109.131 45.8348 107.582 47.1867 104.678 49.6974C102.096 51.8218 98.5469 51.5643 95.4492 50.663Z" fill="#F2A45E" stroke="#D56344" stroke-width="2.9582" stroke-miterlimit="10"/>
<path fill-rule="evenodd" clip-rule="evenodd" d="M106.743 39.3984C108.873 39.5916 112.358 40.8791 110.099 42.1666C108.034 43.3254 105.582 45.128 103.452 46.9949C100.806 49.3768 97.3855 50.1493 93.8359 48.7974C94.6749 49.6987 98.6117 50.7287 101.193 50.2137C102.484 49.9562 103.323 49.5056 104.484 48.4755C105.517 47.5743 107.453 45.9005 109.196 44.7417C110.357 43.9692 111.39 43.4542 112.1 43.0035C112.81 42.5529 113.391 42.0379 112.681 41.2654C111.325 39.8491 108.486 39.4628 106.743 39.3984Z" fill="#F18B42"/>
<path fill-rule="evenodd" clip-rule="evenodd" d="M65.5688 135.188C58.5343 135.574 46.1433 141.175 41.4967 146.711C39.0443 149.672 37.9472 153.857 42.5293 155.788C52.9842 160.294 71.3771 154.307 71.6998 149.479L65.5688 135.188Z" fill="#C2CEFF" stroke="#99A9EB" stroke-width="2.7651" stroke-miterlimit="10" stroke-linecap="round" stroke-linejoin="round"/>
<path fill-rule="evenodd" clip-rule="evenodd" d="M45.4972 144.911C46.7234 144.009 50.3375 141.37 53.887 139.761C56.4039 138.666 53.9515 140.919 52.9189 141.499C49.8212 143.237 47.5624 145.233 46.5943 146.005C45.3681 146.971 43.9483 146.069 45.4972 144.911Z" fill="#D6E0FF"/>
<path fill-rule="evenodd" clip-rule="evenodd" d="M79.4441 204.844C81.2511 204.973 87.4466 204.844 86.2204 211.668C85.3169 217.977 86.0913 224.543 86.6721 228.985C87.1239 232.075 87.5757 234.006 87.5757 236.71C87.5757 239.543 86.8658 240.637 83.2517 241.86C74.9265 244.628 62.2128 245.465 55.6301 245.143C49.0473 244.822 48.6601 243.341 48.4665 242.44C48.2729 241.217 47.563 237.547 49.1119 237.29C50.6608 237.032 48.0148 237.096 48.0793 233.169C48.1438 229.242 50.0799 227.762 52.2096 226.732C55.2428 225.251 61.2447 224.479 61.2447 224.479C61.2447 224.479 62.5355 224.221 63.2454 220.423C64.5361 213.213 66.924 206.968 71.9578 206.196C74.862 205.681 79.4441 204.844 79.4441 204.844Z" fill="#9E4D74" stroke="#8C3660" stroke-width="2.3943" stroke-miterlimit="10" stroke-linecap="round" stroke-linejoin="round"/>
<path fill-rule="evenodd" clip-rule="evenodd" d="M65.6986 244.112C62.5363 244.37 58.1478 244.434 55.9535 244.37C49.3708 244.048 49.4354 242.954 49.2418 241.988C49.1127 241.344 48.8545 239.735 48.9191 238.833C49.0481 237.932 49.1772 237.997 49.8226 237.803C50.3389 237.675 50.4679 236.838 50.1453 236.516C49.758 236.13 49.1772 235.743 48.9191 234.585C48.5964 233.104 48.8545 231.108 49.629 229.821C51.436 226.731 57.8896 225.765 61.0519 225.314C61.9554 225.186 61.8264 224.413 62.0845 223.641C62.2781 222.997 63.6334 222.482 64.0206 220.164C65.1177 214.242 67.5701 207.353 71.5714 207.16L80.542 210.508C82.4135 210.057 83.3816 211.28 79.4448 212.697C76.2826 213.791 74.9918 217.911 76.0889 221.516C76.6052 223.19 75.8308 224.027 73.4429 222.804C72.6685 222.417 73.7656 228.984 71.7005 228.919C65.3113 228.791 64.795 231.559 65.3113 234.713C65.4404 235.357 65.634 236.709 63.4398 236.709C63.5043 236.902 66.0212 237.932 66.1503 238.125C67.6347 240.507 68.5382 243.275 65.6986 244.112Z" fill="#B56D90"/>
<path fill-rule="evenodd" clip-rule="evenodd" d="M52.6615 237.03C54.5331 237.159 59.6315 237.095 66.9887 236.322C71.8289 235.807 77.7663 235.228 84.4135 233.232C85.2525 232.975 85.5106 233.812 84.6717 234.069C67.6986 239.155 58.4053 238.64 52.5325 238.06C50.79 237.932 50.5318 236.837 52.6615 237.03Z" fill="#8C3660"/>
<path fill-rule="evenodd" clip-rule="evenodd" d="M73.1205 227.633C73.1851 227.246 73.5723 227.053 73.895 227.118C74.2822 227.182 74.4758 227.568 74.4112 227.89C74.0886 229.242 72.6042 229.886 71.1844 229.95C70.6036 229.95 70.0873 229.95 69.6355 229.821C69.1192 229.693 68.6675 229.435 68.4093 229.049C68.0867 228.598 68.0221 228.019 68.4093 227.44C68.6029 227.118 69.0547 227.053 69.3129 227.246C69.6355 227.44 69.7001 227.89 69.5065 228.148C69.4419 228.212 69.4419 228.276 69.4419 228.276C69.5065 228.405 69.7001 228.47 69.9582 228.534C70.2809 228.598 70.6681 228.663 71.1199 228.663C72.0879 228.598 72.9914 228.276 73.1205 227.633Z" fill="#8C3660"/>
<path d="M76.089 225.379C76.8635 225.83 76.4117 227.568 73.7012 227.632" stroke="#8C3660" stroke-width="2.0734" stroke-miterlimit="10" stroke-linecap="round" stroke-linejoin="round"/>
<path fill-rule="evenodd" clip-rule="evenodd" d="M62.2137 222.549C62.2137 222.549 70.8616 223.322 73.0558 227.313C73.8303 227.635 75.4437 226.927 75.8309 226.283C76.0245 223.322 72.7332 221.648 70.2808 221.133C68.2801 220.682 65.6987 220.682 63.698 220.94C61.7619 221.133 62.2137 222.549 62.2137 222.549Z" fill="#D2B2BF" stroke="#8C3660" stroke-width="2.0734" stroke-miterlimit="10" stroke-linecap="round" stroke-linejoin="round"/>
<path fill-rule="evenodd" clip-rule="evenodd" d="M60.7929 224.415C60.7929 224.415 67.6338 224.543 69.828 228.535C70.5379 228.985 72.3449 229.372 73.3775 227.955C73.313 226.153 71.3769 224.608 70.2798 224.028C68.4082 223.063 65.1168 222.226 62.0836 222.612C60.2766 222.934 60.7929 224.415 60.7929 224.415Z" fill="#D2B2BF" stroke="#8C3660" stroke-width="2.0734" stroke-miterlimit="10" stroke-linecap="round" stroke-linejoin="round"/>
<path fill-rule="evenodd" clip-rule="evenodd" d="M72.2168 184.246C72.8622 185.469 74.2174 186.95 75.4436 187.98C75.1855 188.624 74.8628 189.267 74.6692 189.718C73.6366 188.495 72.3459 185.598 72.2168 184.246Z" fill="#45519E"/>
<path fill-rule="evenodd" clip-rule="evenodd" d="M79.2501 182.508C79.2501 182.508 72.022 191.714 71.6348 210.319C78.0239 211.477 81.9606 209.16 81.9606 209.16C81.9606 209.16 81.0571 195.963 87.5753 186.37C86.4136 184.697 83.3804 183.538 79.2501 182.508Z" fill="#F18B42" stroke="#C55434" stroke-width="2.0734" stroke-miterlimit="10" stroke-linecap="round" stroke-linejoin="round"/>
<path fill-rule="evenodd" clip-rule="evenodd" d="M78.4121 209.544C76.4115 210.059 74.7336 209.995 72.3457 209.673C72.6038 201.111 74.4109 192.549 77.5732 186.691C80.5418 185.081 80.9291 188.236 80.1546 191.004C78.6703 196.54 77.4441 202.334 78.4121 209.544Z" fill="#F2A45E"/>
<path fill-rule="evenodd" clip-rule="evenodd" d="M120.49 62.1846C120.49 62.1846 125.718 53.0432 130.493 49.76C135.334 46.4767 132.236 57.7426 132.236 57.7426C132.236 57.7426 127.267 59.6739 124.685 63.5365C122.104 67.3348 120.49 62.1846 120.49 62.1846Z" fill="#DC7545" stroke="#C55434" stroke-width="2.9416" stroke-miterlimit="10" stroke-linecap="round" stroke-linejoin="round"/>
<path fill-rule="evenodd" clip-rule="evenodd" d="M128.751 52.3359C127.977 54.9754 127.138 57.6148 126.364 60.2543C125.718 60.7693 124.944 61.7349 124.621 62.0568C125.202 60.7049 125.654 57.8723 125.008 57.0354C126.235 55.2329 127.525 53.6878 128.751 52.3359Z" fill="#C55434"/>
<path fill-rule="evenodd" clip-rule="evenodd" d="M132.171 65.6613C132.688 66.2407 135.398 68.5583 137.076 64.3738C138.819 60.1893 139.27 55.2323 136.818 51.9491C135.915 50.7259 135.011 50.0178 134.237 49.6315C131.913 48.4728 130.364 48.859 129.525 51.5628C128.816 53.816 128.299 55.0392 127.589 56.2623C126.879 57.2924 125.847 58.9661 128.622 61.5412C130.687 63.5369 131.268 64.6313 132.171 65.6613Z" fill="#F2A45E" stroke="#D56344" stroke-width="2.9416" stroke-miterlimit="10" stroke-linecap="round" stroke-linejoin="round"/>
<path fill-rule="evenodd" clip-rule="evenodd" d="M131.913 51.6906C131.784 53.1069 131.332 54.7163 130.751 56.0682C129.46 59.0939 130.299 58.9651 131.913 61.3471C132.687 62.5702 132.235 62.9565 131.138 61.8621C130.428 61.0895 129.589 60.4458 128.944 59.6733C128.17 58.772 128.17 57.9995 129.009 56.5188C130.041 54.5875 130.493 53.3644 130.945 51.4331C131.267 50.0812 132.042 50.0812 131.913 51.6906Z" fill="#F8B981"/>
<path fill-rule="evenodd" clip-rule="evenodd" d="M135.656 65.0837C137.528 58.2597 136.947 52.4015 132.752 50.0195C135.075 50.6633 136.56 52.659 137.14 54.5903C138.109 57.8735 137.205 62.573 135.656 65.0837Z" fill="#F18B42"/>
<path fill-rule="evenodd" clip-rule="evenodd" d="M79.7031 174.46C92.4814 184.181 116.102 181.799 124.879 166.027C127.137 162.1 122.555 153.988 122.555 153.988L81.7038 165.319L79.7031 174.46Z" fill="#A7B6F2" stroke="#99A9EB" stroke-width="2.7651" stroke-miterlimit="10" stroke-linecap="round" stroke-linejoin="round"/>
<path fill-rule="evenodd" clip-rule="evenodd" d="M85.9627 175.233C85.64 175.104 85.5755 173.945 85.7691 173.559C85.8981 173.237 86.3499 173.108 86.6726 173.237C86.7371 173.237 98.2246 179.481 111.455 174.331C112.294 174.009 112.616 174.846 111.842 175.168C97.5147 181.863 86.0272 175.297 85.9627 175.233Z" fill="#99A9EB"/>
<path fill-rule="evenodd" clip-rule="evenodd" d="M90.287 103.066C86.2857 104.161 81.1228 109.247 82.22 115.105C82.7362 117.744 84.3497 121.478 88.0928 121.156L118.877 116.65C118.877 116.65 120.877 110.019 115.392 106.028C111.261 103.195 90.287 103.066 90.287 103.066Z" fill="#C2CEFF" stroke="#99A9EB" stroke-width="2.7667" stroke-miterlimit="10" stroke-linecap="round" stroke-linejoin="round"/>
<path fill-rule="evenodd" clip-rule="evenodd" d="M87.1244 120.32L111.326 115.685C113.972 115.17 115.714 115.17 118.296 114.655C118.554 111.5 117.586 109.376 116.23 107.831L109.777 109.633C103.581 110.985 99.2573 110.277 95.3851 109.183C94.9333 108.989 91.1902 106.865 90.7384 106.672C90.1576 106.865 90.7384 107.251 91.642 107.831C92.6745 108.474 92.8681 109.44 91.642 110.728C90.4803 111.951 89.964 114.268 88.6733 115.878C87.1244 117.745 84.4784 117.745 83.0586 115.041C83.8976 118.646 85.511 119.998 87.1244 120.32Z" fill="#A7B6F2"/>
<path fill-rule="evenodd" clip-rule="evenodd" d="M88.7375 118.582C87.5113 118.775 87.1886 117.745 88.3503 117.552C91.6417 117.165 91.5771 108.732 97.1918 108.925C99.4506 108.99 101.451 111.371 101.258 114.912C101.387 116.135 99.9023 116.522 99.7087 115.363C99.4506 113.56 99.257 111.758 97.2563 111.436C93.6423 110.792 93.7714 117.873 88.7375 118.582Z" fill="#99A9EB"/>
<path fill-rule="evenodd" clip-rule="evenodd" d="M101.646 114.588C102.291 113.108 105.453 106.348 110.552 113.236C111.197 114.138 110.165 114.846 109.519 113.945C106.228 109.503 104.227 113.623 103.582 114.975C102.807 116.52 101.065 116.005 101.646 114.588Z" fill="#99A9EB"/>
<path fill-rule="evenodd" clip-rule="evenodd" d="M97.8362 115.041C97.7717 113.496 96.9327 113.045 95.9647 114.526C95.1257 115.814 94.5449 117.037 93.0605 117.616C92.0925 118.002 91.4471 117.809 92.3506 117.037C93.6414 115.942 94.0286 114.719 94.6739 113.625C96.1583 110.857 98.8688 111.565 98.9334 115.234C98.9979 116.522 97.9008 116.2 97.8362 115.041Z" fill="#8599E6"/>
<path fill-rule="evenodd" clip-rule="evenodd" d="M76.2182 182.57C75.3146 182.442 75.5082 181.669 76.5408 181.669C78.4124 181.476 80.413 181.54 82.3491 181.991C85.5759 182.699 88.4156 184.18 89.0609 187.656C89.3191 189.072 87.4475 189.652 86.9312 188.364C85.3823 184.373 80.0258 183.085 76.2182 182.57Z" fill="#3D408A"/>
<path fill-rule="evenodd" clip-rule="evenodd" d="M86.0277 64.7589C86.0277 64.7589 96.6117 51.1754 114.94 58.965C134.753 67.3983 129.525 85.1019 129.332 86.2607C127.396 96.6253 119.909 109.307 105.582 110.402C89.6418 111.561 83.7689 97.0759 83.7689 97.0759C83.7689 97.0759 75.0565 78.9861 86.0277 64.7589Z" fill="#F2A45E"/>
<path fill-rule="evenodd" clip-rule="evenodd" d="M86.0277 64.7589C86.0277 64.7589 96.6117 51.1754 114.94 58.965C134.753 67.3983 129.525 85.1019 129.332 86.2607C127.396 96.6253 119.909 109.307 105.582 110.402C89.6418 111.561 83.7689 97.0759 83.7689 97.0759C83.7689 97.0759 75.0565 78.9861 86.0277 64.7589Z" fill="#F2A45E" stroke="#D56344" stroke-width="2.9582" stroke-miterlimit="10"/>
<path fill-rule="evenodd" clip-rule="evenodd" d="M111.391 83.1719C116.425 86.0688 121.459 89.9958 126.493 92.8927C123.008 101.39 115.65 108.343 106.293 109.373C93.5789 110.789 84.6083 101.648 82.4141 89.8027C87.0607 103.837 100.807 111.626 113.456 103.837C115.779 102.42 117.78 100.425 119.587 97.9785C120.749 96.4334 120.813 94.5022 118.232 93.3434C115.134 91.9915 112.23 89.352 111.391 83.1719Z" fill="#F18B42"/>
<path fill-rule="evenodd" clip-rule="evenodd" d="M116.554 97.3977C117.329 96.4964 117.909 94.8226 116.941 93.857C116.102 92.9557 114.747 93.0845 112.359 93.4707C103.002 94.9514 94.6118 93.4707 88.9326 85.8099C88.9326 85.9387 87.1255 84.458 87.9 86.2606C88.4163 90.445 91.3849 93.9857 95.3862 96.6896C96.9996 97.784 97.1932 98.1058 98.1613 99.7153C98.8067 100.745 100.42 103.385 104.228 103.513C109.068 103.513 113.65 100.423 116.554 97.3977Z" fill="#F18B42"/>
<path fill-rule="evenodd" clip-rule="evenodd" d="M121.651 63.9863C116.101 59.4799 109.196 57.4199 104.678 57.5486C103.968 59.0293 103.323 60.5743 102.613 62.055C103.129 64.7588 100.677 74.0934 101.258 76.7972C106.033 73.1922 106.421 67.9133 105.775 65.467C105.001 62.3125 106.098 63.6644 107.195 61.025C107.582 60.0593 108.615 60.1881 110.164 60.4456C112.616 60.8318 117.198 61.4756 121.651 63.9863Z" fill="#F18B42"/>
<path fill-rule="evenodd" clip-rule="evenodd" d="M93.5137 58.324C95.5143 55.1695 100.484 53.882 103.001 55.1051C104.033 55.5558 104.485 56.5858 104.614 57.5514C105.066 60.5128 103.001 61.8647 100.096 61.7359C96.4824 61.5428 93.5137 58.324 93.5137 58.324Z" fill="#B83932" stroke="#8C1A14" stroke-width="2.9582" stroke-miterlimit="10"/>
<path fill-rule="evenodd" clip-rule="evenodd" d="M101.84 60.6401C101.388 60.0607 101.001 59.6745 100.355 59.0307C102.356 58.4513 102.485 55.9406 100.549 55.6188C102.227 55.49 103.647 56.0694 103.84 57.8719C104.034 59.0307 103.26 60.3182 101.84 60.6401Z" fill="#A12822"/>
<path fill-rule="evenodd" clip-rule="evenodd" d="M102.548 80.596C107.13 80.3385 110.551 83.6861 110.68 86.6474C110.873 90.8963 107.969 92.3126 104.484 92.4413C100.935 92.5057 95.5781 91.1538 92.7385 88.1925C89.2535 84.523 95.32 81.0467 102.548 80.596Z" fill="#F8B981"/>
<path fill-rule="evenodd" clip-rule="evenodd" d="M84.9305 84.7807C84.8659 83.815 85.9631 83.7506 86.0276 84.7163V84.9738C86.0921 85.9394 84.995 86.0038 84.9305 85.0382V84.7807ZM86.4148 87.0982C87.8991 92.5059 90.5451 95.5959 95.6435 99.0723C96.547 99.716 98.7413 101.712 98.8703 102.806C98.9994 103.579 98.1605 103.579 96.6761 102.999C89.2544 99.9735 85.834 93.1496 85.3177 87.3557C85.1886 86.1969 86.1567 86.0682 86.4148 87.0982Z" fill="#F8B981"/>
<path fill-rule="evenodd" clip-rule="evenodd" d="M129.525 74.867C129.783 71.3263 129.008 66.8843 125.459 65.2105C121.522 63.3436 116.295 66.5624 121.328 70.2963C125.652 73.5151 127.266 75.7039 127.266 75.7039L129.525 74.867Z" fill="#B83932" stroke="#8C1A14" stroke-width="2.9582" stroke-miterlimit="10"/>
<path fill-rule="evenodd" clip-rule="evenodd" d="M128.04 69.7181C127.072 69.3318 126.039 69.0099 125.006 68.8168C125.523 67.7868 125.2 66.3705 124.619 65.8555C126.103 66.4992 127.459 67.5936 128.04 69.7181Z" fill="#A12822"/>
<path fill-rule="evenodd" clip-rule="evenodd" d="M112.875 45.5762C112.81 45.3187 113.004 45.0612 113.262 44.9969C113.52 44.9325 113.778 45.1256 113.843 45.3831C113.843 45.3831 114.294 47.1857 113.455 50.0826C113.068 51.4345 112.294 53.4302 111.068 55.1683C110.551 55.8765 109.97 56.0696 110.422 55.2327C111.39 53.6233 112.1 51.3701 112.487 50.147C113.326 47.25 112.875 45.5762 112.875 45.5762Z" fill="#C55434"/>
<path fill-rule="evenodd" clip-rule="evenodd" d="M114.23 43.7734C113.908 44.2241 113.262 44.4816 112.875 44.7391C111.778 45.3829 110.874 45.8979 109.906 46.5416C110.681 47.2498 111.132 48.3442 111.003 49.9536C111.262 49.2454 112.552 49.1167 112.488 50.018C112.81 49.8892 113.198 49.8892 113.52 49.7605C113.585 49.4386 113.972 49.3098 113.908 49.6961C114.617 47.2498 114.617 45.1253 114.23 43.7734Z" fill="#C55434"/>
<path fill-rule="evenodd" clip-rule="evenodd" d="M98.5479 94.8242C98.2253 104.223 109.261 104.867 115.327 97.3993C116.618 95.7899 115.908 94.6955 113.843 95.0817C111.003 95.6611 103.775 97.013 98.5479 94.8242Z" fill="#85142C"/>
<path fill-rule="evenodd" clip-rule="evenodd" d="M100.16 98.6862C102.032 97.7206 106.033 97.3343 108.421 98.6219C108.55 98.6862 107.001 98.4931 105.581 98.815C104.484 99.0725 105.065 99.0081 105.71 98.9437C109.195 98.6862 110.034 99.5231 111.067 100.231C106.743 102.163 101.515 102.549 100.16 98.6862Z" fill="#BF1937"/>
<path fill-rule="evenodd" clip-rule="evenodd" d="M87.6406 85.7478C87.447 84.9753 88.0924 84.6534 88.6087 85.2972C88.8668 85.5547 89.125 86.1341 89.3186 86.456C90.9965 89.1598 96.9339 95.5975 107.905 95.0181C110.099 94.8893 112.294 94.5031 114.101 94.1168C117.005 93.5374 117.908 95.7262 116.037 98.0438C110.422 104.932 99.1281 106.799 98.1601 95.9837C92.3518 93.7305 89.5767 89.2242 88.3505 87.0354C88.1569 86.7135 87.7697 86.0697 87.6406 85.7478ZM103.388 97.2069C101.968 97.0781 100.677 96.8206 99.5153 96.4987C100.483 104.095 109.777 102.099 113.972 97.5931C114.617 96.885 115.327 95.7262 113.455 96.2412C109.906 97.1425 106.679 97.6575 103.388 97.2069Z" fill="#85142C"/>
<path d="M124.426 92.3438C130.679 91.8443 135.343 86.3828 134.842 80.1453C134.341 73.9078 128.866 69.2562 122.613 69.7557C116.36 70.2552 111.697 75.7167 112.198 81.9542C112.698 88.1917 118.173 92.8433 124.426 92.3438Z" fill="white"/>
<path fill-rule="evenodd" clip-rule="evenodd" d="M82.2196 89.0286C81.3161 85.0373 81.058 79.694 82.0906 75.3164C84.672 78.5996 87.8343 80.2734 91.5129 80.6597C91.2547 81.0459 89.125 82.1403 86.6081 80.7884C81.5743 78.0202 81.8324 84.9729 82.2196 89.0286Z" fill="#F18B42"/>
<path fill-rule="evenodd" clip-rule="evenodd" d="M87.0595 81.3055C86.156 81.1124 86.3496 80.018 87.3176 80.2111C87.3176 80.2111 95.8364 81.8205 100.87 74.6104C101.064 74.2885 101.516 74.2241 101.838 74.4172C102.161 74.6104 102.096 75.7048 101.838 76.0266C96.2237 84.1381 87.124 81.3055 87.0595 81.3055Z" fill="#DC7545"/>
<path d="M93.1911 79.5942C99.4441 79.095 104.107 73.6338 103.607 67.3963C103.107 61.1588 97.6317 56.507 91.3787 57.0062C85.1257 57.5054 80.4624 62.9667 80.9628 69.2042C81.4633 75.4417 86.9381 80.0935 93.1911 79.5942Z" fill="white"/>
<path fill-rule="evenodd" clip-rule="evenodd" d="M104.55 67.3362C104.808 70.7481 103.711 73.9026 101.645 76.2845C99.5802 78.6664 96.6116 80.2758 93.2557 80.5977H93.1911C89.8352 80.8552 86.6084 79.7608 84.2205 77.7008L84.156 77.6364C81.7681 75.5764 80.1547 72.6794 79.8966 69.3318V69.2675C79.6384 65.9199 80.7356 62.7654 82.8007 60.3191L82.8653 60.2547C84.9304 57.8728 87.8346 56.2634 91.1905 56.0059H91.255C94.6109 55.7484 97.8378 56.8428 100.226 58.9028C102.678 61.0273 104.291 63.9886 104.55 67.3362Z" fill="#B594A0"/>
<path fill-rule="evenodd" clip-rule="evenodd" d="M100.225 75.0601C101.968 73.0644 102.936 70.3606 102.678 67.4636C102.42 64.6311 101.064 62.1204 99.0636 60.3822C97.063 58.644 94.3524 57.7428 91.5128 57.9359H91.4483C88.6087 58.1934 86.1563 59.5453 84.4138 61.4766L84.3493 61.541C82.6068 63.5367 81.7033 66.2405 81.8969 69.0731V69.2018C82.155 72.0344 83.5103 74.4807 85.4464 76.2189L85.5109 76.2832C87.5116 78.0214 90.2221 78.9227 93.0617 78.7295H93.1263C96.0304 78.472 98.4828 77.1201 100.225 75.0601Z" fill="white"/>
<path fill-rule="evenodd" clip-rule="evenodd" d="M100.225 75.0627C101.967 73.0671 102.936 70.3633 102.677 67.4663C102.419 64.6337 101.064 62.123 99.0634 60.3849C98.3535 59.7411 97.5145 59.2261 96.6755 58.8398C98.2889 60.5136 99.386 62.7024 99.5796 65.2131C99.8378 68.1101 98.8697 70.7495 97.1273 72.8096C95.3848 74.8052 92.9324 76.2215 90.0282 76.4146H89.9637C88.1567 76.5434 86.3497 76.2215 84.8008 75.5134C85.0589 75.7709 85.2525 75.964 85.5107 76.1571L85.5752 76.2215C87.5759 77.9597 90.2864 78.861 93.126 78.6678H93.1905C96.0301 78.4747 98.4825 77.1228 100.225 75.0627Z" fill="#E6E6E6"/>
<path d="M94.9824 74.8567C97.1141 74.6863 98.7037 72.8244 98.5328 70.6979C98.362 68.5715 96.4954 66.9859 94.3637 67.1563C92.232 67.3267 90.6424 69.1887 90.8132 71.3151C90.9841 73.4415 92.8507 75.0272 94.9824 74.8567Z" stroke="#3A3E8C" stroke-width="5.3665" stroke-miterlimit="22.9256"/>
<path fill-rule="evenodd" clip-rule="evenodd" d="M98.4191 72.1001C97.9673 73.5807 96.6766 74.7395 94.9986 74.8683C93.5788 74.997 92.2881 74.2889 91.5137 73.1945C91.9654 71.7138 93.2562 70.555 94.9341 70.4263C96.3539 70.3619 97.6446 71.0057 98.4191 72.1001Z" fill="#5464D9"/>
<path d="M94.9335 73.506C96.2836 73.3983 97.2904 72.2191 97.1824 70.8724C97.0743 69.5257 95.8923 68.5213 94.5422 68.6291C93.1921 68.7368 92.1852 69.916 92.2933 71.2627C92.4013 72.6094 93.5834 73.6138 94.9335 73.506Z" fill="#333791"/>
<path d="M94.6436 70.811C95.2671 69.9444 95.2092 68.8386 94.5142 68.3411C93.8193 67.8435 92.7505 68.1426 92.127 69.0091C91.5035 69.8757 91.5614 70.9815 92.2564 71.479C92.9513 71.9766 94.0201 71.6775 94.6436 70.811Z" fill="#FEFEFE"/>
<path d="M96.7915 72.9308C97.0837 72.6193 97.1308 72.1895 96.8965 71.9708C96.6623 71.7522 96.2355 71.8275 95.9432 72.139C95.651 72.4506 95.6039 72.8804 95.8382 73.099C96.0724 73.3177 96.4992 73.2424 96.7915 72.9308Z" fill="#5464D9"/>
<path fill-rule="evenodd" clip-rule="evenodd" d="M135.85 80.0822C136.108 83.4942 135.011 86.6487 132.946 89.0306C130.881 91.4125 127.912 93.0219 124.556 93.3438H124.492C121.136 93.6013 117.909 92.5069 115.521 90.4469L115.457 90.3825C113.069 88.3224 111.456 85.4255 111.197 82.0779V82.0135C110.939 78.666 112.036 75.5115 114.102 73.0652L114.166 73.0008C116.231 70.6189 119.135 69.0095 122.491 68.752H122.556C125.912 68.4945 129.139 69.5889 131.526 71.6489C133.979 73.7733 135.592 76.7347 135.85 80.0822Z" fill="#B594A0"/>
<path fill-rule="evenodd" clip-rule="evenodd" d="M131.526 87.8062C133.269 85.8105 134.237 83.1067 133.978 80.2097C133.72 77.3771 132.365 74.8665 130.364 73.1283C128.364 71.3901 125.653 70.4889 122.814 70.682H122.749C119.909 70.9395 117.457 72.2914 115.715 74.2227L115.65 74.2871C113.908 76.2828 113.004 78.9866 113.198 81.8191V81.8835C113.456 84.7161 114.811 87.1624 116.747 88.9006L116.812 88.9649C118.812 90.7031 121.523 91.6044 124.363 91.4112H124.427C127.267 91.2181 129.784 89.8662 131.526 87.8062Z" fill="white"/>
<path fill-rule="evenodd" clip-rule="evenodd" d="M131.526 87.8089C133.268 85.8132 134.236 83.1094 133.978 80.2124C133.72 77.3798 132.365 74.8691 130.364 73.131C129.654 72.4872 128.815 71.9722 127.976 71.5859C129.59 73.2597 130.687 75.4485 130.88 77.9592C131.139 80.8562 130.171 83.4956 128.428 85.5557C126.686 87.5513 124.233 88.9676 121.329 89.1608H121.264C119.457 89.2895 117.65 88.9676 116.102 88.2595C116.36 88.517 116.553 88.7101 116.811 88.9033L116.876 88.9676C118.877 90.7058 121.587 91.6071 124.427 91.4139H124.491C127.266 91.2208 129.783 89.8689 131.526 87.8089Z" fill="#E6E6E6"/>
<path d="M126.351 87.2123C128.483 87.0419 130.073 85.1799 129.902 83.0535C129.731 80.9271 127.865 79.3414 125.733 79.5118C123.601 79.6822 122.012 81.5441 122.182 83.6705C122.353 85.797 124.22 87.3827 126.351 87.2123Z" stroke="#3A3E8C" stroke-width="5.3665" stroke-miterlimit="22.9256"/>
<path fill-rule="evenodd" clip-rule="evenodd" d="M129.72 84.3931C129.268 85.8737 127.977 87.0325 126.299 87.1612C124.88 87.29 123.589 86.5819 122.814 85.4875C123.266 84.0068 124.557 82.848 126.235 82.7193C127.655 82.6549 128.945 83.2987 129.72 84.3931Z" fill="#5464D9"/>
<path d="M126.234 85.8029C127.584 85.6951 128.591 84.516 128.483 83.1693C128.375 81.8225 127.193 80.8182 125.843 80.9259C124.493 81.0337 123.486 82.2128 123.594 83.5596C123.702 84.9063 124.884 85.9107 126.234 85.8029Z" fill="#333791"/>
<path d="M125.939 83.1274C126.562 82.2608 126.504 81.155 125.809 80.6575C125.114 80.1599 124.045 80.459 123.422 81.3255C122.798 82.1921 122.856 83.2979 123.551 83.7954C124.246 84.293 125.315 83.9939 125.939 83.1274Z" fill="#FEFEFE"/>
<path d="M128.092 85.2511C128.385 84.9396 128.432 84.5098 128.197 84.2911C127.963 84.0725 127.536 84.1478 127.244 84.4593C126.952 84.7709 126.905 85.2007 127.139 85.4193C127.373 85.638 127.8 85.5627 128.092 85.2511Z" fill="#5464D9"/>
<path fill-rule="evenodd" clip-rule="evenodd" d="M116.746 206.195C116.746 206.195 109.905 206.388 111.583 214.242C113.197 222.096 113.971 230.658 114.358 234.134C113.261 235.551 113.648 237.868 113.648 239.413C113.648 240.508 113.648 242.632 117.004 243.469C127.782 246.237 143.077 245.851 148.369 243.662C149.144 243.34 149.079 242.375 148.627 239.349C148.046 235.357 146.175 234.714 146.175 234.714C146.175 234.714 147.53 234.263 146.691 230.916C146.239 229.242 145.4 228.276 144.691 227.761C143.723 227.053 142.045 226.409 140.56 225.894C139.592 225.572 138.818 224.864 138.56 224.285C137.914 222.868 134.107 210.122 134.107 210.122C134.107 210.122 132.041 202.719 126.62 204.521C119.65 205.294 116.746 206.195 116.746 206.195Z" fill="#9E4D74" stroke="#75233F" stroke-width="2.3943" stroke-miterlimit="10" stroke-linecap="round" stroke-linejoin="round"/>
<path fill-rule="evenodd" clip-rule="evenodd" d="M116.036 206.901C116.036 206.901 109.905 206.386 111.519 214.24C113.132 222.094 113.906 230.656 114.294 234.133C113.197 235.549 113.584 237.867 113.584 239.412C113.584 240.506 113.584 242.63 116.94 243.467C120.166 244.304 123.78 244.819 127.395 245.141L127.201 244.562C125.717 243.789 125.394 243.339 125.265 241.6C125.2 240.442 125.2 240.506 125.136 239.412C125.071 238.382 125.458 237.931 126.362 237.995C133.267 238.51 139.656 237.931 139.721 237.03C139.786 236.322 126.62 235.742 127.588 235.678C126.168 235.227 126.104 232.845 128.169 230.656C129.976 228.789 140.302 228.081 137.075 227.309C135.01 226.794 131.718 226.987 129.524 227.824C129.331 228.21 129.137 228.789 127.524 229.111C127.395 229.047 127.072 227.759 127.717 227.309C128.621 226.665 131.912 226.021 134.881 225.699C134.171 225.378 141.205 226.15 140.495 225.893C140.108 225.764 139.721 225.571 139.398 225.313C133.461 223.124 128.879 222.996 124.103 222.545C123.458 222.545 122.038 225.506 121.393 225.506C121.134 224.863 119.134 223.253 121.522 220.421C120.941 218.875 120.683 218.232 120.231 216.687C119.715 214.884 120.425 213.854 122.361 213.403C124.684 212.824 126.62 212.373 128.621 211.086C129.589 210.442 130.492 209.283 129.782 208.64C129.524 208.511 129.266 208.511 129.008 208.511C128.298 208.511 122.554 210.7 114.229 210.7C113.519 210.893 113.584 208.897 115.778 208.575C116.617 208.575 116.036 206.901 116.036 206.901Z" fill="#B56D90"/>
<path fill-rule="evenodd" clip-rule="evenodd" d="M116.746 206.195C116.746 206.195 109.905 206.388 111.583 214.242C113.197 222.096 113.971 230.658 114.358 234.134C113.261 235.551 113.648 237.868 113.648 239.413C113.648 240.508 113.648 242.632 117.004 243.469C127.782 246.237 143.077 245.851 148.369 243.662C149.144 243.34 149.079 242.375 148.627 239.349C148.046 235.357 146.175 234.714 146.175 234.714C146.175 234.714 147.53 234.263 146.691 230.916C146.239 229.242 145.4 228.276 144.691 227.761C143.723 227.053 142.045 226.409 140.56 225.894C139.592 225.572 138.818 224.864 138.56 224.285C137.914 222.868 134.107 210.122 134.107 210.122C134.107 210.122 132.041 202.719 126.62 204.521C119.65 205.294 116.746 206.195 116.746 206.195Z" stroke="#8C3660" stroke-width="2.3943" stroke-miterlimit="10" stroke-linecap="round" stroke-linejoin="round"/>
<path fill-rule="evenodd" clip-rule="evenodd" d="M122.555 226.796C122.49 226.41 122.748 226.088 123.136 226.088C123.523 226.024 123.845 226.281 123.845 226.667V226.732C124.104 227.955 126.298 228.084 127.201 227.891C127.395 227.826 127.266 227.633 127.266 227.633C127.137 227.311 127.266 226.925 127.589 226.732C127.911 226.603 128.299 226.732 128.492 227.054C129.008 228.019 128.686 228.856 127.33 229.178C124.943 229.757 122.942 229.049 122.49 226.989L122.555 226.796Z" fill="#8C3660"/>
<path fill-rule="evenodd" clip-rule="evenodd" d="M120.941 222.869C120.489 224.8 122.619 225.702 123.845 225.702C124.748 225.702 124.297 227.697 123.393 227.697C121.199 227.697 118.553 224.929 119.973 222.805C120.489 222.097 121.263 222.161 120.941 222.869Z" fill="#8C3660"/>
<path fill-rule="evenodd" clip-rule="evenodd" d="M117.714 234.457C121.716 235.165 126.233 235.487 130.17 235.616C134.171 235.745 144.626 235.551 146.175 233.234C146.498 233.041 146.82 233.62 147.014 233.942C147.208 234.264 147.143 235.165 146.885 235.423C143.658 237.805 134.429 237.547 130.041 237.29C126.04 237.032 121.587 236.517 117.521 235.487C115.843 234.972 115.972 234.135 117.714 234.457Z" fill="#8C3660"/>
<path fill-rule="evenodd" clip-rule="evenodd" d="M139.72 224.285C139.72 224.285 126.942 222.869 124.296 226.538C123.199 226.86 121.65 225.315 122.037 223.963C122.425 222.74 123.199 221.517 124.877 220.616C127.265 219.264 132.492 219.071 137.397 221.195C142.302 223.319 139.72 224.285 139.72 224.285Z" fill="#D2B2BF" stroke="#8C3660" stroke-width="2.0734" stroke-miterlimit="10" stroke-linecap="round" stroke-linejoin="round"/>
<path fill-rule="evenodd" clip-rule="evenodd" d="M142.109 226.602C142.109 226.602 141.722 226.602 141.529 226.538C139.141 225.765 130.428 224.413 127.201 227.954C126.104 228.34 124.878 228.34 123.781 227.182C123.652 225.701 125.201 224.156 127.008 223.319C130.299 221.903 137.205 222.418 140.238 223.898C141.464 224.478 142.367 225.379 142.109 226.602Z" fill="#D2B2BF" stroke="#8C3660" stroke-width="2.0734" stroke-miterlimit="10" stroke-linecap="round" stroke-linejoin="round"/>
<path fill-rule="evenodd" clip-rule="evenodd" d="M94.5456 116.326C93.9647 115.683 93.9002 114.524 94.4165 113.816C94.9328 113.043 95.9008 112.979 96.4817 113.623C97.7724 114.974 99.8376 115.747 102.032 115.811C104.097 115.876 106.614 115.103 108.356 113.687C109.002 113.108 109.647 113.558 110.099 114.395C110.551 115.232 110.357 116.326 109.712 116.906C107.453 118.773 104.678 119.545 102.032 119.481C99.0631 119.352 96.288 118.258 94.5456 116.326Z" fill="#45519E"/>
<path fill-rule="evenodd" clip-rule="evenodd" d="M104.742 122.699C102.16 125.403 99.1914 125.146 96.8681 120.317C95.0611 116.583 97.1908 115.232 98.8042 114.588C100.095 114.073 102.225 113.622 105.451 114.523C109.969 115.811 106.742 120.639 104.742 122.699Z" fill="#45519E" stroke="#45519E" stroke-width="3.0452" stroke-miterlimit="10" stroke-linecap="round" stroke-linejoin="round"/>
<path fill-rule="evenodd" clip-rule="evenodd" d="M97.1926 117.935C97.1926 118.643 97.5152 119.48 98.0315 120.381C96.8699 116.197 104.679 114.78 106.744 117.162C107.067 115.167 103.001 114.909 101.452 114.973C99.774 115.102 97.128 115.875 97.1926 117.935Z" fill="#5C66B8"/>
<path fill-rule="evenodd" clip-rule="evenodd" d="M61.1158 125.405C85.5751 120.899 136.301 110.341 160.438 104.676C163.729 103.904 164.181 104.161 164.632 107.444C165.084 111.049 172.57 140.984 177.088 152.83C178.185 155.727 176.83 156.37 175.023 156.821C158.566 161.199 100.999 173.817 74.0231 178.387C71.7643 178.774 71.3771 178.773 71.119 177.228C69.1183 166.349 67.5694 153.989 64.2781 143.302C62.7937 138.474 61.0513 133.903 59.3088 129.139C58.4698 126.95 58.4053 125.92 61.1158 125.405Z" fill="white" stroke="#BDC4DE" stroke-width="4.0035" stroke-miterlimit="10" stroke-linecap="round" stroke-linejoin="round"/>
<path fill-rule="evenodd" clip-rule="evenodd" d="M170.053 134.223C170.505 135.188 170.505 136.476 170.892 137.506C171.344 139.115 172.054 141.433 172.505 143.106C170.44 143.815 167.923 143.943 167.988 138.536C164.116 140.21 162.502 135.961 163.986 132.356C157.662 132.098 160.437 123.729 163.793 120.961C165.923 125.339 167.988 129.781 170.053 134.223Z" fill="#E6E6E6"/>
<path fill-rule="evenodd" clip-rule="evenodd" d="M175.022 128.237C172.828 125.597 168.891 131.262 168.182 131.777C165.084 135.447 167.665 141.112 170.182 138.408C171.473 136.992 173.603 136.412 174.893 134.867C176.184 133.194 176.829 130.425 175.022 128.237Z" fill="#DED1D6" stroke="#C2A7B1" stroke-width="2.94" stroke-miterlimit="10" stroke-linecap="round" stroke-linejoin="round"/>
<path fill-rule="evenodd" clip-rule="evenodd" d="M169.794 131.198C170.697 130.619 173.15 128.301 173.86 128.816C174.828 129.589 174.118 131.005 172.891 132.164C171.601 133.387 170.891 133.516 169.6 135.19C169.342 135.576 169.084 135.898 168.826 136.155C168.374 136.67 167.729 136.735 167.664 135.962C167.341 133.258 168.18 132.615 169.794 131.198Z" fill="white"/>
<path fill-rule="evenodd" clip-rule="evenodd" d="M171.795 121.09C166.567 121.67 161.211 128.687 164.373 133.129C165.019 134.094 166.116 134.352 167.342 132.935C168.826 131.197 170.504 130.167 171.666 129.652C176.829 127.399 176.829 120.575 171.795 121.09Z" fill="#DED1D6" stroke="#C2A7B1" stroke-width="2.8096" stroke-miterlimit="10" stroke-linecap="round" stroke-linejoin="round"/>
<path fill-rule="evenodd" clip-rule="evenodd" d="M168.052 124.696C169.214 123.988 172.828 120.512 173.022 123.795C173.086 124.889 172.312 125.662 170.956 126.499C169.214 127.593 167.342 128.687 166.052 130.232C165.148 131.262 164.245 131.391 164.374 130.232C164.503 126.82 165.406 127.142 168.052 124.696Z" fill="white"/>
<path fill-rule="evenodd" clip-rule="evenodd" d="M174.893 115.62C173.99 113.109 170.634 111.821 167.342 113.753C163.406 116.135 159.533 121.542 161.147 125.662C161.857 127.465 163.793 128.109 165.406 126.306C167.213 124.246 169.537 123.216 171.924 121.607C173.861 120.383 175.797 118.195 174.893 115.62Z" fill="white" stroke="#C2A7B1" stroke-width="2.7227" stroke-miterlimit="10" stroke-linecap="round" stroke-linejoin="round"/>
<path fill-rule="evenodd" clip-rule="evenodd" d="M170.893 113.754C172.57 115.17 172.764 117.037 171.344 118.775C170.312 120.063 168.44 121.028 167.149 122.187C166.44 122.831 165.73 123.475 165.084 124.247C164.955 124.44 164.762 124.569 164.632 124.762C163.923 125.535 162.696 126.05 161.857 125.213C162.051 125.985 162.696 126.565 163.406 126.5C164.503 126.436 165.084 125.277 165.859 124.634C167.601 123.089 169.344 122.316 171.602 120.771C172.377 120.256 173.732 119.033 174.119 117.617C174.7 115.556 172.958 113.883 170.893 113.754Z" fill="#DED1D6"/>
<path fill-rule="evenodd" clip-rule="evenodd" d="M41.0449 153.796C42.2066 155.212 46.4015 156.628 52.597 156.628C51.6934 155.341 51.4998 154.955 50.919 152.895C47.8858 154.504 43.1746 154.955 41.0449 153.796Z" fill="#A7B6F2"/>
<path fill-rule="evenodd" clip-rule="evenodd" d="M46.1443 147.294C46.8542 147.358 48.7903 147.423 51.5653 146.908C52.8561 146.779 52.3398 149.096 51.1781 149.225C48.4031 149.547 46.6606 149.032 45.8861 148.646C44.4018 148.066 44.2082 147.165 46.1443 147.294Z" fill="#99A9EB"/>
<path d="M64.6008 39.7852C61.9548 43.1971 58.2762 39.3989 56.1465 42.8109" stroke="#FFC4DE" stroke-width="4.0245" stroke-miterlimit="22.9256" stroke-linecap="round" stroke-linejoin="round"/>
<path d="M142.948 32.8945C142.819 32.8945 142.69 32.8945 142.561 32.8945M151.338 40.1691C147.982 40.1047 149.466 35.6627 145.916 33.8602L151.338 40.1691Z" stroke="#CDCEFC" stroke-width="4.0245" stroke-miterlimit="22.9256" stroke-linecap="round" stroke-linejoin="round"/>
<path d="M103.388 4.56947C101.904 0.900009 98.0316 0.513749 95.5792 2.31629C92.9978 4.24759 91.9006 8.49645 95.2565 10.2346" stroke="#EBEBFF" stroke-width="4.0245" stroke-miterlimit="22.9256" stroke-linecap="round" stroke-linejoin="round"/>
<path d="M31.0407 181.348C27.4912 183.923 25.4906 182.571 24.0063 180.962C22.5219 179.288 21.0376 177.55 19.166 178.838" stroke="#FFC4DE" stroke-width="4.0245" stroke-miterlimit="22.9256" stroke-linecap="round" stroke-linejoin="round"/>
<path d="M39.8181 76.5436C36.2686 79.1186 34.2679 77.7667 32.7836 76.1573C31.2993 74.4835 29.8149 72.7454 27.9434 74.0329" stroke="#CDCEFC" stroke-width="4.0245" stroke-miterlimit="22.9256" stroke-linecap="round" stroke-linejoin="round"/>
<path d="M179.088 6.0507C179.217 6.11508 179.282 6.17946 179.476 6.24383M168.182 8.23951C171.15 9.84892 172.054 5.21381 176.055 5.47131L168.182 8.23951Z" stroke="#FFC4DE" stroke-width="4.0245" stroke-miterlimit="22.9256" stroke-linecap="round" stroke-linejoin="round"/>
<path d="M180.638 69.5883C181.542 67.657 180.315 65.7901 178.702 65.4682C177.024 65.1464 175.088 65.9833 175.088 68.4296" stroke="#CDCEFC" stroke-width="4.0245" stroke-miterlimit="22.9256" stroke-linecap="round" stroke-linejoin="round"/>
<path d="M178.958 205.488C176.312 208.9 172.634 205.102 170.504 208.514" stroke="#FFC4DE" stroke-width="4.0245" stroke-miterlimit="22.9256" stroke-linecap="round" stroke-linejoin="round"/>
<path d="M181.541 117.873C183.219 119.16 185.349 118.452 186.059 116.907C186.768 115.362 186.381 113.302 183.993 112.723" stroke="#D4D5FF" stroke-width="4.0245" stroke-miterlimit="22.9256" stroke-linecap="round" stroke-linejoin="round"/>
<path d="M9.42193 219.779C8.19574 216.882 5.16252 216.56 3.16189 217.976C1.16125 219.521 0.257742 222.933 2.90374 224.285" stroke="#CDCEFC" stroke-width="4.0245" stroke-miterlimit="22.9256" stroke-linecap="round" stroke-linejoin="round"/>
<path d="M202.708 171.241C201.224 167.572 197.352 167.186 194.9 168.988C192.318 170.919 191.221 175.168 194.577 176.906" stroke="#CDCEFC" stroke-width="4.0245" stroke-miterlimit="22.9256" stroke-linecap="round" stroke-linejoin="round"/>
<path d="M147.531 181.67C148.434 179.739 147.208 177.872 145.595 177.55C143.917 177.228 141.98 178.065 141.98 180.512" stroke="#EBEBFF" stroke-width="4.0245" stroke-miterlimit="22.9256" stroke-linecap="round" stroke-linejoin="round"/>
<path d="M19.0388 13.067C15.4893 15.6421 13.4886 14.2902 12.0043 12.6808C10.52 11.007 9.03562 9.2688 7.16406 10.5563" stroke="#FFC4DE" stroke-width="4.0245" stroke-miterlimit="22.9256" stroke-linecap="round" stroke-linejoin="round"/>
<path d="M2.70898 123.15C4.38693 124.438 6.51664 123.73 7.22654 122.184C7.93644 120.639 7.54922 118.579 5.16137 118" stroke="#EBEBFF" stroke-width="4.0245" stroke-miterlimit="22.9256" stroke-linecap="round" stroke-linejoin="round"/>
<path fill-rule="evenodd" clip-rule="evenodd" d="M67.3105 151.025C67.8914 154.308 68.924 157.398 69.5048 160.681C69.8275 162.419 70.2147 164.866 70.5374 166.604C75.8294 166.604 76.2166 162.999 76.4747 158.621C76.7329 155.08 76.6684 154.115 77.8946 151.99C78.8626 150.381 78.7335 148.836 77.5719 147.677C79.2498 144.587 78.1527 143.235 76.4747 142.784C79.1207 139.887 76.023 137.184 74.216 137.184C72.0863 141.561 69.5048 146.583 67.3105 151.025Z" fill="#E6E6E6"/>
<path fill-rule="evenodd" clip-rule="evenodd" d="M62.0844 157.335C57.4377 159.588 53.3074 158.043 51.8876 153.666C50.4033 148.966 51.694 143.945 56.7924 144.653C60.4064 146.134 62.0844 157.335 62.0844 157.335Z" fill="white" stroke="#C2A7B1" stroke-width="2.7667" stroke-miterlimit="10" stroke-linecap="round" stroke-linejoin="round"/>
<path fill-rule="evenodd" clip-rule="evenodd" d="M58.7938 157.53C57.1804 156.307 55.696 154.504 54.7925 153.023C55.7606 155.405 54.3408 155.92 53.6309 155.212C54.3408 156.307 55.7606 157.787 58.7938 157.53Z" fill="#DED1D6"/>
<path fill-rule="evenodd" clip-rule="evenodd" d="M74.5394 157.401C74.9911 155.662 74.9911 153.924 76.3464 151.929C78.5406 148.71 75.2493 147.744 73.5713 148.838C74.2167 147.873 74.9266 147.358 75.701 146.972C79.3151 145.362 77.5726 142.208 74.6039 142.143C77.9598 141.886 78.1534 139.118 76.7336 137.701C72.926 133.903 66.8595 137.058 64.0845 140.212C63.4391 137.894 60.5349 131.071 60.5349 131.071C58.3407 129.912 55.6947 131.071 55.0493 132.873C54.2749 135.062 56.5337 136.285 57.9535 137.251C58.9861 137.959 59.9541 138.796 59.3088 140.019C55.7592 141.306 54.7267 144.139 54.6621 147.615C54.533 154.697 60.7931 160.684 68.1503 161.649C71.7643 162.1 73.5713 161.199 74.5394 157.401Z" fill="white"/>
<path fill-rule="evenodd" clip-rule="evenodd" d="M74.5398 157.403C74.9916 155.664 74.9916 153.926 76.3469 151.931C78.5411 148.712 75.2497 147.746 73.5718 148.84C74.2172 147.875 74.9271 147.36 75.7015 146.974C79.3155 145.364 77.5731 142.21 74.6044 142.145C76.9922 141.952 77.5085 141.115 77.2504 139.828C76.5405 138.926 76.0242 138.669 75.3788 138.347C71.7648 136.673 68.667 139.377 66.4728 142.017C65.3757 143.368 64.214 144.656 65.1175 145.171C66.4082 145.879 66.7955 148.905 64.9239 149.87C63.0523 150.9 64.4721 150.643 65.6338 150.965C68.4089 151.802 69.9578 154.57 68.6025 155.857C68.4089 156.051 68.9897 156.501 68.7961 156.759C70.9258 156.823 72.7974 160.557 69.0542 160.879L70.6677 161.716C72.6683 161.458 73.8299 160.235 74.5398 157.403ZM63.8913 139.699L62.2134 141.437C62.4715 140.278 62.407 139.248 61.9552 138.283C61.4389 137.124 60.5354 135.708 59.1156 134.678C57.2441 133.326 57.1795 131.137 59.4383 131.652L60.5354 131.266C61.0517 132.296 63.0523 137.253 63.8913 139.699Z" fill="#DED1D6"/>
<path fill-rule="evenodd" clip-rule="evenodd" d="M74.4749 157.401C74.9267 155.662 74.9267 153.924 76.2819 151.929C78.4762 148.71 75.1848 147.744 73.5069 148.838C74.1522 147.873 74.8621 147.358 75.6366 146.972C79.2506 145.362 77.5081 142.208 74.5395 142.143C77.8954 141.886 78.089 139.118 76.6692 137.701C72.8615 133.903 66.7951 137.058 64.02 140.212C63.3746 137.894 60.4705 131.071 60.4705 131.071C58.2762 129.912 55.6302 131.071 54.9849 132.873C54.2104 135.062 56.4692 136.285 57.889 137.251C58.9216 137.959 59.8897 138.796 59.2443 140.019C55.6948 141.306 54.6622 144.139 54.5977 147.615C54.4686 154.697 60.7286 160.684 68.0858 161.649C71.7644 162.1 73.5714 161.199 74.4749 157.401Z" stroke="#C2A7B1" stroke-width="2.7651" stroke-miterlimit="10" stroke-linecap="round" stroke-linejoin="round"/>
<path fill-rule="evenodd" clip-rule="evenodd" d="M63.18 150.383C65.9551 149.997 67.1812 148.58 68.2784 146.649C69.6982 144.074 70.9889 141.757 74.2803 141.306C76.6681 140.984 76.4745 143.495 75.0547 143.108C72.2796 142.465 70.7308 146.199 69.5046 148.001C68.1493 149.997 66.6649 151.671 63.6963 151.542C61.9538 151.477 61.9538 150.576 63.18 150.383Z" fill="#C2A7B1"/>
<path fill-rule="evenodd" clip-rule="evenodd" d="M67.375 157.143C66.4715 157.078 66.1488 156.434 67.2459 156.37C68.9238 156.306 69.8919 154.761 70.4727 153.473C71.3762 151.413 72.2152 148.323 74.1513 146.971C74.5385 146.649 74.7967 146.842 75.1194 147.229C75.442 147.615 75.6356 148.902 75.313 149.224C75.2484 149.289 75.1194 149.353 74.9257 149.353C73.0542 149.675 72.4734 152.829 71.828 154.31C70.989 156.177 69.6983 157.336 67.375 157.143Z" fill="#C2A7B1"/>
<path fill-rule="evenodd" clip-rule="evenodd" d="M60.5348 142.593C62.4064 142.013 62.1482 140.983 63.0517 139.825C63.3099 139.503 63.6325 139.31 64.0198 138.923C64.3425 138.537 64.9233 138.537 65.3105 138.859C65.6977 139.181 65.6977 139.76 65.375 140.146C63.9552 141.627 63.1163 143.623 60.6639 143.623C59.3086 143.687 59.4377 142.979 60.5348 142.593Z" fill="#C2A7B1"/>
<path fill-rule="evenodd" clip-rule="evenodd" d="M70.99 209.544C72.8615 209.866 78.1535 210.51 82.542 208.128C83.7682 207.484 84.2845 208.836 82.2193 209.866C77.7663 212.119 73.4423 211.926 71.3772 211.54C69.312 211.283 68.4085 209.094 70.99 209.544Z" fill="#8C3660"/>
<path fill-rule="evenodd" clip-rule="evenodd" d="M108.486 184.503C109.454 185.34 115.714 197.507 116.618 210.64C122.813 211.219 127.847 208.966 127.847 208.966C127.847 208.966 126.105 192.55 116.102 180.254C112.875 180.769 109.906 182.507 108.486 184.503Z" fill="#F18B42" stroke="#C55434" stroke-width="2.7624" stroke-miterlimit="10" stroke-linecap="round" stroke-linejoin="round"/>
<path fill-rule="evenodd" clip-rule="evenodd" d="M124.813 209.095C122.942 209.674 120.619 210.125 117.456 209.996C117.263 205.168 115.907 199.309 113.971 193.837C113.261 187.786 117.908 189.975 120.425 194.996C122.297 198.859 124.491 205.876 124.813 209.095Z" fill="#F2A45E"/>
<path fill-rule="evenodd" clip-rule="evenodd" d="M108.549 186.563C107.904 187.722 105.322 186.306 107.581 183.473C109.517 181.027 115.326 178.58 118.488 179.675C119.779 180.125 119.327 181.091 118.23 181.027C114.487 180.962 110.421 183.28 108.549 186.563Z" fill="#3D408A"/>
<path fill-rule="evenodd" clip-rule="evenodd" d="M116.101 210.06C119.586 210.382 124.555 210.06 128.621 208.065C130.622 207.099 131.138 208.451 128.944 209.545C124.555 211.734 119.328 212.442 116.101 212.185C113.003 211.927 113.197 209.867 116.101 210.06Z" fill="#8C3660"/>
<path fill-rule="evenodd" clip-rule="evenodd" d="M95.3849 134.031L78.6699 137.443L79.3798 140.855L85.4463 139.632L89.383 158.687L93.7069 157.786L89.7702 138.73L95.643 137.507L95.3849 134.031ZM109.97 131.07L96.8692 133.773L101.516 156.241L114.746 153.537L114.1 150.318L105.194 152.121L103.839 145.49L111.067 144.009L110.422 140.79L103.194 142.271L101.903 135.962L110.228 134.288L109.97 131.07ZM130.751 150.254L135.333 149.288L123.716 128.237L118.424 129.331L116.037 153.215L120.49 152.314L120.812 146.842L128.299 145.297L130.751 150.254ZM120.941 143.43L121.587 132.1L126.685 142.207L120.941 143.43ZM152.758 122.25L159.147 144.396L154.952 145.232L152.435 135.962C151.532 132.679 150.693 129.267 150.241 126.821L149.467 143.816L145.401 144.653L137.656 129.396C138.431 132.422 139.012 135.512 139.463 138.73L140.819 148.129L136.624 148.966L133.784 126.113L139.334 124.954L146.562 139.889L147.079 123.344L152.758 122.25Z" fill="#7C83FF"/>
</g>
<defs>
<clipPath id="clip0">
<rect width="204" height="253" fill="white"/>
</clipPath>
</defs>
</svg>
