<svg width="467" height="185" viewBox="0 0 467 185" fill="none" xmlns="http://www.w3.org/2000/svg">
<g clip-path="url(#clip0)">
<path fill-rule="evenodd" clip-rule="evenodd" d="M308.075 117.92H290.908C287.933 121.151 284.789 124.722 281.729 127.868C280.624 128.888 279.265 129.398 277.905 129.398C276.545 129.398 275.185 128.888 274.166 127.953C271.106 125.062 267.877 121.151 264.902 118.005H247.82C240.851 118.005 234.562 115.2 230.058 110.609L229.973 110.524C225.468 105.933 222.664 99.7265 222.664 92.84V32.4769C222.664 25.5054 225.468 19.214 230.058 14.7081C234.647 10.1171 240.936 7.31148 247.82 7.31148H308.075C315.044 7.31148 321.333 10.1171 325.837 14.7081C330.426 19.2991 333.231 25.5904 333.231 32.4769V92.755C333.231 99.7265 330.426 106.018 325.837 110.524L325.752 110.609C321.163 115.115 314.959 117.92 308.075 117.92ZM427.991 117.92H410.824L399.095 130.588C398.501 131.268 397.396 131.353 396.716 130.673L384.818 117.835H367.736C360.767 117.835 354.478 115.03 349.973 110.439C345.384 105.848 342.58 99.5564 342.58 92.6699V32.4769C342.58 25.5054 345.384 19.214 349.973 14.7081C354.563 10.1171 360.852 7.31148 367.736 7.31148H427.991C434.96 7.31148 441.249 10.1171 445.753 14.7081C450.342 19.2991 453.147 25.5904 453.147 32.4769V92.755C453.147 99.7265 450.342 106.018 445.753 110.524L445.668 110.609C441.164 115.115 434.875 117.92 427.991 117.92ZM399.69 145.551C406.319 145.551 411.673 150.908 411.673 157.539C411.673 164.17 406.319 169.527 399.69 169.527C393.061 169.527 387.707 164.17 387.707 157.539C387.707 150.908 393.061 145.551 399.69 145.551ZM280.285 146.997C286.489 146.997 291.503 152.013 291.503 158.219C291.503 164.425 286.489 169.442 280.285 169.442C274.081 169.442 269.066 164.425 269.066 158.219C269.066 152.098 274.081 146.997 280.285 146.997ZM45.9771 58.8326C45.2973 63.5936 46.657 68.1846 49.3766 71.7554C51.2463 74.2209 53.8809 76.2614 56.8554 77.3666L56.9404 77.7067L57.0254 78.0468V78.1318C57.1954 78.4719 57.2803 78.897 57.4503 79.237L57.5353 79.5771L57.6203 79.8322L57.7053 80.1722L57.7903 80.2573L57.9602 80.7674L58.0452 81.0224V81.1074L58.3002 81.6175V81.7026L58.3852 81.9576L58.5551 82.3827L58.6401 82.5527L58.8951 83.0629V83.1479L59.15 83.743L59.235 83.828L59.32 83.9981L59.49 84.2531L59.575 84.4232L59.66 84.5082L59.9999 85.1033C60.2549 85.5284 60.5098 86.0385 60.7648 86.4636L61.1047 86.9737L61.1897 87.0587L61.3597 87.3138L61.5297 87.5688L61.6146 87.7389L61.6996 87.8239L61.8696 88.0789L62.0396 88.334L62.1246 88.419L62.4645 88.8441L62.5495 88.9291V89.0141L62.8045 89.4392L62.9744 89.6943L63.0594 89.7793L63.3994 90.2894V90.3744L63.4843 90.4595L63.9093 90.9696L63.9943 91.0546L64.1642 91.3096L64.2492 91.3947L64.4192 91.6497L64.7591 92.0748L64.8441 92.1598L65.0141 92.3299L65.2691 92.5849L65.439 92.755L65.524 92.84L65.779 93.095L66.0339 93.3501L66.2889 93.6051L66.5439 93.8602L66.6288 93.9452L66.7988 94.1152L67.2237 94.5403L67.3087 94.6254L67.5637 94.8804L67.8186 95.1355C66.2039 97.2609 64.5042 100.662 65.0991 105.848C61.7846 106.698 58.8101 108.058 56.3455 109.759C50.9914 106.698 43.9375 107.803 39.8581 113.159C41.6428 109.844 41.7278 105.253 40.708 100.747C39.7731 96.6658 37.1386 89.0992 31.6994 88.504C27.1952 87.9939 24.4756 92.4149 23.2008 100.492L22.5209 105.338L18.9515 109.589C18.9515 109.589 18.4416 108.738 16.7418 106.868C10.7078 99.8965 7.98825 101.767 5.09871 108.653C3.99389 111.289 2.54912 114.52 1.27433 117.495C-1.44524 123.872 -0.425401 128.633 4.92874 126.592C10.3679 124.552 12.4925 120.046 12.5775 115.03L14.4472 118.431C14.4472 118.431 12.1526 129.228 18.4416 128.208C17.3367 132.374 18.9515 135.774 22.266 137.475C21.756 139.09 21.756 140.705 21.926 142.151C22.3509 144.701 23.5408 146.912 24.8155 148.102C25.4954 148.697 26.1753 149.207 27.0252 149.632C29.4898 159.749 33.8241 169.016 38.9233 174.968C41.6428 178.113 44.5324 180.324 47.5919 181.259C50.7364 182.279 53.9659 181.854 57.1104 179.729C59.9999 177.773 62.7195 174.203 65.1841 168.676C65.1841 170.292 65.1841 171.822 65.0141 173.182C64.6742 176.583 63.9943 179.474 63.1444 181.429H58.9801C58.0452 181.429 57.2803 182.194 57.2803 183.129C57.2803 184.065 58.0452 184.83 58.9801 184.83H217.055C217.99 184.83 218.754 184.065 218.754 183.129C218.754 182.194 217.99 181.429 217.055 181.429H193.344C193.683 180.664 193.853 179.729 193.853 178.624V177.943C197.168 176.753 198.528 174.033 199.887 171.312L200.227 170.547C202.097 166.721 204.902 159.919 207.706 152.608C211.616 142.491 215.61 131.183 217.735 124.977C218.584 122.511 219.604 119.281 219.179 116.56C218.754 113.414 216.63 111.034 211.106 111.119C210.851 111.119 206.176 111.034 199.717 110.864C189.604 110.609 175.241 110.269 166.573 110.184V110.014C169.377 98.7062 169.377 85.6134 167.253 74.561L167.423 74.476C168.697 73.7959 169.632 72.8607 170.227 71.7554C170.907 70.6502 171.162 69.3749 170.992 67.9296C170.907 66.4843 170.312 64.8689 169.292 63.1686L169.207 62.9985C169.377 62.9135 169.462 62.8285 169.632 62.8285C171.332 61.8933 172.692 60.1079 173.542 57.7274C174.307 55.5169 174.562 52.8813 174.052 50.2458C173.967 49.5656 173.797 48.8855 173.542 48.2053C175.156 48.2053 176.516 47.9503 177.706 47.5252C179.831 46.76 181.02 45.3147 181.445 43.4443C181.7 42.4241 181.7 41.3188 181.19 40.2986L181.105 40.2136C180.681 39.3634 179.916 38.5982 178.811 38.0881L178.726 38.0031C178.216 37.8331 177.876 37.493 177.621 37.2379C177.366 36.8979 177.196 36.5578 177.111 36.0477C177.026 35.1125 176.941 34.0923 176.856 32.987C176.686 30.3515 176.601 27.6309 175.581 25.6754C174.392 23.465 172.352 22.3597 168.782 23.55C168.782 22.6998 168.697 21.8496 168.442 21.1695C168.188 20.4043 167.678 19.7242 167.168 19.129C166.658 18.6189 165.978 18.1938 165.213 17.8538C163.513 17.1736 161.389 17.1736 159.264 17.9388C155.865 19.214 153.655 22.4447 152.21 25.5904C151.53 23.1249 150.425 20.7444 149.066 18.6189C146.431 14.538 142.692 11.3073 138.272 10.2021C135.808 9.60697 132.408 9.86203 130.029 10.8822C128.924 11.3924 127.904 11.9875 127.309 12.8377C126.544 13.7729 126.119 14.8781 126.374 16.2384C126.544 17.5137 127.394 18.874 128.924 20.3193C131.983 23.1249 135.213 26.5256 137.507 30.2664C139.462 33.4971 140.652 36.9829 140.397 40.6387C137.507 40.3836 134.448 40.8937 131.898 42.254C129.179 43.6993 127.054 45.9948 126.119 49.3956C125.779 50.5858 125.694 52.0311 125.864 53.2214C126.034 54.1566 126.374 54.9218 126.884 55.6019C127.479 56.3671 128.414 56.7922 129.519 56.7922C130.284 56.7922 131.133 56.6221 132.068 56.112C133.598 55.4319 134.958 54.9218 136.233 54.7517C137.507 54.5817 138.697 54.6667 139.547 55.0068C140.397 55.4319 141.162 56.112 141.672 57.2173C142.012 57.8974 142.267 58.7476 142.437 59.7678V59.8528C143.032 63.4236 145.581 65.209 147.791 66.1442C147.706 67.9296 147.621 69.97 147.876 71.5854C148.216 73.9659 149.915 75.3262 152.295 76.0914C152.295 84.4232 151.445 92.4999 149.151 98.9613C147.706 102.872 145.836 106.188 143.202 108.483C140.652 110.779 137.422 112.139 133.428 112.309C130.539 112.394 127.224 111.884 123.4 110.609V109.759C123.4 105.423 122.55 100.747 120.255 96.7508C119.065 94.6254 117.366 92.6699 115.241 91.0546L115.326 90.9696L115.411 90.8846L115.496 90.7995L115.581 90.7145L115.751 90.4595L115.836 90.3744L116.261 89.6943L116.346 89.6093L116.431 89.5243L116.516 89.4392L116.601 89.3542L116.686 89.2692L116.771 89.1842L116.856 89.0992L116.941 88.9291L117.026 88.8441L117.111 88.7591V88.6741L117.196 88.5891L117.281 88.504L117.366 88.419L117.451 88.334L117.536 88.249L117.621 88.164V88.0789V87.9939V87.9089V87.8239V87.7389V87.6538V87.5688V87.4838V87.3988V87.3138V87.2288V87.1437V87.0587V86.9737C117.621 86.9737 126.119 71.5854 122.635 54.8368C123.825 52.7963 124.675 50.5858 125.014 48.1203V48.0353C125.609 43.2743 124.25 38.7683 121.615 35.1975L121.53 35.1125C118.81 31.6267 114.816 29.1612 110.057 28.4811H109.972C108.017 28.226 106.063 28.311 104.193 28.6511C100.963 26.1005 96.3741 25.0803 93.4845 26.1856C92.5497 26.6106 91.8698 27.2908 91.4449 28.141H91.3599H91.1899H90.51H90.255H89.5752H89.3202H88.6403C87.7055 27.4608 85.4108 24.9103 84.306 20.8294C83.4561 17.7687 83.7961 14.453 86.6006 13.6028C88.1304 14.9631 89.6601 16.4084 91.5298 18.1938C95.0143 21.5946 99.9435 21.4245 104.448 20.4043C113.116 18.3639 107.932 11.9025 103.683 8.16166C95.1843 0.680042 86.5156 2.29539 84.051 2.8055C82.9462 3.06056 81.4165 3.65569 80.3116 4.67591C79.6318 5.101 78.9519 5.69613 78.4419 6.46129C74.4476 12.2425 78.017 23.72 82.0964 29.0762H82.0114H81.9264H81.8414H81.7564H81.6714H81.5864H81.5014H81.4165L81.0765 29.1612H80.9915H80.9065H80.8216H80.7366L80.3966 29.2462H80.3116H80.2267L79.9717 29.3312H79.8867H79.8017L79.1218 29.5013H79.0368H78.9519H78.8669H78.7819L77.7621 29.8413H77.6771H77.5921C77.2521 29.9264 76.8272 30.0964 76.4873 30.2664C76.0623 30.4365 75.6374 30.6065 75.2974 30.6915L75.1275 30.7766C74.7025 30.9466 74.3626 31.1166 73.9377 31.2867C73.5127 31.4567 73.1728 31.6267 72.8328 31.7968H72.7479H72.6629C71.898 32.1368 71.1331 32.4769 70.4532 32.902C70.1133 33.072 69.7733 33.2421 69.4334 33.4971C69.0934 33.6672 68.7535 33.9222 68.4136 34.0923C67.4787 32.3069 61.3597 20.5743 55.3257 15.9833L55.2407 15.8983C53.9659 14.0279 52.0962 13.9429 49.4616 15.1332C48.2718 15.6433 46.912 16.5785 45.5522 18.3639C42.2378 23.3799 42.4927 30.6065 44.7024 36.8979C46.912 43.1892 50.9913 40.0436 51.8412 39.1934C53.286 37.7481 54.1358 36.1327 57.3653 33.4121C58.1302 32.817 58.6401 32.2219 59.0651 31.6267C60.5098 32.902 61.9546 34.4323 62.9744 36.2177C63.3994 36.9829 63.8243 37.493 64.2492 37.8331L64.1642 37.9181L63.9943 38.0881C63.2294 38.1731 62.4645 38.3432 61.6996 38.6833C58.8101 39.8735 57.1104 42.4241 56.1755 45.3147C54.9007 45.9098 53.7959 46.59 52.6911 47.3551C49.1216 49.9907 46.657 54.0716 45.9771 58.8326ZM222.579 181.514C223.514 181.514 224.279 182.279 224.279 183.215C224.279 184.15 223.514 184.915 222.579 184.915H222.154C221.219 184.915 220.454 184.15 220.454 183.215C220.454 182.279 221.219 181.514 222.154 181.514H222.579ZM48.6117 123.362C47.9318 129.058 48.8667 135.264 49.8015 141.215C50.3964 144.956 50.9064 148.612 50.9913 151.758C51.0763 155.243 50.7364 157.794 50.1415 158.984C49.9715 159.239 49.8865 159.409 49.8015 159.409C49.7165 159.409 49.5466 159.324 49.2916 159.154C48.1868 158.304 46.742 156.264 45.0423 152.693C44.2774 151.078 43.7675 149.462 43.4276 147.932C43.8525 147.677 44.1924 147.337 44.5324 146.912C45.3822 146.061 46.1471 145.041 46.4871 143.936V143.851C46.912 142.576 46.912 141.215 46.1471 139.855C45.8922 139.43 45.5522 139.005 45.2123 138.58C44.4474 137.73 43.9375 137.135 43.6825 136.624C44.7024 135.264 45.3822 133.649 45.5522 132.203C46.3171 128.718 46.827 125.402 48.6117 123.362Z" fill="#EBEBEB"/>
<path d="M227.168 159.836H268.981" stroke="#96A8FF" stroke-width="3.5344" stroke-miterlimit="10" stroke-linecap="round" stroke-linejoin="round"/>
<path d="M291.758 176.075C282.834 176.075 275.525 168.763 275.525 159.836C275.525 150.909 282.834 143.598 291.758 143.598C300.681 143.598 307.99 150.909 307.99 159.836" stroke="#6A70EE" stroke-width="4.0588" stroke-miterlimit="22.9256" stroke-linecap="round" stroke-linejoin="round"/>
<path fill-rule="evenodd" clip-rule="evenodd" d="M291.758 168.68C296.602 168.68 300.596 164.684 300.596 159.838C300.596 154.992 296.602 150.996 291.758 150.996C286.914 150.996 282.919 154.992 282.919 159.838C282.834 164.684 286.829 168.68 291.758 168.68Z" fill="#96A8FF"/>
<path d="M316.148 159.836H386.432" stroke="#96A8FF" stroke-width="5.9366" stroke-miterlimit="10" stroke-linecap="round" stroke-linejoin="round"/>
<path d="M411.674 176.075C402.75 176.075 395.441 168.763 395.441 159.836C395.441 150.909 402.75 143.598 411.674 143.598C420.597 143.598 427.906 150.909 427.906 159.836" stroke="#6A70EE" stroke-width="4.0588" stroke-miterlimit="22.9256" stroke-linecap="round" stroke-linejoin="round"/>
<path fill-rule="evenodd" clip-rule="evenodd" d="M411.674 168.68C416.519 168.68 420.513 164.684 420.513 159.838C420.513 154.992 416.519 150.996 411.674 150.996C406.83 150.996 402.836 154.992 402.836 159.838C402.836 164.684 406.83 168.68 411.674 168.68Z" fill="#96A8FF"/>
<path fill-rule="evenodd" clip-rule="evenodd" d="M321.842 115.372H303.995L294.562 125.574C293.032 127.19 290.397 127.19 288.868 125.574L279.434 115.372H261.587C248.584 115.372 238.131 104.83 238.131 91.9072V31.6291C238.131 18.6213 248.669 8.16406 261.587 8.16406H321.842C334.845 8.16406 345.299 18.7063 345.299 31.6291V91.9072C345.299 104.83 334.845 115.372 321.842 115.372Z" fill="white" stroke="#6A70EE" stroke-width="4.0036" stroke-miterlimit="10" stroke-linecap="round" stroke-linejoin="round"/>
<path fill-rule="evenodd" clip-rule="evenodd" d="M302.125 56.8791C306.799 53.9035 311.048 55.3488 312.748 58.2394C314.533 61.3001 313.513 66.0611 308.584 69.2918L306.459 86.8056C305.864 103.554 279.178 101.259 277.649 88.2509C277.564 87.4007 278.159 86.6355 279.008 86.5505C279.858 86.4655 280.623 87.0606 280.708 87.9108C281.813 97.2628 303.57 99.3883 304.079 86.5505L305.609 69.1218C305.609 68.6116 305.949 68.1865 306.374 67.9315C312.323 64.4457 310.878 55.4338 303.57 59.9398C299.065 62.5753 298.895 58.9195 302.125 56.8791Z" fill="#6A70EE"/>
<path fill-rule="evenodd" clip-rule="evenodd" d="M299.916 79.5798C294.732 85.5311 287.083 89.782 279.179 89.5269C260.567 89.0168 265.326 56.5398 270.341 45.6574C272.55 40.8114 274.93 41.2365 272.125 47.0177C267.961 55.6896 264.392 86.0412 279.179 86.4663C286.403 86.6363 294.222 82.7255 298.726 77.1993C302.04 73.2034 303.315 75.5839 299.916 79.5798Z" fill="#6A70EE"/>
<path fill-rule="evenodd" clip-rule="evenodd" d="M300.511 100.835C306.035 105.426 311.729 102.876 311.049 95.7341C310.625 91.3981 307.82 88.0824 304.505 85.4468C303.826 84.9367 304.76 83.4064 305.27 82.7263C305.78 82.0461 305.695 82.5562 306.375 83.0663C310.455 86.297 313.514 90.2079 314.024 95.479C315.129 106.106 305.185 110.187 298.301 102.195C295.752 99.0498 297.282 98.1146 300.511 100.835Z" fill="#6A70EE"/>
<path fill-rule="evenodd" clip-rule="evenodd" d="M283.088 100.919C278.584 107.295 272.89 104.149 272.295 97.773C271.955 94.1173 273.229 90.2064 275.524 87.3158C276.034 86.6356 276.799 86.8057 277.394 87.3158C278.074 87.8259 277.989 88.336 277.394 89.0162C275.524 91.3117 274.504 94.3723 275.184 97.348C275.949 101.174 278.159 102.279 281.218 99.1333C283.598 96.7528 285.128 97.9431 283.088 100.919Z" fill="#6A70EE"/>
<path fill-rule="evenodd" clip-rule="evenodd" d="M262.096 95.4791C264.901 93.7787 270 91.2281 274.504 90.463C275.354 90.2929 275.014 91.7383 275.099 92.5884C275.269 93.4386 274.674 94.2038 273.824 94.3738C269.66 95.054 264.986 97.0094 262.521 98.1146C258.017 100.24 258.017 97.8596 262.096 95.4791Z" fill="#6A70EE"/>
<path fill-rule="evenodd" clip-rule="evenodd" d="M313.427 92.502C312.577 92.332 312.067 91.4818 312.237 90.7166C312.407 89.8664 310.452 88.166 311.217 88.3361C311.217 88.3361 322.69 91.2267 328.639 93.6072C332.124 94.9675 330.849 96.6679 327.45 95.5627C321.501 93.6072 313.427 92.502 313.427 92.502Z" fill="#6A70EE"/>
<path fill-rule="evenodd" clip-rule="evenodd" d="M311.644 63.7661C311.644 63.7661 326.092 43.6167 310.879 38.8557C310.369 19.2164 282.154 13.6902 282.664 26.188C277.819 24.4026 268.641 25.9329 271.955 33.4995C271.955 33.4995 268.301 34.9448 266.771 36.8152C262.352 42.0864 269.236 49.2279 275.015 43.9568C275.015 43.9568 287.933 52.1186 302.125 43.7868C298.386 56.7096 303.4 58.1549 303.4 58.1549C305.015 56.5395 313.344 54.9242 311.644 63.7661Z" fill="#96A8FF" stroke="#6A70EE" stroke-width="3.6247" stroke-miterlimit="10" stroke-linecap="round" stroke-linejoin="round"/>
<path fill-rule="evenodd" clip-rule="evenodd" d="M294.987 67.3362C291.162 72.6924 285.808 75.8381 277.565 73.0325C274.165 71.8422 274.08 69.8868 277.395 70.737C283.004 72.2673 289.208 70.3119 292.437 65.7209C294.477 62.8303 296.686 64.8707 294.987 67.3362Z" fill="#6A70EE"/>
<path fill-rule="evenodd" clip-rule="evenodd" d="M292.947 65.7227C293.031 64.8725 293.796 64.2773 294.646 64.2773C295.496 64.3624 296.006 65.0425 295.921 65.8927C295.921 65.8927 295.156 81.4511 286.318 74.8196C284.788 73.7144 286.148 72.099 287.932 73.0342C293.286 75.8398 292.947 65.8077 292.947 65.7227Z" fill="#6A70EE"/>
<path fill-rule="evenodd" clip-rule="evenodd" d="M292.946 47.7811C289.801 44.0403 286.572 43.8702 286.062 46.2507C285.722 47.8661 286.232 49.6515 288.951 50.8417C291.756 51.947 296.09 51.5219 292.946 47.7811Z" fill="#96A8FF" stroke="#6A70EE" stroke-width="2.4174" stroke-miterlimit="10" stroke-linecap="round" stroke-linejoin="round"/>
<path fill-rule="evenodd" clip-rule="evenodd" d="M271.615 43.1056C273.739 40.8951 276.799 40.8101 277.394 42.4254C278.584 45.5711 276.204 47.4415 273.23 47.6115C270 47.7816 267.875 46.9314 271.615 43.1056Z" fill="#96A8FF" stroke="#6A70EE" stroke-width="3.0083" stroke-miterlimit="10" stroke-linecap="round" stroke-linejoin="round"/>
<path fill-rule="evenodd" clip-rule="evenodd" d="M280.198 57.2217C279.688 58.752 278.923 61.4726 278.753 63.258C278.498 65.1284 279.093 65.2134 280.793 64.8733C282.322 64.5332 282.577 66.9988 280.708 67.4239C272.294 69.1242 276.373 60.5374 277.988 56.6265C279.518 53.1408 281.387 53.6509 280.198 57.2217Z" fill="#6A70EE"/>
<path fill-rule="evenodd" clip-rule="evenodd" d="M273.739 57.3886C272.804 57.3886 272.039 56.6235 272.039 55.6883C272.039 53.5628 275.438 53.3078 275.778 55.4332C275.948 56.3684 275.269 57.2186 274.334 57.3886C273.484 57.4737 273.739 57.3886 273.739 57.3886Z" fill="#6A70EE"/>
<path fill-rule="evenodd" clip-rule="evenodd" d="M286.402 29.3333C284.957 28.6532 283.087 27.6329 281.133 27.2929C280.283 27.1228 279.773 26.3577 279.943 25.5075C280.113 24.6573 280.623 24.0622 281.472 24.2322C283.002 24.4873 285.042 25.5925 287.337 27.4629C289.291 29.0783 289.036 30.5236 286.402 29.3333Z" fill="#6A70EE"/>
<path fill-rule="evenodd" clip-rule="evenodd" d="M277.308 34.2633C275.439 34.0082 273.144 34.4333 271.274 35.4535C270.509 35.7936 269.915 35.1985 269.66 34.4333C269.32 33.6681 269.66 32.7329 270.509 32.3929C272.719 31.3727 275.354 31.2026 277.563 32.1378C280.198 33.158 279.943 34.6034 277.308 34.2633Z" fill="#6A70EE"/>
<path fill-rule="evenodd" clip-rule="evenodd" d="M285.637 58.666C284.702 58.666 283.938 57.9008 283.938 56.9656C283.938 54.8402 287.337 54.5851 287.677 56.7106C287.847 57.6458 287.167 58.496 286.232 58.666C285.467 58.751 285.637 58.666 285.637 58.666Z" fill="#6A70EE"/>
<path fill-rule="evenodd" clip-rule="evenodd" d="M441.844 115.372H423.912L411.674 128.635L399.436 115.372H381.589C368.671 115.372 358.133 104.83 358.133 91.9072V31.6291C358.133 18.6213 368.671 8.16406 381.589 8.16406H441.844C454.762 8.16406 465.301 18.7063 465.301 31.6291V91.9072C465.301 104.83 454.762 115.372 441.844 115.372Z" fill="white" stroke="#6A70EE" stroke-width="4.0036" stroke-miterlimit="10" stroke-linecap="round" stroke-linejoin="round"/>
<path fill-rule="evenodd" clip-rule="evenodd" d="M422.977 56.1157C430.286 46.5937 436.575 62.4071 427.482 68.5284C427.057 71.334 426.972 74.7348 427.312 77.7954C427.907 82.5565 427.992 86.6373 425.272 90.4632C419.068 98.965 406.745 96.4995 403.515 87.3175C402.496 84.3418 404.875 85.6171 405.3 86.8074C407.935 94.119 418.303 95.5643 422.552 88.8478C424.592 85.7021 424.337 81.8763 423.912 78.1355C423.487 74.6498 423.572 70.9089 424.167 67.7633C424.252 67.2531 424.507 66.8281 425.017 66.573C428.077 64.7876 429.691 62.3221 429.691 59.9416C429.691 56.0307 426.377 55.5206 424.422 58.1562C422.127 61.4719 420.853 58.9214 422.977 56.1157Z" fill="#6A70EE"/>
<path fill-rule="evenodd" clip-rule="evenodd" d="M420.513 80.5154C411.929 93.3532 398.671 89.3573 391.277 78.645C386.263 71.5034 384.224 61.7263 386.858 50.3339C387.028 49.3987 386.943 48.3784 387.878 48.6335C388.813 48.8035 390.258 48.6335 390.088 49.5687C386.688 60.281 388.898 70.8233 393.657 77.2847C400.456 86.5517 412.099 89.4423 419.153 78.56C420.768 76.0094 422.467 77.6248 420.513 80.5154Z" fill="#6A70EE"/>
<path fill-rule="evenodd" clip-rule="evenodd" d="M417.962 97.8594C424.676 103.811 431.22 95.0538 430.201 88.2523C429.861 86.0418 427.651 83.4062 425.526 82.556C425.526 82.7261 424.251 81.2808 424.591 80.3456C424.931 79.4954 425.951 79.0703 426.801 79.4104C430.031 80.6856 433.005 84.2564 433.6 87.6571C435.045 96.9242 426.546 108.232 417.028 99.7298C414.733 97.7743 415.583 95.7339 417.962 97.8594Z" fill="#6A70EE"/>
<path fill-rule="evenodd" clip-rule="evenodd" d="M409.634 98.6242C404.45 103.895 396.206 100.835 396.121 92.843C396.121 91.3127 396.546 89.6973 397.821 88.252C398.756 87.0618 400.2 85.9565 402.325 84.9363C403.175 84.5112 404.195 84.9363 404.62 85.7865C405.045 86.6367 404.62 87.6569 403.77 88.082C402.155 88.8471 401.135 89.6123 400.455 90.4625C399.776 91.3127 399.521 92.1629 399.521 92.928C399.606 97.8591 404.96 99.9845 408.104 96.8389C410.569 94.2883 411.844 96.3288 409.634 98.6242Z" fill="#6A70EE"/>
<path fill-rule="evenodd" clip-rule="evenodd" d="M379.804 95.1373C384.053 91.3965 391.107 89.101 397.311 88.0808C398.246 87.9108 399.096 88.5909 399.266 89.5261C399.436 90.4613 398.161 92.1617 397.311 92.3317C390.767 93.352 385.923 94.5422 380.399 98.283C376.999 100.494 376.659 97.8579 379.804 95.1373Z" fill="#6A70EE"/>
<path fill-rule="evenodd" clip-rule="evenodd" d="M431.816 90.1228C430.881 90.0377 430.541 89.1876 430.626 88.2524C430.711 87.3171 431.136 86.637 432.071 86.722C436.49 87.0621 444.564 89.2726 449.493 91.8231C452.467 93.4385 451.618 95.1388 448.218 93.9486C443.544 92.5033 435.895 90.4628 431.816 90.1228Z" fill="#6A70EE"/>
<path fill-rule="evenodd" clip-rule="evenodd" d="M426.036 67.6772C425.017 70.9929 425.442 76.094 426.206 81.0251C429.776 82.4704 431.646 84.8509 431.985 88.4217C436.575 89.0168 439.719 89.952 444.648 91.2273C450.937 80.8551 446.178 56.5398 431.306 49.9084C439.124 26.9534 413.288 16.8362 402.92 26.9534C387.453 21.4272 374.195 39.7062 386.858 54.7544C387.453 51.0136 388.217 46.5076 393.997 44.4672C399.436 42.5968 400.031 39.8762 403.005 33.7549C401.9 49.9934 423.827 45.2324 425.781 55.1795C429.946 52.969 435.81 61.896 426.036 67.6772Z" fill="#96A8FF" stroke="#6A70EE" stroke-width="3.6247" stroke-miterlimit="10" stroke-linecap="round" stroke-linejoin="round"/>
<path fill-rule="evenodd" clip-rule="evenodd" d="M415.328 68.4431C413.118 73.2041 407.764 74.0543 403.005 73.6292C399.69 73.2891 399.52 71.5037 403.515 71.5037C406.829 71.5037 410.229 69.5483 411.928 66.5727C413.883 63.0019 416.688 65.4674 415.328 68.4431Z" fill="#6A70EE"/>
<path d="M413.968 67.082C413.968 67.082 414.308 76.6041 407.764 72.6932" stroke="#6A70EE" stroke-width="4.0036" stroke-miterlimit="10" stroke-linecap="round" stroke-linejoin="round"/>
<path fill-rule="evenodd" clip-rule="evenodd" d="M397.99 65.8931C397.65 64.5328 399.01 63.2576 400.37 64.8729C401.39 66.1482 402.835 65.6381 404.024 65.298C406.319 64.7029 406.319 66.2332 404.194 67.4235C401.9 68.7838 398.755 68.6987 397.99 65.8931Z" fill="#6A70EE"/>
<path fill-rule="evenodd" clip-rule="evenodd" d="M397.991 90.3771C392.381 90.8872 390.087 91.4823 383.288 94.3729C379.294 85.276 380.568 72.3532 387.197 64.1914C388.812 73.7985 393.401 83.1505 402.835 86.2112C401.475 87.2314 398.755 89.0168 397.991 90.3771Z" fill="#96A8FF" stroke="#6A70EE" stroke-width="4.0588" stroke-miterlimit="22.9256"/>
<path fill-rule="evenodd" clip-rule="evenodd" d="M395.102 57.1348C394.167 57.1348 393.402 56.3696 393.402 55.4344C393.402 53.309 396.802 52.9689 397.142 55.0944C397.312 56.0296 396.632 56.8798 395.782 57.0498C394.932 57.2198 395.102 57.1348 395.102 57.1348Z" fill="#6A70EE"/>
<path fill-rule="evenodd" clip-rule="evenodd" d="M407.084 58.3262C406.15 58.3262 405.385 57.5611 405.385 56.6259C405.385 54.5004 408.784 54.1603 409.124 56.2858C409.294 57.221 408.614 58.0712 407.764 58.2412C406.83 58.4112 407.084 58.3262 407.084 58.3262Z" fill="#6A70EE"/>
<path fill-rule="evenodd" clip-rule="evenodd" d="M413.713 45.742C410.569 42.0012 407.339 41.8312 406.829 44.2117C406.489 45.827 406.999 47.6124 409.719 48.8027C412.524 49.9929 416.858 49.4828 413.713 45.742Z" fill="#E0E1FF" stroke="#6A70EE" stroke-width="2.4163" stroke-miterlimit="10" stroke-linecap="round" stroke-linejoin="round"/>
<path fill-rule="evenodd" clip-rule="evenodd" d="M390.766 45.2306C392.891 43.0201 395.95 42.9351 396.545 44.5504C397.735 47.6961 395.356 49.5665 392.381 49.7365C389.236 49.9066 387.027 49.0564 390.766 45.2306Z" fill="#E0E1FF" stroke="#6A70EE" stroke-width="3.01" stroke-miterlimit="10" stroke-linecap="round" stroke-linejoin="round"/>
<path fill-rule="evenodd" clip-rule="evenodd" d="M422.977 43.5326C419.153 40.1318 410.739 38.2614 409.379 33.6704C409.039 32.3952 406.745 32.3952 406.745 34.7757C406.66 40.3019 417.963 42.7674 421.957 45.318C425.442 47.4434 426.122 46.2532 422.977 43.5326Z" fill="#6A70EE"/>
<path fill-rule="evenodd" clip-rule="evenodd" d="M165.044 64.5322C165.044 64.5322 158.755 64.0221 157.905 58.751C156.8 51.8645 151.786 50.8443 145.327 53.905C141.332 55.7754 140.738 51.7795 141.502 48.8889C143.287 42.4275 150.171 40.472 155.695 41.4072C157.395 32.2253 150.256 23.9785 143.967 18.1972C137.678 12.416 146.857 9.61037 151.956 10.8006C160.369 12.8411 166.148 23.7234 165.469 31.9702C165.469 31.9702 167.423 20.9178 173.797 18.5373C178.556 16.7519 182.976 19.8126 180.681 25.2538C190.54 19.9826 188.925 29.6747 189.69 35.2859C189.86 36.9013 190.794 37.9215 192.239 38.5166C194.109 39.3668 194.449 40.8121 194.109 42.2574C193.514 44.723 190.794 46.3383 185.355 45.6582C188.755 52.1196 186.12 60.1963 181.956 60.9615C177.792 61.7266 173.117 59.4311 165.044 64.5322Z" fill="white" stroke="#C2A7B1" stroke-width="3.622" stroke-miterlimit="10" stroke-linecap="round" stroke-linejoin="round"/>
<path fill-rule="evenodd" clip-rule="evenodd" d="M143.627 11.9051C145.752 10.6299 149.406 10.2048 151.956 10.7999C160.369 12.8403 166.148 23.7227 165.468 31.9695C165.468 31.9695 166.573 25.5931 169.888 21.5122L170.143 21.7673C169.038 24.2328 168.188 27.2935 169.803 30.0991L169.293 35.8803C169.378 40.7264 170.908 43.447 173.882 44.8923C178.981 47.3578 179.746 43.2769 178.131 39.2811C175.412 32.3096 176.347 29.929 177.536 22.7025C178.216 18.8767 175.327 19.6418 174.052 20.1519L175.157 19.3868C179.321 18.6216 182.126 20.407 180.171 25.4231C190.029 20.1519 189.095 29.759 189.86 35.3702C190.029 36.9856 190.964 38.0058 192.409 38.6009C194.279 39.4511 194.619 40.8964 194.279 42.3417C193.684 44.8073 190.964 46.4226 185.525 45.7425C188.925 52.2039 186.29 60.2806 182.126 61.0458C181.701 61.1308 181.361 61.1308 180.936 61.2158C176.177 59.7705 171.417 60.1956 164.704 59.4304C169.888 54.9244 172.267 43.617 161.899 33.4998C161.899 28.7388 161.049 24.7429 159.434 21.5972C156.8 16.5812 150.171 11.9902 144.392 13.3505L143.627 11.9051Z" fill="#DED1D6"/>
<path fill-rule="evenodd" clip-rule="evenodd" d="M171.503 28.3155C169.888 33.0765 169.803 42.8536 175.667 44.9791L175.837 45.0641C180.257 46.5094 184.081 45.4042 181.361 40.4731C179.492 37.0724 176.772 31.4611 179.577 23.7245C179.917 22.8743 180.767 22.4492 181.616 22.7893C182.466 23.0443 182.891 23.9795 182.551 24.8297C180.172 31.2911 182.551 36.1372 184.251 39.1128C188.585 46.9345 181.531 50.2502 174.902 48.0397L174.648 47.9547C166.234 44.894 166.999 34.5218 169.293 27.5503C170.313 24.4896 172.608 24.9147 171.503 28.3155Z" fill="#C2A7B1"/>
<path fill-rule="evenodd" clip-rule="evenodd" d="M160.794 46.7628C160.284 45.9126 158.499 43.3621 154.675 42.852C153.825 42.6819 153.23 41.9168 153.4 41.0666C153.57 40.2164 153.655 39.7063 154.505 39.8763C159.689 40.3864 161.559 43.7872 162.494 46.1677C163.344 48.4632 162.069 48.9733 160.794 46.7628Z" fill="#C2A7B1"/>
<path fill-rule="evenodd" clip-rule="evenodd" d="M174.308 47.7844C173.798 47.1043 173.713 45.744 174.393 45.2339C175.073 44.7238 175.923 45.0639 176.433 45.744C177.962 47.7844 177.962 50.8451 177.452 52.7155C176.773 55.181 175.073 55.2661 175.583 52.6305C175.838 50.8451 175.328 49.2298 174.308 47.7844Z" fill="#C2A7B1"/>
<path fill-rule="evenodd" clip-rule="evenodd" d="M160.879 33.1611C163.089 32.0559 166.318 31.8008 168.613 33.2461C169.378 33.7562 169.802 34.5214 169.293 35.2866C168.783 36.0517 168.528 36.5618 167.848 36.1367C165.978 34.9465 163.513 34.6064 161.729 34.9465C158.924 35.3716 158.754 34.1813 160.879 33.1611Z" fill="#C2A7B1"/>
<path fill-rule="evenodd" clip-rule="evenodd" d="M165.044 64.5322C165.044 64.5322 158.755 64.0221 157.905 58.751C156.8 51.8645 151.786 50.8443 145.327 53.905C141.332 55.7754 140.738 51.7795 141.502 48.8889C143.287 42.4275 150.171 40.472 155.695 41.4072C157.395 32.2253 150.256 23.9785 143.967 18.1972C137.678 12.416 146.857 9.61037 151.956 10.8006C160.369 12.8411 166.148 23.7234 165.469 31.9702C165.469 31.9702 167.423 20.9178 173.797 18.5373C178.556 16.7519 182.976 19.8126 180.681 25.2538C190.54 19.9826 188.925 29.6747 189.69 35.2859C189.86 36.9013 190.794 37.9215 192.239 38.5166C194.109 39.3668 194.449 40.8121 194.109 42.2574C193.514 44.723 190.794 46.3383 185.355 45.6582C188.755 52.1196 186.12 60.1963 181.956 60.9615C177.792 61.7266 173.117 59.4311 165.044 64.5322Z" stroke="#C2A7B1" stroke-width="3.622" stroke-miterlimit="10" stroke-linecap="round" stroke-linejoin="round"/>
<path fill-rule="evenodd" clip-rule="evenodd" d="M180.935 61.2182C181.53 61.9834 181.53 61.9834 182.21 63.1736C185.95 69.7201 182.38 73.4609 174.476 74.141C169.292 74.5661 163.938 74.226 163.343 70.5702C162.833 67.0845 163.598 61.7283 163.598 61.7283C167.508 58.0725 178.896 58.4976 180.935 61.2182Z" fill="white" stroke="#C2A7B1" stroke-width="3.6231" stroke-miterlimit="10" stroke-linecap="round" stroke-linejoin="round"/>
<path fill-rule="evenodd" clip-rule="evenodd" d="M181.955 66.1482C182.55 68.4437 181.955 69.804 180.85 70.4841C179.405 71.4194 177.196 72.0995 173.541 72.3546C170.652 72.6096 168.272 73.0347 166.487 72.0145C165.468 71.4193 165.043 71.0793 164.873 70.3141C164.363 67.5935 168.782 65.213 171.162 64.5329C173.881 63.6827 175.921 63.0875 175.241 60.707C178.3 61.2171 179.405 61.1321 180.765 63.5126C181.275 64.4478 181.785 65.5531 181.955 66.1482Z" fill="#DED1D6"/>
<path fill-rule="evenodd" clip-rule="evenodd" d="M124.59 89.3569C133.174 93.0127 135.809 101.515 135.809 108.911C135.809 111.292 135.724 110.867 135.724 110.867C162.919 120.644 168.698 95.2232 167.679 70.3978C167.679 70.3978 170.058 66.9971 176.347 67.9323C179.747 68.4424 179.067 70.5678 179.662 73.3734C183.826 93.7779 180.426 121.664 165.129 131.101C150.511 140.198 151.871 144.449 156.46 164.683C157.395 169.019 158.585 174.035 160.03 182.367L78.1879 182.027C80.2276 178.116 81.5874 170.039 80.0576 161.197C67.5646 199.541 44.7033 170.124 40.8789 139.518L54.9017 139.178C55.2416 143.769 55.1566 147.765 57.4512 152.526C62.8054 163.918 66.5448 161.793 66.2898 150.825C66.0349 140.623 61.2756 126.595 65.44 116.733C67.4796 111.887 73.2587 107.806 80.7375 106.191C79.0378 96.4134 85.4967 93.0127 85.4967 93.0127L124.59 89.3569Z" fill="#C2CEFF" stroke="#99A9EB" stroke-width="3.6247" stroke-miterlimit="10" stroke-linecap="round" stroke-linejoin="round"/>
<path fill-rule="evenodd" clip-rule="evenodd" d="M149.831 114.269C138.528 116.309 128.499 121.58 140.737 134.928C150.426 145.98 152.805 156.778 152.126 165.535C149.491 168 147.111 170.806 144.392 173.271C132.154 173.441 119.831 173.611 107.593 173.782C102.749 171.401 103.004 166.98 104.788 157.883C105.468 154.482 106.658 149.211 107.763 144.62C109.377 137.819 108.783 124.301 101.984 126.851C99.604 127.702 96.6295 127.361 96.8845 124.726C100.369 123.621 103.088 122.005 103.173 116.479C103.258 111.378 104.533 106.107 108.868 106.447C113.457 106.702 115.157 107.467 119.661 104.832C120.596 104.321 121.7 102.961 122.465 102.876C126.205 102.196 128.924 106.022 127.82 109.338C126.715 112.568 128.669 115.374 130.794 115.799C133.514 116.309 135.213 114.354 135.978 112.143C139.803 113.759 144.222 114.949 149.831 114.269Z" fill="#A7B6F2"/>
<path fill-rule="evenodd" clip-rule="evenodd" d="M81.5874 160.943C83.4571 148.786 82.1823 139.264 79.9727 130.422C80.5676 131.017 81.0775 131.697 81.5874 132.377C91.6158 143.43 82.4373 174.716 95.0153 180.668C93.4005 180.498 82.1823 180.838 80.5676 180.668C82.6922 173.696 82.7772 166.98 81.5874 160.943Z" fill="#A7B6F2"/>
<path fill-rule="evenodd" clip-rule="evenodd" d="M107.934 107.892C105.214 108.828 104.619 112.568 104.789 115.374C104.959 117.755 104.619 120.305 103.599 122.346C101.22 127.022 95.7805 128.467 92.381 122.346C90.4263 118.775 88.8116 113.504 84.7322 110.613C81.9277 108.658 83.7974 107.212 85.922 108.573C90.7663 111.718 92.9759 117.585 95.0156 120.56C96.8003 123.366 99.9448 123.281 101.05 120.05C101.56 118.52 101.645 116.564 101.645 115.204C101.73 110.783 102.324 107.042 107.424 105.597C109.718 104.917 110.738 107.042 107.934 107.892Z" fill="#99A9EB"/>
<path fill-rule="evenodd" clip-rule="evenodd" d="M81.758 133.311C84.0526 146.064 84.1376 155.416 81.1631 164.428C80.9081 165.193 79.3784 165.873 78.6135 165.618C77.8486 165.363 77.3387 164.513 77.5937 163.662C80.3132 155.331 81.928 143.683 79.6333 132.631C78.5285 126.849 80.9931 128.72 81.758 133.311Z" fill="#99A9EB"/>
<path fill-rule="evenodd" clip-rule="evenodd" d="M113.033 122.004C115.497 137.902 111.503 147.339 106.404 156.861C102.325 164.513 98.9251 168.934 107.934 174.885L127.141 174.545C127.141 174.545 137.679 145.639 120.087 120.899C114.648 110.782 113.033 122.004 113.033 122.004Z" fill="#45519E" stroke="#3D408A" stroke-width="3.6247" stroke-miterlimit="10" stroke-linecap="round" stroke-linejoin="round"/>
<path fill-rule="evenodd" clip-rule="evenodd" d="M120.341 106.614C120.001 103.553 123.315 101.598 123.74 105.849C125.1 117.836 114.307 121.152 106.658 115.371C105.978 114.861 104.958 114.776 104.788 116.731C104.703 117.751 103.938 117.836 103.768 117.666C102.833 116.646 104.023 107.549 106.743 108.995C110.907 111.205 121.275 114.606 120.341 106.614Z" fill="#3D408A"/>
<path fill-rule="evenodd" clip-rule="evenodd" d="M134.195 110.781C134.195 109.931 134.875 109.251 135.725 109.251C136.574 109.251 137.254 109.931 137.254 110.781C137.169 119.453 123.911 119.708 126.036 108.996C126.971 104.49 122.637 102.875 120.682 106.105C119.662 107.721 117.027 106.7 118.642 104.405C122.552 98.8788 130.625 101.854 129.096 109.591C127.821 116.052 134.195 115.032 134.195 110.781Z" fill="#99A9EB"/>
<path fill-rule="evenodd" clip-rule="evenodd" d="M114.137 109.76C120.596 108.4 124.76 109.76 124.081 116.137C123.316 122.938 117.027 130.845 111.503 123.108C106.488 116.222 107.678 111.206 114.137 109.76Z" fill="#45519E" stroke="#3D408A" stroke-width="3.6247" stroke-miterlimit="10" stroke-linecap="round" stroke-linejoin="round"/>
<path fill-rule="evenodd" clip-rule="evenodd" d="M46.8278 157.116C45.893 154.991 45.1281 152.44 44.5332 150.145C47.7627 149.634 51.3321 149.124 54.5616 148.699C55.3265 151.42 56.6013 154.48 58.386 157.541C54.1367 154.055 48.6975 154.565 46.8278 157.116Z" fill="#B9BCED"/>
<path fill-rule="evenodd" clip-rule="evenodd" d="M169.293 70.9082C169.293 71.8434 169.378 72.6085 169.378 73.4587C171.758 71.0782 175.667 72.2684 179.406 81.0253C179.151 78.3048 178.641 74.904 178.047 72.0134C177.707 70.143 177.962 69.8029 176.602 69.4628C174.562 69.0377 170.483 69.1228 169.293 70.9082Z" fill="#A7B6F2"/>
<path fill-rule="evenodd" clip-rule="evenodd" d="M120.426 111.208C121.871 111.718 122.381 112.738 122.466 113.673C119.236 110.613 110.398 113.078 111.502 120.475C110.568 118.945 109.803 116.734 109.803 115.969C109.633 113.673 111.332 112.228 113.627 111.548C115.497 110.953 118.556 110.528 120.426 111.208Z" fill="#5764C7"/>
<path fill-rule="evenodd" clip-rule="evenodd" d="M116.686 133.567C117.196 148.531 109.207 160.348 109.377 166.98C109.462 170.125 105.383 169.105 105.383 166.47C105.383 158.903 115.751 148.021 115.411 133.312C115.326 128.721 116.601 129.742 116.686 133.567Z" fill="#5C66B8"/>
<path fill-rule="evenodd" clip-rule="evenodd" d="M55.2411 132.121C55.836 135.607 55.411 136.202 58.1306 138.923C61.1051 141.898 57.7906 145.299 55.326 146.659C50.0569 149.635 43.5129 149.465 40.0285 146.234C38.1588 144.534 36.3741 139.773 38.4138 135.777L55.2411 132.121Z" fill="#DED1D6" stroke="#C2A7B1" stroke-width="3.6231" stroke-miterlimit="10" stroke-linecap="round" stroke-linejoin="round"/>
<path fill-rule="evenodd" clip-rule="evenodd" d="M53.7959 112.481C58.98 105.679 68.8384 105.679 74.0226 112.311C77.592 116.817 74.6175 120.728 67.9036 120.473C61.2747 120.303 60.4248 125.489 59.405 131.44C58.7251 135.691 54.4757 141.727 45.3822 137.561C36.5436 139.347 30.5946 134.671 32.4643 127.529C26.0903 128.549 28.4699 117.752 28.4699 117.752L26.6002 114.351C26.5152 119.452 24.3906 123.873 18.9515 125.914C13.5123 127.954 12.5775 123.193 15.297 116.817C16.5718 113.841 18.0166 110.611 19.1214 107.975C22.096 101.088 24.7305 99.218 30.7646 106.19C32.3793 108.06 32.9742 108.91 32.9742 108.91L36.5436 104.659L37.3085 99.8132C38.5833 91.6514 41.2179 87.3155 45.8071 87.8256C51.1613 88.4207 53.8808 95.9873 54.8157 100.068C55.6656 104.574 55.5806 109.25 53.7959 112.481Z" fill="white" stroke="#C2A7B1" stroke-width="3.6231" stroke-miterlimit="10" stroke-linecap="round" stroke-linejoin="round"/>
<path fill-rule="evenodd" clip-rule="evenodd" d="M28.1305 116.648C29.1503 113.673 29.1503 111.802 31.105 109.082C30.4251 108.062 28.4705 105.766 27.4506 104.831C26.2608 103.726 25.326 103.301 24.3061 103.386C25.4109 103.471 26.2608 104.066 25.6659 106.021C24.6461 109.167 23.9662 115.458 23.2863 117.159C21.6715 121.154 18.0171 124.385 16.2324 124.81C16.9973 124.895 17.6772 124.725 18.782 124.3C21.7565 123.025 26.4308 119.454 26.5158 114.353L28.1305 116.648Z" fill="#DED1D6"/>
<path fill-rule="evenodd" clip-rule="evenodd" d="M45.128 89.356C47.3376 89.186 49.5473 91.6515 50.5671 93.3519C51.8419 95.4773 52.6917 98.0279 53.1167 100.153C54.1365 104.659 54.8164 108.74 51.332 114.181C51.8419 113.501 54.9014 111.121 55.5813 110.611C54.7314 112.141 53.7966 113.671 53.2867 114.776C51.162 119.282 51.5869 122.003 53.7116 126.679C53.2867 126.254 51.8419 124.809 51.162 124.299C48.6974 122.598 45.213 121.578 42.0685 123.958C40.3687 125.319 37.9891 130.845 32.295 130.59C32.21 129.655 32.295 128.549 32.635 127.444H32.38C32.38 127.104 32.295 126.934 31.9551 126.934C35.9494 122.343 36.2044 118.092 36.5443 113.501C36.6293 112.736 37.7341 113.161 37.9041 112.566C44.703 112.821 46.3178 101.174 46.8277 95.9024C46.9977 93.4369 47.1676 89.8661 45.128 89.356Z" fill="#DED1D6"/>
<path fill-rule="evenodd" clip-rule="evenodd" d="M75.2971 114.52L75.467 114.945C76.3169 118.175 73.3424 120.641 67.9882 120.471C61.3593 120.301 60.5094 125.487 59.4896 131.438C58.8097 135.689 54.5604 141.725 45.4669 137.56C37.9881 139.09 32.6339 135.944 32.209 130.588C37.9031 130.843 40.2827 125.317 41.9824 123.957C45.1269 121.576 48.6963 122.596 51.076 124.297C54.1355 126.507 53.6255 128.718 55.5802 124.297C57.6199 119.536 59.9995 116.135 66.5435 116.56C69.263 116.815 74.0223 117.75 75.2971 114.52Z" fill="#DED1D6"/>
<path fill-rule="evenodd" clip-rule="evenodd" d="M49.4612 101.005C50.226 107.721 48.6963 114.523 41.0475 115.713C37.648 116.223 32.9738 115.543 33.2288 111.122C33.3137 109.932 33.7387 108.656 34.1636 107.296C34.3336 106.701 34.5035 106.106 34.7585 105.511C34.8435 105.171 34.9285 104.831 35.0135 104.576C35.0985 104.151 35.2684 103.555 35.3534 102.96C35.4384 102.365 35.5234 101.855 35.5234 101.6C35.5234 100.75 36.2033 100.07 36.9682 99.9846C37.818 99.9846 38.4979 100.665 38.5829 101.43C38.5829 101.94 38.4979 102.705 38.4129 103.385C38.3279 104.066 38.158 104.746 38.073 105.086C37.988 105.511 37.903 105.851 37.818 106.276C37.648 106.956 37.3931 107.551 37.2231 108.231C36.8832 109.422 36.4582 110.527 36.4582 111.292C36.3732 112.992 39.5177 112.907 40.7076 112.652C45.8917 111.802 48.1864 105.851 47.6764 101.09C47.2515 98.7093 49.1212 98.1142 49.4612 101.005Z" fill="#C2A7B1"/>
<path fill-rule="evenodd" clip-rule="evenodd" d="M32.7196 129.144C31.7847 129.229 30.9348 128.634 30.8498 127.699C30.7649 126.764 31.3598 125.914 32.2946 125.829C36.374 125.318 38.4986 119.877 38.5836 116.221C38.6686 112.821 41.1332 113.076 41.0482 116.221C40.9632 121.578 38.5836 128.379 32.7196 129.144Z" fill="#C2A7B1"/>
<path fill-rule="evenodd" clip-rule="evenodd" d="M43.3422 129.739C43.3422 132.715 45.1269 135.86 48.2714 137.051C49.0363 137.476 49.2912 138.411 48.8663 139.176C48.4414 139.941 47.5065 140.196 46.7416 139.771C43.0872 137.731 40.9626 133.735 41.1325 129.569C41.2175 126.848 43.3422 126.508 43.3422 129.739Z" fill="#C2A7B1"/>
<path d="M34.5029 107.719C32.3782 109.759 29.4887 112.48 28.1289 120.216" stroke="#C2A7B1" stroke-width="3.6231" stroke-miterlimit="10" stroke-linecap="round" stroke-linejoin="round"/>
<path fill-rule="evenodd" clip-rule="evenodd" d="M27.6204 112.225C28.9802 115.711 27.8753 118.431 26.5156 121.322C26.0906 122.172 24.9858 122.427 24.2209 121.917C23.3711 121.492 23.2861 120.982 23.796 120.132C24.9858 118.091 25.0708 115.03 25.3257 111.8C25.5807 108.569 26.5156 109.334 27.6204 112.225Z" fill="#C2A7B1"/>
<path fill-rule="evenodd" clip-rule="evenodd" d="M55.4965 110.694C60.9356 105.848 69.3493 106.443 74.0235 112.394C74.6184 113.159 75.0434 113.839 75.2983 114.605C74.0235 117.835 69.2643 116.815 66.5447 116.73C60.0008 116.39 57.6212 119.706 55.5815 124.467C53.5418 129.313 52.607 124.977 52.0121 121.916C51.4172 119.111 51.6721 118.43 53.2869 114.945C53.7968 113.754 54.7316 112.224 55.4965 110.694ZM75.4683 115.03L75.2983 114.605C75.3833 114.69 75.4683 114.86 75.4683 115.03Z" fill="white"/>
<path fill-rule="evenodd" clip-rule="evenodd" d="M50.3961 119.369C50.3111 115.968 51.7559 112.227 53.9656 109.762C54.6455 109.081 55.6653 108.996 56.3452 109.677C57.0251 110.357 56.6851 111.547 56.0902 112.227C54.4755 114.013 52.6908 116.903 52.6058 121.239C52.6058 124.555 50.4811 122.429 50.3961 119.369Z" fill="#C2A7B1"/>
<path fill-rule="evenodd" clip-rule="evenodd" d="M53.7959 112.481C58.98 105.679 68.8384 105.679 74.0226 112.311C77.592 116.817 74.6175 120.728 67.9036 120.473C61.2747 120.303 60.4248 125.489 59.405 131.44C58.7251 135.691 54.4758 141.727 45.3822 137.561C36.5436 139.347 30.5946 134.671 32.4643 127.529C26.0903 128.549 28.4699 117.752 28.4699 117.752L26.6002 114.351C26.5152 119.452 24.3906 123.873 18.9515 125.914C13.5123 127.954 12.5775 123.193 15.297 116.817C16.5718 113.841 18.0166 110.611 19.1214 107.975C22.096 101.088 24.7305 99.218 30.7646 106.19C32.3793 108.06 32.9742 108.91 32.9742 108.91L36.5436 104.659L37.3085 99.8132C38.5833 91.6514 41.2179 87.3155 45.8071 87.8256C51.1613 88.4207 53.8808 95.9873 54.8157 100.068C55.6656 104.574 55.5806 109.25 53.7959 112.481Z" stroke="#C2A7B1" stroke-width="3.6231" stroke-miterlimit="10" stroke-linecap="round" stroke-linejoin="round"/>
<path fill-rule="evenodd" clip-rule="evenodd" d="M39.1777 141.219C40.6225 141.644 42.6622 140.879 44.6169 140.879C49.2061 140.879 53.8804 141.984 51.4158 146.49C49.6311 147.17 46.9965 147.425 44.6169 146.915C41.4724 146.235 39.6877 144.365 39.1777 141.219Z" fill="white"/>
<path fill-rule="evenodd" clip-rule="evenodd" d="M96.7975 28.3977C92.6332 23.2116 88.8088 11.394 92.8882 5.52774C97.7324 -1.52879 111.84 7.14308 111.84 7.14308L104.361 12.6693C98.6672 11.564 97.7324 15.985 98.8372 19.9809C100.027 24.0617 102.237 26.5273 103.172 27.2924C104.361 28.0576 96.7975 28.3977 96.7975 28.3977Z" fill="#DC7545" stroke="#C55434" stroke-width="3.1707" stroke-miterlimit="10"/>
<path fill-rule="evenodd" clip-rule="evenodd" d="M94.757 10.9695C94.842 10.6294 94.672 10.2043 94.332 10.1193C93.9921 10.0343 93.5672 10.2043 93.4822 10.5444C93.4822 10.5444 92.7173 13.0099 93.6521 17.1758C94.0771 19.1313 95.0969 22.0219 96.6267 24.5724C97.3066 25.6777 98.1564 25.9327 97.4765 24.6575C96.2017 22.277 95.4369 19.0463 95.0119 17.3459C94.0771 13.265 94.757 10.9695 94.757 10.9695Z" fill="#C55434"/>
<path fill-rule="evenodd" clip-rule="evenodd" d="M92.9744 8.25C93.3993 8.84513 94.2492 9.27022 94.8441 9.69531C96.2888 10.7155 97.5636 11.4807 98.9234 12.5009C97.8186 13.4361 97.0537 14.9664 97.0537 17.2619C96.7988 16.2417 94.9291 15.9017 95.014 17.2619C94.5891 17.0069 93.9942 17.0919 93.5693 16.8369C93.4843 16.3267 92.9744 16.2417 93.0594 16.6668C92.2095 13.1811 92.3795 10.2054 92.9744 8.25Z" fill="#C55434"/>
<path fill-rule="evenodd" clip-rule="evenodd" d="M82.7763 33.8377C82.7763 33.8377 76.1474 20.4898 69.6035 15.4737C63.0595 10.4576 66.5439 26.6111 66.5439 26.6111C66.5439 26.6111 73.3429 29.6718 76.7423 35.368C80.1418 41.0643 82.7763 33.8377 82.7763 33.8377Z" fill="#DC7545" stroke="#C55434" stroke-width="3.1523" stroke-miterlimit="10" stroke-linecap="round" stroke-linejoin="round"/>
<path fill-rule="evenodd" clip-rule="evenodd" d="M71.8984 19.3008C72.8333 23.1266 73.7681 26.8674 74.703 30.6932C75.5529 31.4584 76.5727 32.8187 77.0826 33.4138C76.4027 31.4584 75.9778 27.4625 76.9976 26.2723C75.2129 23.6367 73.5982 21.3412 71.8984 19.3008Z" fill="#C55434"/>
<path fill-rule="evenodd" clip-rule="evenodd" d="M131.217 40.1295C131.217 40.1295 117.365 20.1501 90.9338 29.7572C62.2934 40.1295 68.3274 65.5499 68.4974 67.2503C70.4521 82.0435 79.9705 100.578 100.112 103.128C122.549 106.019 131.897 85.8693 131.897 85.8693C131.897 85.8693 145.58 61.044 131.217 40.1295Z" fill="#F2A45E"/>
<path fill-rule="evenodd" clip-rule="evenodd" d="M131.217 40.1295C131.217 40.1295 117.365 20.1501 90.9338 29.7572C62.2934 40.1295 68.3274 65.5499 68.4974 67.2503C70.4521 82.0435 79.9705 100.578 100.112 103.128C122.549 106.019 131.897 85.8693 131.897 85.8693C131.897 85.8693 145.58 61.044 131.217 40.1295Z" stroke="#D56344" stroke-width="3.1707" stroke-miterlimit="10"/>
<path fill-rule="evenodd" clip-rule="evenodd" d="M94.0779 64.2734C86.769 68.0142 79.3752 73.1154 72.0664 76.8562C76.3157 89.1838 84.2195 98.7909 99.347 101.682C117.619 105.167 129.687 92.2445 134.446 75.921C126.883 95.3902 106.911 105.252 89.6586 93.2647C86.4291 91.0542 83.7945 88.0786 81.4999 84.5928C79.9701 82.2973 80.0551 79.5767 83.7095 78.2165C88.0438 76.4311 92.3781 72.8603 94.0779 64.2734Z" fill="#F18B42"/>
<path fill-rule="evenodd" clip-rule="evenodd" d="M85.7499 83.9139C84.73 82.5536 84.0501 80.1731 85.4099 78.8978C86.6847 77.7076 88.5544 77.9626 91.8689 78.6428C104.957 81.3634 116.685 80.5982 125.438 69.6308C126.373 68.5256 127.053 68.5256 126.883 70.396C125.863 76.2623 121.444 81.0233 115.58 84.5941C113.2 86.0394 112.946 86.4645 111.416 88.675C110.481 90.0353 107.931 93.691 102.577 93.606C93.3136 93.8611 88.1295 86.5495 85.7499 83.9139Z" fill="#F18B42"/>
<path fill-rule="evenodd" clip-rule="evenodd" d="M80.9902 36.3028C89.1489 30.3515 99.0923 27.971 105.466 28.4811C106.316 30.6916 107.166 32.8171 108.016 35.0275C107.081 38.7683 109.801 52.2013 108.866 55.9421C102.407 50.5009 102.322 43.0193 103.342 39.5335C104.701 35.1126 103.002 36.8979 101.727 33.0721C101.302 31.7118 99.7722 31.7968 97.6476 32.0519C93.9931 32.562 87.4492 33.0721 80.9902 36.3028Z" fill="#F18B42"/>
<path fill-rule="evenodd" clip-rule="evenodd" d="M121.104 30.4366C118.47 25.8456 111.671 23.6351 107.931 25.1655C106.486 25.7606 105.722 27.2059 105.467 28.4812C104.617 32.6471 107.421 34.6875 111.501 34.7725C116.685 34.7725 121.104 30.4366 121.104 30.4366Z" fill="#B83932" stroke="#8C1A14" stroke-width="3.1707" stroke-miterlimit="10"/>
<path fill-rule="evenodd" clip-rule="evenodd" d="M109.206 33.0712C109.886 32.3061 110.481 31.796 111.416 30.8608C108.611 29.8405 108.611 26.3548 111.331 26.0147C109.036 25.6746 106.911 26.3548 106.486 28.9904C106.316 30.6907 107.251 32.5611 109.206 33.0712Z" fill="#A12822"/>
<path fill-rule="evenodd" clip-rule="evenodd" d="M106.656 61.2145C100.282 60.4493 95.183 64.9553 94.7581 69.1212C94.1632 75.0725 98.1576 77.368 103.002 77.7081C107.931 78.0481 115.665 76.6028 119.914 72.5219C125.098 67.7609 116.855 62.4047 106.656 61.2145Z" fill="#F8B981"/>
<path fill-rule="evenodd" clip-rule="evenodd" d="M131.218 68.4412C131.388 67.0809 129.858 66.9109 129.688 68.2712L129.603 68.6963C129.433 70.0566 130.963 70.2266 131.133 68.8663L131.218 68.4412ZM129.008 71.6719C126.544 79.1536 122.549 83.4045 115.156 87.8254C113.796 88.6756 110.566 91.3962 110.311 92.8415C110.056 93.8617 111.246 93.9467 113.371 93.2666C124.079 89.5258 129.433 80.0888 130.623 72.012C130.708 70.3967 129.433 70.2266 129.008 71.6719Z" fill="#F8B981"/>
<path fill-rule="evenodd" clip-rule="evenodd" d="M69.0933 51.1811C69.0084 46.165 70.4531 39.9587 75.5523 37.9182C81.2464 35.5377 88.3003 40.4688 80.9914 45.3999C74.7024 49.6508 72.2378 52.6264 72.2378 52.6264L69.0933 51.1811Z" fill="#B83932" stroke="#8C1A14" stroke-width="3.1707" stroke-miterlimit="10"/>
<path fill-rule="evenodd" clip-rule="evenodd" d="M71.4727 44.0407C72.9174 43.5306 74.1922 43.1055 75.722 42.9354C75.0421 41.4901 75.892 39.4497 76.7418 38.7695C74.5322 39.5347 72.6625 40.81 71.4727 44.0407Z" fill="#A12822"/>
<path fill-rule="evenodd" clip-rule="evenodd" d="M118.98 19.4707C127.649 17.4303 122.465 10.9689 118.215 7.22807C109.717 -0.253552 101.048 1.3618 98.5836 1.87191C96.5439 2.297 92.6346 4.33744 93.8244 6.97301C94.0793 7.56814 94.7592 8.07825 95.4391 8.50334C100.198 11.479 102.323 13.5194 106.147 17.2602C109.547 20.661 114.561 20.4909 118.98 19.4707Z" fill="#F2A45E" stroke="#D56344" stroke-width="3.1707" stroke-miterlimit="10"/>
<path fill-rule="evenodd" clip-rule="evenodd" d="M103.937 2.7227C100.963 2.80772 95.9486 4.42306 99.0081 6.37849C101.813 8.16387 105.212 10.8845 108.017 13.6901C111.586 17.2608 116.345 18.6211 121.445 17.0058C120.17 18.196 114.561 19.3863 110.991 18.4511C109.206 18.026 108.017 17.2608 106.487 15.7305C105.127 14.3702 102.493 11.8197 100.113 10.1193C98.5832 8.92904 97.1384 8.07886 96.1186 7.48373C95.0987 6.80358 94.3339 6.03841 95.4387 4.93318C97.3934 2.97775 101.388 2.63768 103.937 2.7227Z" fill="#F18B42"/>
<path fill-rule="evenodd" clip-rule="evenodd" d="M65.6083 38.3462C64.7584 39.1964 60.6791 42.3421 58.4694 36.0507C56.2598 29.7593 56.0048 22.5328 59.7442 17.8568C61.104 16.1564 62.4638 15.2212 63.6536 14.6261C67.138 13.0957 69.4327 13.7759 70.4525 17.8568C71.3024 21.2575 71.8973 23.1279 73.0021 24.8283C73.9369 26.4436 75.3817 28.9092 71.1324 32.4799C67.9029 35.3706 67.053 36.9009 65.6083 38.3462Z" fill="#F2A45E" stroke="#D56344" stroke-width="3.1404" stroke-miterlimit="10" stroke-linecap="round" stroke-linejoin="round"/>
<path fill-rule="evenodd" clip-rule="evenodd" d="M67.1382 17.8565C67.2232 19.982 67.8181 22.2775 68.498 24.3179C70.1977 28.8239 68.9229 28.5688 66.3734 32.0546C65.0986 33.755 65.7785 34.4351 67.3932 32.8198C68.498 31.7995 69.7728 30.8643 70.7927 29.8441C71.9825 28.6539 72.0674 27.4636 70.9626 25.1681C69.6028 22.1925 69.0929 20.4071 68.498 17.5165C68.0731 15.561 66.9683 15.561 67.1382 17.8565Z" fill="#F8B981"/>
<path fill-rule="evenodd" clip-rule="evenodd" d="M60.5101 37.2403C58.3004 27.1232 59.6602 18.5363 65.9492 15.3906C62.5498 16.1558 60.1701 18.9614 59.1503 21.767C57.4506 26.443 58.3854 33.4995 60.5101 37.2403Z" fill="#F18B42"/>
<path fill-rule="evenodd" clip-rule="evenodd" d="M111.33 81.7039C111.075 94.9668 95.4378 95.0518 87.4491 84.0844C85.7493 81.7039 86.8542 80.1736 89.6587 80.8537C93.6531 81.9589 103.766 84.3395 111.33 81.7039Z" fill="#85142C"/>
<path fill-rule="evenodd" clip-rule="evenodd" d="M108.697 86.9742C106.147 85.4439 100.538 84.6787 97.0539 86.2941C96.884 86.3791 99.0936 86.2091 101.048 86.8042C102.578 87.2293 101.813 87.0593 100.878 86.9742C96.2891 86.9742 94.5893 87.2293 92.9746 87.5694C99.6885 92.9255 106.657 91.3102 108.697 86.9742Z" fill="#BF1937"/>
<path fill-rule="evenodd" clip-rule="evenodd" d="M109.801 83.5753C108.101 94.6277 94.9286 91.1419 89.3195 84.3405C88.4696 83.3203 87.6198 81.6199 90.1694 82.3851C96.9683 84.6806 102.917 85.6158 109.801 83.5753ZM127.308 69.6323C127.648 68.6121 126.798 68.017 126.034 68.8671C125.694 69.2072 125.269 69.9724 124.929 70.3975C119.66 77.9641 110.991 81.6199 101.982 81.4499C97.5632 81.2798 92.9739 80.3446 89.3195 79.4094C85.2402 78.3892 83.7954 81.4499 86.345 84.8506C93.8238 95.1378 109.801 98.6236 111.756 82.8101C120 80.1746 124.334 74.3083 126.204 71.4177C126.459 70.9926 127.138 70.1424 127.308 69.6323Z" fill="#85142C"/>
<path fill-rule="evenodd" clip-rule="evenodd" d="M134.702 74.6459C136.317 69.1197 136.997 61.5531 135.892 55.2617C132.067 59.6827 127.478 61.8081 122.209 62.0632C122.549 62.6583 125.438 64.3587 129.093 62.6583C136.487 59.1726 135.552 69.0347 134.702 74.6459Z" fill="#F18B42"/>
<path fill-rule="evenodd" clip-rule="evenodd" d="M128.499 63.424C129.774 63.2539 129.604 61.6386 128.244 61.8936C128.244 61.8936 116.176 63.509 109.547 52.8817C109.292 52.3716 108.612 52.2866 108.187 52.5416C107.677 52.7967 107.762 54.412 108.017 54.8371C115.326 66.6547 128.414 63.424 128.499 63.424Z" fill="#DC7545"/>
<path fill-rule="evenodd" clip-rule="evenodd" d="M104.872 42.3399C104.193 47.1009 105.552 51.6919 108.272 55.2626C110.991 58.8334 115.071 61.299 119.83 61.9791H119.915C124.674 62.5742 129.264 61.2139 132.748 58.5784L132.833 58.4933C136.317 55.7728 138.782 51.7769 139.462 47.0159V46.9308C140.057 42.1698 138.697 37.6638 136.062 34.0931L135.977 34.0081C133.258 30.5223 129.264 28.0568 124.504 27.3766H124.419C119.66 26.7815 115.156 28.1418 111.586 30.7774C108.017 33.4979 105.467 37.5788 104.872 42.3399Z" fill="#B594A0"/>
<path fill-rule="evenodd" clip-rule="evenodd" d="M110.397 53.6453C108.102 50.6696 106.997 46.7588 107.507 42.7629C108.017 38.7671 110.142 35.2813 113.201 32.9858C116.176 30.6903 120 29.5851 124.08 30.0952H124.165C128.159 30.6053 131.558 32.7308 133.768 35.7064L133.853 35.7914C136.148 38.7671 137.252 42.5929 136.743 46.5888V46.7588C136.233 50.7547 134.108 54.1554 131.133 56.3659L131.048 56.4509C128.074 58.7464 124.25 59.8516 120.255 59.3415H120.17C116.091 58.7464 112.691 56.6209 110.397 53.6453Z" fill="white"/>
<path fill-rule="evenodd" clip-rule="evenodd" d="M110.397 53.6461C108.102 50.6705 106.997 46.7596 107.507 42.7638C108.017 38.7679 110.142 35.2822 113.201 32.9867C114.306 32.1365 115.411 31.5414 116.686 31.0312C114.306 33.2417 112.606 36.3024 112.182 39.8732C111.672 43.869 112.776 47.7799 115.071 50.7555C117.366 53.7312 120.765 55.8566 124.759 56.4517H124.844C127.394 56.7918 129.944 56.4517 132.153 55.5165C131.813 55.8566 131.473 56.1117 131.133 56.4517L131.048 56.5368C128.074 58.8323 124.25 59.9375 120.255 59.4274H120.17C116.091 58.7472 112.691 56.6218 110.397 53.6461Z" fill="#E6E6E6"/>
<path d="M127.719 49.9679C128.527 46.9761 126.758 43.8954 123.768 43.0869C120.777 42.2783 117.697 44.0482 116.889 47.04C116.081 50.0317 117.85 53.1125 120.841 53.921C123.831 54.7295 126.911 52.9597 127.719 49.9679Z" stroke="#3A3E8C" stroke-width="5.9426" stroke-miterlimit="22.9256"/>
<path fill-rule="evenodd" clip-rule="evenodd" d="M126.884 51.7773C125.524 53.6477 123.144 54.4979 120.85 53.9028C118.81 53.3926 117.365 51.7773 116.855 49.9069C118.215 48.0365 120.595 47.1863 122.889 47.7814C124.929 48.2915 126.374 49.9069 126.884 51.7773Z" fill="#5464D9"/>
<path d="M125.799 49.4796C126.314 47.5759 125.188 45.6155 123.285 45.1007C121.382 44.586 119.423 45.712 118.908 47.6156C118.394 49.5193 119.519 51.4798 121.422 51.9945C123.325 52.5092 125.285 51.3832 125.799 49.4796Z" fill="#363789"/>
<path d="M122.338 48.0641C123.613 47.1838 124.084 45.6558 123.391 44.651C122.698 43.6463 121.102 43.5454 119.828 44.4257C118.553 45.3059 118.082 46.834 118.775 47.8388C119.468 48.8435 121.064 48.9444 122.338 48.0641Z" fill="#FEFEFE"/>
<path d="M124.21 52.1216C124.753 51.8429 125.019 51.2784 124.805 50.8606C124.591 50.4429 123.977 50.3301 123.434 50.6087C122.891 50.8874 122.625 51.4519 122.839 51.8697C123.053 52.2874 123.667 52.4002 124.21 52.1216Z" fill="#5464D9"/>
<path fill-rule="evenodd" clip-rule="evenodd" d="M59.8295 58.0703C59.1496 62.8314 60.5094 67.4223 63.229 70.9931C65.9485 74.5639 70.0279 77.0294 74.7871 77.7096H74.8721C79.6313 78.3047 84.2206 76.9444 87.705 74.3088L87.79 74.2238C91.2745 71.5032 93.7391 67.5074 94.419 62.7463V62.6613C95.0139 57.9003 93.6541 53.3943 91.0195 49.8235L90.9345 49.7385C88.215 46.2528 84.2206 43.7872 79.4614 43.1071H79.3764C74.6171 42.512 70.1129 43.8723 66.5434 46.5078C62.974 49.2284 60.4244 53.2243 59.8295 58.0703Z" fill="#B594A0"/>
<path fill-rule="evenodd" clip-rule="evenodd" d="M65.3538 69.2937C63.0592 66.3181 61.9544 62.4072 62.4643 58.4114C62.9742 54.4155 65.0989 50.9298 68.1584 48.6343C71.1329 46.3388 74.9573 45.2335 79.0366 45.7436H79.1216C83.116 46.2537 86.5154 48.3792 88.7251 51.3549L88.8101 51.4399C91.1047 54.4155 92.2095 58.2413 91.6996 62.2372V62.4072C91.1897 66.4031 89.065 69.8038 86.0905 72.0143L86.0055 72.0993C83.031 74.3948 79.2066 75.5001 75.2122 74.99H75.1273C71.0479 74.3948 67.6485 72.2694 65.3538 69.2937Z" fill="white"/>
<path fill-rule="evenodd" clip-rule="evenodd" d="M65.3538 69.2946C63.0592 66.3189 61.9544 62.4081 62.4643 58.4122C62.9742 54.4164 65.0989 50.9306 68.1584 48.6351C69.2632 47.7849 70.368 47.1898 71.6428 46.6797C69.2632 48.8902 67.5635 51.9508 67.1385 55.5216C66.6286 59.5175 67.7334 63.4283 70.0281 66.404C72.3227 69.3796 75.7222 71.5051 79.7165 72.1002H79.8015C82.3511 72.4403 84.9007 72.1002 87.1103 71.165C86.7704 71.5051 86.4304 71.7601 86.0905 72.1002L86.0055 72.1852C83.031 74.4807 79.2066 75.5859 75.2122 75.0758H75.1273C71.0479 74.3957 67.6485 72.2702 65.3538 69.2946Z" fill="#E6E6E6"/>
<path d="M82.6327 65.3172C83.4413 62.3258 81.6726 59.245 78.6823 58.4362C75.6919 57.6274 72.6123 59.3967 71.8038 62.3882C70.9953 65.3796 72.764 68.4604 75.7543 69.2692C78.7446 70.0781 81.8242 68.3087 82.6327 65.3172Z" stroke="#3A3E8C" stroke-width="5.9426" stroke-miterlimit="22.9256"/>
<path fill-rule="evenodd" clip-rule="evenodd" d="M81.8409 67.1679C80.4811 69.0383 78.1015 69.8885 75.8069 69.2934C73.7672 68.7833 72.3224 67.1679 71.8125 65.2975C73.1723 63.4271 75.5519 62.5769 77.8465 63.1721C79.8012 63.6822 81.331 65.2975 81.8409 67.1679Z" fill="#5464D9"/>
<path d="M80.7098 64.9082C81.2242 63.0043 80.0983 61.0439 78.1952 60.5294C76.292 60.0148 74.3323 61.1411 73.818 63.045C73.3037 64.9488 74.4295 66.9093 76.3326 67.4238C78.2358 67.9383 80.1955 66.812 80.7098 64.9082Z" fill="#363789"/>
<path d="M77.2134 63.4814C78.488 62.6009 78.9592 61.0728 78.2658 60.0682C77.5724 59.0636 75.977 58.9629 74.7024 59.8434C73.4278 60.7238 72.9566 62.2519 73.6501 63.2565C74.3435 64.2611 75.9388 64.3618 77.2134 63.4814Z" fill="#FEFEFE"/>
<path d="M79.159 67.5009C79.702 67.2223 79.9685 66.6578 79.7543 66.24C79.5401 65.8222 78.9264 65.7093 78.3835 65.9879C77.8405 66.2664 77.574 66.8309 77.7882 67.2487C78.0024 67.6665 78.6161 67.7794 79.159 67.5009Z" fill="#5464D9"/>
<path fill-rule="evenodd" clip-rule="evenodd" d="M105.383 173.949C138.868 173.014 172.862 173.439 206.347 173.184V177.86C206.347 182.621 201.672 182.451 198.103 182.451C185.95 182.451 103.938 182.536 103.343 182.451C100.624 182.111 100.369 180.92 100.624 179.39C101.134 175.819 100.539 174.204 105.383 173.949Z" fill="#DBE0FF" stroke="#B2B5DB" stroke-width="3.6247" stroke-miterlimit="10" stroke-linecap="round" stroke-linejoin="round"/>
<path d="M236.433 182.449H236.008M73.0039 182.449H231.079H73.0039Z" stroke="#B2B5DB" stroke-width="4.0588" stroke-miterlimit="22.9256" stroke-linecap="round" stroke-linejoin="round"/>
<path fill-rule="evenodd" clip-rule="evenodd" d="M145.073 163.321C148.302 154.82 157.821 128.124 160.795 120.217C163.77 112.225 165.384 110.95 176.008 111.035C186.631 111.12 224.195 112.055 225.13 112.055C234.138 111.8 231.844 119.282 230.314 123.873C226.745 134.415 217.396 160.261 212.892 169.273C211.107 172.843 209.662 176.669 203.033 176.499C198.274 176.329 162.75 176.584 149.492 176.669C138.784 176.499 141.843 171.738 145.073 163.321Z" fill="#E8EBFF" stroke="#B2B5DB" stroke-width="3.6247" stroke-miterlimit="10" stroke-linecap="round" stroke-linejoin="round"/>
<path d="M185.442 153.716C183.657 152.016 182.892 148.955 183.572 145.469C184.677 140.113 188.841 135.777 192.92 135.777C195.385 135.777 197.255 137.393 198.105 139.858" stroke="#C7CDF5" stroke-width="3.5176" stroke-miterlimit="22.9256" stroke-linecap="round" stroke-linejoin="round"/>
<path d="M225.894 117.07L174.732 116.305C170.313 116.39 167.763 117.07 165.979 121.661L148.896 168.676" stroke="#C7CDF5" stroke-width="3.5176" stroke-miterlimit="22.9256" stroke-linecap="round" stroke-linejoin="round"/>
</g>
<defs>
<clipPath id="clip0">
<rect width="467" height="185" fill="white"/>
</clipPath>
</defs>
</svg>
