<svg width="305" height="252" viewBox="0 0 305 252" fill="none" xmlns="http://www.w3.org/2000/svg">
<g clip-path="url(#clip0)">
<path fill-rule="evenodd" clip-rule="evenodd" d="M236.442 241.81C236.442 247.655 201.411 252.164 158.269 251.997C115.128 251.746 80.1797 246.904 80.1797 241.059C80.1797 235.214 115.211 230.705 158.353 230.955C201.494 231.122 236.442 236.049 236.442 241.81Z" fill="#EBEBEB"/>
<path fill-rule="evenodd" clip-rule="evenodd" d="M158.018 54.0225C158.854 51.267 159.941 48.5951 161.195 46.0901C160.359 43.7521 160.108 41.2472 160.359 38.8257C160.86 34.6507 162.951 30.6428 166.462 27.8873C169.974 25.0484 174.405 23.9629 178.502 24.4639C179.17 24.5474 179.923 24.6309 180.592 24.7979C181.511 24.2134 182.515 23.7124 183.518 23.3784C185.859 22.5434 188.284 22.3764 190.792 23.2949C191.043 23.3784 191.294 23.4619 191.461 23.6289L191.544 23.3784C191.879 22.0424 191.962 20.7064 191.962 19.3704C191.712 19.3704 191.377 19.3704 191.126 19.3704C188.618 19.2034 187.113 19.3704 185.859 19.5374C185.19 19.6209 184.689 19.7044 184.02 19.7044C183.518 19.7044 182.348 19.6209 181.261 19.1199C180.675 18.8694 180.007 18.4519 179.588 17.7839C179.087 17.1995 178.836 16.3645 178.752 15.3625C178.752 14.444 179.003 13.275 179.588 11.8555C181.01 8.84955 182.933 5.92709 185.357 3.75611C187.531 1.83563 190.123 0.416152 192.882 0.0821555H192.966C194.053 -0.0013435 194.972 -0.0013435 195.725 0.0821555C196.561 0.165655 197.313 0.332653 197.982 0.58315H198.066C198.818 0.833647 199.487 1.16764 199.989 1.50164C200.574 1.66864 201.076 2.08613 201.41 2.92112C201.577 3.17162 201.744 3.42212 201.828 3.67261C202.079 4.25711 202.162 4.8416 202.162 5.59309C203.082 12.0225 200.49 21.9589 199.403 25.5494C201.661 26.1338 203.918 26.9688 206.426 28.0543C207.681 28.6388 208.851 29.2233 209.938 29.8078C210.607 26.5513 212.195 22.6269 214.453 19.3704C216.71 16.0305 219.636 13.442 222.981 12.774C223.984 12.607 224.904 12.607 225.823 12.774C226.659 12.8575 227.496 13.0245 228.248 13.275C228.917 13.5255 229.586 13.8595 230.087 14.11C231.174 14.778 233.515 16.3645 235.773 19.1199C238.03 21.8754 240.037 25.9668 240.538 31.5613C240.706 33.6488 240.705 36.2372 240.204 38.3247C239.869 39.6607 239.284 40.9132 238.448 41.7482C237.528 42.6666 236.274 43.1676 234.602 42.9171C233.599 42.7501 232.428 42.3327 231.174 41.5812C229.251 40.4122 227.328 38.9927 225.823 37.2392C224.318 35.4022 223.315 33.2313 223.232 30.6428V30.5593C223.148 28.4718 223.148 26.8018 222.981 25.2154C222.814 25.2154 222.563 25.1319 222.395 25.2154C221.977 25.2989 221.476 25.4659 221.058 25.7999C220.222 26.3843 219.553 27.3028 218.968 28.3883C218.299 29.7243 217.797 30.9768 217.546 32.0623C217.212 33.4818 217.212 34.5672 217.212 35.1517C217.463 35.4022 217.797 35.6527 218.048 35.9032C218.215 35.9032 218.299 35.8197 218.466 35.8197C219.302 35.6527 220.138 35.7362 220.974 36.0702C223.064 36.9052 225.071 39.1597 226.241 41.8317C226.91 43.3346 227.412 45.0881 227.412 46.7581C228.415 47.5096 229.335 48.4281 230.087 49.4301C232.846 52.937 233.933 57.279 233.515 61.3704V61.4539C233.014 65.6289 231.007 69.5533 227.412 72.3923L227.328 72.4758C225.991 73.5613 224.486 74.3963 222.897 74.9808C222.646 75.3983 222.395 75.8993 222.061 76.3167C227.83 73.5613 233.85 71.3903 239.786 69.8873C241.876 67.3824 245.053 65.7959 249.652 66.2134C252.494 62.2889 256.34 59.2829 260.604 57.3625C266.457 54.6905 273.062 54.0225 278.831 55.3585C280.503 55.776 282.676 56.8615 284.098 58.3645C285.185 59.5335 285.937 60.8694 285.854 62.4559C287.108 64.0424 287.86 65.6289 288.111 67.2989C288.445 68.9688 288.278 70.7223 287.693 72.3923C288.613 73.8118 289.114 75.5653 289.281 77.3187C289.532 79.5732 289.281 81.9112 288.696 83.9152C288.111 86.0026 286.857 87.4221 284.683 88.1736C282.76 88.9251 280.252 89.1756 276.908 89.0921C275.486 89.0921 275.319 89.5931 275.068 90.2611L274.901 90.5951C274.817 90.8456 274.65 91.1796 274.399 91.5971C273.814 92.6825 272.644 94.436 271.222 95.8555C269.634 97.442 267.711 98.444 265.704 97.6925C265.537 97.609 265.37 97.5255 265.203 97.442C263.363 96.44 261.106 94.3525 259.016 92.4321C256.925 90.5116 255.002 88.7581 254.417 88.6746L253.247 88.5076L252.327 88.3406C251.825 88.2571 251.407 88.0901 250.906 87.8396C250.655 87.6726 250.404 87.5891 250.153 87.4221C248.481 88.0901 245.889 89.0921 243.799 89.3426C242.294 89.5096 240.956 89.0086 239.953 88.0901C232.763 89.7601 225.489 92.2651 218.8 95.605C211.527 99.1955 204.922 103.871 199.403 109.633C198.484 118.066 195.641 126.166 191.294 133.43C185.692 142.949 177.582 151.048 168.134 156.726C167.215 157.311 166.629 158.146 166.044 158.897C164.456 161.152 162.951 163.406 155.677 162.989H155.008C155.844 169.084 151.998 171.172 147.316 171.923C147.065 173.844 146.564 175.764 146.062 177.685C144.891 181.943 143.136 186.201 141.38 189.792C142.968 190.376 144.222 191.128 144.975 192.297C146.145 193.967 146.396 196.305 145.477 199.645C144.975 201.315 144.557 203.903 144.306 206.241C144.223 207.16 144.139 208.162 144.139 208.997C144.557 209.247 144.891 209.581 145.142 209.999C145.393 210.333 145.477 210.667 145.56 211.084C147.65 211.251 149.573 211.418 152.332 212.17C155.259 213.005 157.182 214.174 158.436 216.011C159.606 217.848 160.108 220.186 160.192 223.359C160.192 224.193 160.108 225.613 159.773 226.782C159.69 227.116 159.523 227.366 159.439 227.7C161.362 229.454 161.195 231.625 161.028 234.13C160.944 234.714 160.944 235.382 160.944 235.967C160.944 237.219 160.61 238.054 160.024 238.722C159.439 239.39 158.687 239.724 157.851 239.975C153.252 241.06 142.968 241.394 132.267 241.311C120.729 241.144 108.689 240.476 102.753 239.39C101.499 239.14 100.663 238.639 100.161 237.887C99.6597 237.136 99.5761 236.301 99.5761 235.382C99.6597 234.464 100.83 230.957 101.834 228.034C102.419 226.281 103.004 224.694 103.088 224.193C104.843 216.929 107.519 211.084 110.194 205.323C111.95 201.565 113.706 197.808 115.127 193.633C115.712 191.963 116.381 190.543 117.552 189.374C118.722 188.205 120.394 187.454 122.735 187.203H122.819C123.571 187.12 124.324 187.12 125.244 187.12C126.247 184.865 127.501 182.027 128.588 179.104V179.021C129.675 176.182 130.594 173.343 131.18 171.005C127.334 170.086 124.408 168.416 123.488 165.41C121.899 165.16 120.227 164.909 118.639 164.492C110.612 162.655 103.171 158.814 96.9007 152.635C95.8974 151.633 94.8941 150.547 93.9744 149.462C90.5465 149.462 88.0383 146.456 86.0317 143.032C79.4267 144.118 73.6578 143.45 68.8086 142.615C65.1298 149.211 56.6855 149.545 47.9903 149.629C47.8231 149.712 47.7395 149.796 47.5723 149.963C47.0706 150.297 46.4854 150.714 46.1509 150.798L45.9837 150.881C45.7329 150.965 45.4821 151.048 45.2312 151.048C44.8968 151.382 44.5624 151.716 44.228 151.883C43.0575 154.806 41.3853 157.06 39.1279 158.73C36.2016 160.901 32.3557 161.903 27.9245 161.569C26.5032 161.486 25.2491 161.235 24.2458 160.818C23.8277 160.651 23.4933 160.4 23.1589 160.15C21.1523 161.569 18.9785 160.651 16.8047 159.732C16.2195 159.482 15.6342 159.231 15.049 159.064C13.9621 158.73 13.2096 158.229 12.7079 157.645C12.2063 157.06 11.8719 156.476 11.621 155.724C9.28004 149.545 10.0325 142.197 12.5407 135.017C15.6342 126.166 21.3195 117.482 26.754 111.47C27.0048 111.136 27.3393 110.885 27.7573 110.718C28.1753 110.468 28.5098 110.301 28.9278 110.217C30.2655 109.883 32.4393 109.8 34.3623 110.134C36.0344 110.384 37.7066 110.969 38.7099 111.887L39.3787 111.971H39.6296C35.6164 107.378 33.5262 101.617 32.6901 95.1875C32.2721 91.8476 32.1885 88.3406 32.2721 84.6666C29.9311 84.5832 27.6737 84.4162 25.4163 84.1657C18.0588 83.4142 11.203 82.1617 5.09966 80.6587C1.50454 79.7402 -0.41843 78.6547 -0.75286 77.2352C-1.08729 75.6488 0.334037 74.2293 3.34391 72.7263C7.60789 70.5553 11.5374 67.5494 15.1326 64.3764C18.7277 61.1199 22.072 57.5295 25.0818 54.1895C34.6967 43.4181 43.9771 37.4897 54.0936 35.9867C64.2101 34.4837 74.9955 37.4897 87.8711 44.4201C103.088 52.6865 119.475 52.3525 133.27 52.1855C143.47 51.6845 151.831 51.601 158.018 54.0225ZM81.2661 127.669C80.848 124.579 81.3497 121.991 83.2726 120.237C83.189 118.567 83.2726 116.897 83.3562 115.227C78.8414 117.064 74.3266 118.15 69.9791 118.818H69.8118C70.8987 119.486 71.902 120.237 72.5709 121.323C73.4906 122.742 73.9922 124.579 73.825 126.917C73.825 127.251 73.825 127.502 73.7414 127.836C75.4135 127.919 77.0021 127.919 78.6742 127.836C79.5939 127.836 80.43 127.752 81.2661 127.669Z" fill="#EBEBEB"/>
<path fill-rule="evenodd" clip-rule="evenodd" d="M202.247 111.302C205.006 113.807 210.942 112.555 213.367 109.883C225.49 96.6063 243.8 89.0079 261.358 85.9185C265.036 85.2505 267.21 81.2425 266.541 77.5685C265.872 73.8946 264.618 69.6361 261.023 70.3041C241.375 73.8111 220.306 86.002 206.177 100.447C203.083 103.704 198.15 107.545 202.247 111.302Z" fill="#C2CEFF" stroke="#99A9EB" stroke-width="3.0361" stroke-miterlimit="10" stroke-linecap="round" stroke-linejoin="round"/>
<path fill-rule="evenodd" clip-rule="evenodd" d="M244.134 76.4844C236.776 79.3233 232.596 88.4247 235.271 92.8502C229.085 95.6056 220.473 100.866 212.196 109.132C211.276 104.874 212.363 97.9436 211.443 93.6852C220.724 86.4208 233.181 80.1583 244.134 76.4844Z" fill="#A7B6F2"/>
<path fill-rule="evenodd" clip-rule="evenodd" d="M266.123 68.2999C265.287 67.9659 266.792 68.2999 265.538 68.1329C250.321 66.0454 251.993 89.2581 259.267 88.3396C262.528 87.9221 266.876 85.8347 266.876 85.8347C269.049 81.3257 269.049 69.3854 266.123 68.2999Z" fill="white" stroke="#C2A7B1" stroke-width="3.4541" stroke-miterlimit="10" stroke-linecap="round" stroke-linejoin="round"/>
<path fill-rule="evenodd" clip-rule="evenodd" d="M259.769 86.7539C262.612 86.2529 264.869 85.1674 264.869 85.1674C265.204 83.1634 262.612 79.406 262.194 73.6445C260.856 76.734 262.528 83.4139 258.85 84.4994C257.763 84.8334 256.927 85.0839 256.258 84.2489C257.01 86.2529 257.93 87.0879 259.769 86.7539Z" fill="#DED1D6"/>
<path fill-rule="evenodd" clip-rule="evenodd" d="M270.22 87.8393C269.384 87.7558 268.715 87.5888 268.213 87.5053C262.361 86.0858 261.943 75.2309 264.284 70.555C269.969 59.2826 283.514 54.6067 294.048 57.1116C296.64 57.6961 300.57 60.3681 300.068 63.3741C302.743 66.4635 303.161 69.887 301.824 73.0599C303.914 75.9824 304.081 80.5749 303.078 84.1653C302.158 87.5053 298.897 88.5908 292.543 88.5073C289.951 88.4238 289.868 89.5928 289.366 90.8452C288.948 92.0142 284.935 98.8611 281.423 97.0242C277.912 94.8532 272.31 88.0898 270.22 87.8393Z" fill="white" stroke="#C2A7B1" stroke-width="3.0419" stroke-miterlimit="22.9256"/>
<path fill-rule="evenodd" clip-rule="evenodd" d="M299.064 63.8741C301.739 66.9636 302.074 69.7191 300.485 72.558C302.324 75.397 303.077 79.7389 302.074 83.2459C301.154 86.5859 298.562 87.2539 292.71 87.0869C290.201 87.0034 288.864 88.5063 288.446 89.6753C288.362 89.9258 288.195 90.5103 287.86 91.1783C287.442 91.9298 286.69 92.8483 286.105 93.5998C285.101 94.9358 283.513 96.6058 281.757 95.4368C280.503 94.5183 278.747 93.0988 277.159 91.5958L276.824 91.2618C279.667 93.7668 282.259 95.9378 284.014 92.6813C285.436 90.1763 284.767 86.7529 281.841 84.9159C281.59 84.7489 281.088 84.4984 280.837 84.4149C275.57 82.3274 280.252 79.1545 287.693 78.9875C292.626 78.904 300.987 82.6614 299.816 74.6455C299.147 70.1366 295.469 69.1346 291.539 67.2976C293.378 67.4646 296.305 67.2976 297.475 66.2956C299.565 64.3751 295.552 61.2857 294.131 60.3672C295.469 60.7012 299.482 61.7867 299.064 63.8741Z" fill="#DED1D6"/>
<path fill-rule="evenodd" clip-rule="evenodd" d="M282.091 82.3302C287.191 82.4137 293.713 83.3322 290.87 90.2626C290.368 91.4316 287.86 91.0141 288.111 90.3461C290.034 85.6701 284.85 85.0021 281.924 84.8351C278.413 84.7516 278.496 82.2467 282.091 82.3302Z" fill="#C2A7B1"/>
<path fill-rule="evenodd" clip-rule="evenodd" d="M289.616 66.0456C296.389 65.2941 301.071 68.2166 303.997 74.2285C304.331 74.8965 303.997 75.648 303.412 75.8985C302.743 76.2325 301.99 75.8985 301.739 75.314C299.315 70.3041 295.636 67.5486 290.034 68.1331C286.857 68.4671 287.192 66.2961 289.616 66.0456Z" fill="#C2A7B1"/>
<path fill-rule="evenodd" clip-rule="evenodd" d="M288.697 59.1141C293.212 58.8636 298.061 59.3646 301.322 62.6211C301.823 63.1221 301.823 63.9571 301.322 64.3745C300.82 64.8755 299.984 64.8755 299.566 64.3745C296.807 61.7026 292.794 60.9511 289.031 61.1181C286.189 61.4521 286.189 59.2811 288.697 59.1141Z" fill="#C2A7B1"/>
<path fill-rule="evenodd" clip-rule="evenodd" d="M93.2224 57.4453C83.9419 62.0378 59.9466 67.3817 50.6662 72.0576C48.8268 88.4234 48.3252 103.871 58.4417 113.223C66.2172 120.404 92.9715 122.909 113.455 105.541C119.559 100.364 116.465 121.489 124.241 122.658C142.718 105.541 161.195 88.3399 179.589 71.2226C150.828 66.5467 122.067 62.0378 93.2224 57.4453Z" fill="#3A4AC4" stroke="#3645BA" stroke-width="3.0419" stroke-miterlimit="22.9256"/>
<path fill-rule="evenodd" clip-rule="evenodd" d="M152.417 65.8789C123.238 71.8908 79.8454 78.0698 50.75 84.0817C50.75 86.4197 50.75 86.3362 50.8336 88.7576C68.3912 105.374 107.937 81.6602 105.68 106.71C104.928 115.227 132.518 99.1115 140.21 101.95C150.159 95.6881 160.192 89.4256 170.141 83.1632C164.205 77.3183 158.269 71.6403 152.417 65.8789Z" fill="#3645BA"/>
<path fill-rule="evenodd" clip-rule="evenodd" d="M196.31 87.0033C194.471 81.3253 183.602 70.4705 181.763 64.709C173.067 42.8323 135.946 63.54 103.339 45.8383C78.2565 32.1444 61.0334 34.1484 42.2217 55.2736C36.1184 62.0371 28.8445 69.6355 20.0657 74.0609C15.2165 76.5659 15.3001 77.9854 21.5707 79.5718C32.8577 82.4943 46.9037 84.4148 61.9531 83.4963C87.6206 81.9933 123.906 70.053 153.67 70.721C167.215 71.0549 187.615 73.8939 196.31 87.0033Z" fill="#4F5FD6" stroke="#3A4AC4" stroke-width="3.0419" stroke-miterlimit="22.9256"/>
<path fill-rule="evenodd" clip-rule="evenodd" d="M126.164 86.3371C136.531 92.5996 144.725 92.5161 161.028 83.2477C168.386 79.0727 176.663 76.0667 187.365 81.0767C209.604 91.5976 218.717 90.9296 211.862 118.15C206.594 139.109 189.371 154.138 167.382 160.401C166.296 160.735 162.366 162.906 161.195 163.156C144.056 167.164 126.08 164.492 113.456 152.051C97.0685 135.936 94.2259 108.464 111.449 89.8441C115.713 85.2516 120.813 83.0807 126.164 86.3371Z" fill="#374499" stroke="#34378C" stroke-width="3.0419" stroke-miterlimit="22.9256"/>
<path d="M144.224 155.642C124.576 143.284 116.466 121.407 132.268 94.6875" stroke="#34378C" stroke-width="3.0419" stroke-miterlimit="22.9256" stroke-linecap="round" stroke-linejoin="round"/>
<path fill-rule="evenodd" clip-rule="evenodd" d="M137.618 92.9326C135.611 95.187 135.026 105.708 133.019 107.962C130.595 106.543 127.167 102.952 124.993 100.531C119.893 94.9365 115.712 95.02 111.866 100.614C106.683 108.129 102.252 118.066 102.252 128.42C100.496 121.907 100.579 114.475 103.422 106.209C105.763 99.2785 109.86 92.0976 115.796 87.6721C119.391 85.0002 123.237 86.0021 126.665 88.0061C132.183 91.3461 131.849 91.1791 137.618 92.9326Z" fill="#4857B5"/>
<path fill-rule="evenodd" clip-rule="evenodd" d="M112.285 123.328L117.134 138.775C120.144 148.461 106.6 150.966 103.506 143.034L98.239 129.34C95.3963 121.908 109.442 114.059 112.285 123.328Z" fill="#374499"/>
<path fill-rule="evenodd" clip-rule="evenodd" d="M100.831 141.362C99.9953 139.692 99.8281 138.523 99.0757 136.686C95.4805 127.752 94.1428 118.985 105.764 118.567C108.691 118.484 109.443 119.569 106.099 120.237C96.9019 122.158 98.8248 128.754 101.667 135.768C102.504 137.772 103.423 139.776 104.259 141.529C106.182 145.37 108.523 149.044 113.623 146.706C115.797 145.704 116.299 146.957 114.627 148.126C107.687 152.802 103.59 146.957 100.831 141.362Z" fill="#34378C"/>
<path fill-rule="evenodd" clip-rule="evenodd" d="M110.947 124.077C116.548 126.999 125.662 135.266 118.973 140.776C116.883 142.53 116.716 141.361 116.298 139.19C115.127 132.761 110.863 127.25 107.77 124.745C105.679 122.991 108.522 122.741 110.947 124.077Z" fill="#4857B5"/>
<path fill-rule="evenodd" clip-rule="evenodd" d="M59.947 148.626C57.9404 157.06 52.2551 161.068 43.8944 160.483C41.5533 160.316 39.5468 159.732 39.2959 158.396C36.9549 161.151 34.1123 158.813 31.3532 157.978C29.6811 157.477 29.1794 156.559 28.7614 155.473C23.6614 142.197 34.0287 123.076 43.6435 112.555C44.0616 112.054 44.6468 111.803 45.2321 111.636C47.4059 111.135 52.0043 111.386 53.9273 113.056C54.2617 113.39 54.9305 113.39 55.4322 113.39C64.2946 114.058 73.0734 115.561 83.6079 119.903C86.5342 121.155 88.2899 123.076 88.0391 127.334C87.8719 131.426 85.8653 136.686 84.2768 140.694C81.0161 149.127 70.1471 148.459 59.947 148.626Z" fill="#B56D90" stroke="#8C3660" stroke-width="3.0361" stroke-miterlimit="10" stroke-linecap="round" stroke-linejoin="round"/>
<path fill-rule="evenodd" clip-rule="evenodd" d="M65.2132 131.259C64.2935 129.171 62.7049 128.503 60.8656 129.589C58.6082 130.925 58.859 133.68 59.4442 136.185C60.0295 139.107 60.6984 143.199 60.0295 146.873C59.7787 148.042 59.1098 150.63 61.618 149.962C62.0361 149.879 63.541 148.793 63.8754 148.292C66.3001 144.952 67.2197 135.851 65.2132 131.259Z" fill="#D2B2BF" stroke="#8C3660" stroke-width="2.6814" stroke-miterlimit="10" stroke-linecap="round" stroke-linejoin="round"/>
<path fill-rule="evenodd" clip-rule="evenodd" d="M56.3521 140.108C53.6767 138.271 54.0111 133.178 55.5997 131.091C56.2685 130.256 57.1046 129.588 58.0243 129.337C58.6932 129.17 59.362 129.588 59.5292 130.423C59.6964 131.174 59.362 131.926 58.6931 132.176C58.2751 132.26 57.8571 132.677 57.5226 133.095C55.6833 135.349 58.4423 141.695 56.3521 140.108Z" fill="#8C3660"/>
<path fill-rule="evenodd" clip-rule="evenodd" d="M52.8392 117.899C49.8293 122.742 45.649 129.088 42.6391 137.02C40.2981 143.116 39.88 148.209 40.1309 153.386C40.2981 156.559 38.5423 156.475 38.0407 153.219C37.121 147.291 37.3718 141.947 39.6292 135.684C42.4719 128.086 46.6522 122.157 49.6621 117.147C51.3343 114.559 54.6786 115.06 52.8392 117.899Z" fill="#8C3660"/>
<path fill-rule="evenodd" clip-rule="evenodd" d="M58.0243 149.796C58.7767 145.872 58.0243 141.697 56.8538 138.607C56.1849 136.77 56.4357 134.599 57.439 133.43C59.362 131.343 61.1178 132.762 61.703 135.267C62.8735 139.943 62.7063 145.621 60.8669 149.545C59.8636 151.716 57.5226 152.217 58.0243 149.796Z" fill="#D2B2BF" stroke="#8C3660" stroke-width="2.6814" stroke-miterlimit="10" stroke-linecap="round" stroke-linejoin="round"/>
<path fill-rule="evenodd" clip-rule="evenodd" d="M60.4487 131.844C60.4487 133.681 57.8568 133.263 57.7732 131.426C57.6896 128.42 59.0273 125.999 62.2044 125.665C64.1274 125.414 65.2143 127.168 62.7061 127.585C60.9503 127.919 60.365 130.257 60.4487 131.844Z" fill="#8C3660"/>
<path fill-rule="evenodd" clip-rule="evenodd" d="M78.0899 140.276C77.421 137.604 79.4276 131.341 80.7653 128.836C88.1228 130.256 99.995 130.089 104.593 128.001C108.523 126.749 111.366 136.101 111.616 139.023C97.1524 145.369 85.949 141.695 78.0899 140.276Z" fill="#F2A45E" stroke="#C55434" stroke-width="3.0849" stroke-miterlimit="10" stroke-linecap="round" stroke-linejoin="round"/>
<path fill-rule="evenodd" clip-rule="evenodd" d="M99.6597 130.507C93.64 131.175 87.8711 131.175 80.43 130.09C79.4267 132.678 79.0087 133.847 78.3398 136.436C88.3727 138.523 104.258 137.521 99.6597 130.507Z" fill="#F8B981"/>
<path fill-rule="evenodd" clip-rule="evenodd" d="M83.6904 126.581C82.6871 128.418 79.928 133.762 79.0083 140.943C78.7575 143.03 75.9149 143.281 76.3329 139.941C77.0018 133.845 78.6739 130.171 80.0116 127.332C82.1018 122.907 84.6937 124.66 83.6904 126.581Z" fill="#8C3660"/>
<path fill-rule="evenodd" clip-rule="evenodd" d="M110.529 138.106C108.69 138.857 106.6 139.692 104.259 140.11C105.931 137.688 106.349 132.177 104.008 129.589C104.927 129.338 105.346 129.004 106.265 128.754C107.77 131.843 109.61 134.265 110.529 138.106Z" fill="#F09341"/>
<path fill-rule="evenodd" clip-rule="evenodd" d="M110.697 140.443C110.028 135.183 106.851 130.089 103.423 126.749C101.166 124.495 103.172 123.743 105.43 125.163C109.192 127.501 113.373 134.348 113.791 140.36C113.958 143.366 111.115 143.783 110.697 140.443Z" fill="#34378C"/>
<path fill-rule="evenodd" clip-rule="evenodd" d="M147.399 154.556L163.452 156.81C173.485 158.23 169.973 171.589 161.445 170.921L146.814 169.836C138.788 169.251 137.784 153.22 147.399 154.556Z" fill="#374499"/>
<path fill-rule="evenodd" clip-rule="evenodd" d="M158.771 172.591C156.932 172.591 155.845 172.257 153.838 172.174C144.223 171.589 135.696 169.084 140.294 158.313C141.464 155.558 142.719 155.474 141.966 158.731C139.792 167.832 146.565 168.917 154.089 169.335C156.263 169.502 158.52 169.502 160.36 169.418C164.624 169.251 169.055 168.75 169.055 163.156C169.055 160.818 170.393 160.902 170.727 162.822C172.065 171.339 164.958 172.508 158.771 172.591Z" fill="#34378C"/>
<path fill-rule="evenodd" clip-rule="evenodd" d="M147.233 157.309C152.249 153.552 163.704 148.792 165.794 157.226C166.463 159.898 165.292 159.48 163.202 158.896C156.931 157.226 149.992 158.729 146.564 160.399C143.972 161.651 145.059 158.979 147.233 157.309Z" fill="#4857B5"/>
<path fill-rule="evenodd" clip-rule="evenodd" d="M160.025 199.644C159.021 203.151 158.352 209.998 158.77 212.419C161.947 212.67 164.121 212.67 167.633 213.588C172.9 215.008 174.405 217.679 174.572 223.691C174.656 225.027 174.405 227.699 173.235 228.117C176.328 229.954 175.325 232.876 175.325 236.216C175.325 237.97 174.405 238.638 173.235 238.972C163.787 241.143 130.009 240.391 118.639 238.387C116.799 238.053 116.381 236.968 116.465 235.632C116.549 234.379 119.642 226.029 119.977 224.693C122.819 212.753 128.254 204.821 131.932 194.3C133.019 191.294 134.357 189.206 138.537 188.705C142.634 188.288 150.326 189.874 154.59 190.793C159.356 191.795 161.697 193.799 160.025 199.644Z" fill="#B56D90" stroke="#8C3660" stroke-width="3.0377" stroke-miterlimit="10" stroke-linecap="round" stroke-linejoin="round"/>
<path fill-rule="evenodd" clip-rule="evenodd" d="M153.504 238.972C160.025 239.055 166.045 238.972 172.567 237.886C173.653 237.719 173.904 237.385 174.071 236.3C174.322 234.63 174.824 231.457 173.653 230.121C172.901 229.202 173.486 229.703 172.316 229.035C171.73 228.701 171.898 227.449 172.483 227.282C173.319 226.948 173.486 224.777 173.403 223.357C173.319 221.688 173.068 219.6 172.316 218.264C169.975 214.256 165.46 214.256 158.27 213.505C157.099 213.421 157.016 212.67 156.681 211.668C156.43 211 157.601 206.407 157.935 204.988C159.775 197.139 160.861 194.884 154.758 193.465L142.886 194.216C140.461 193.632 139.124 197.64 144.558 197.723C146.648 197.723 147.902 198.642 146.648 201.982C146.147 203.401 145.561 205.739 142.969 206.574C140.796 207.242 140.963 211.668 143.973 210.081C144.976 209.58 142.301 218.849 144.892 218.598C148.32 218.264 148.738 216.845 149.574 217.012C154.507 217.596 155.26 221.771 155.009 224.86C154.842 226.53 154.591 228.534 152.166 228.284C152.083 228.534 153.42 230.956 153.671 230.956C156.681 231.123 156.932 238.053 153.504 238.972Z" fill="#9E4D74"/>
<path fill-rule="evenodd" clip-rule="evenodd" d="M139.038 209.414C137.199 210.75 136.865 212.504 138.37 214.007C140.209 215.844 142.801 215.009 145.142 214.007C147.817 212.754 151.747 211.251 155.509 211.168C156.68 211.168 159.355 211.251 158.185 208.997C158.017 208.579 156.596 207.41 156.094 207.16C152.248 205.406 143.135 206.408 139.038 209.414Z" fill="#D2B2BF" stroke="#8C3660" stroke-width="2.683" stroke-miterlimit="10" stroke-linecap="round" stroke-linejoin="round"/>
<path fill-rule="evenodd" clip-rule="evenodd" d="M149.574 216.177C148.32 219.183 143.303 219.934 140.879 218.849C139.876 218.431 139.039 217.763 138.621 216.928C138.287 216.344 138.621 215.592 139.29 215.175C139.959 214.841 140.879 215.008 141.13 215.676C141.38 216.093 141.799 216.427 142.3 216.594C145.143 217.763 150.744 213.755 149.574 216.177Z" fill="#8C3660"/>
<path fill-rule="evenodd" clip-rule="evenodd" d="M130.845 225.778C140.293 228.116 162.783 228.2 171.98 227.448C175.157 227.198 175.408 229.285 172.147 229.536C161.696 230.371 141.212 231.54 130.594 228.951C127.584 228.2 127.584 225.027 130.845 225.778Z" fill="#8C3660"/>
<path fill-rule="evenodd" clip-rule="evenodd" d="M158.771 212.42C154.758 212.587 150.912 214.174 148.07 216.011C146.481 217.096 144.224 217.263 142.886 216.512C140.378 215.092 141.381 213.088 143.722 211.919C147.986 209.832 153.671 208.746 157.852 209.665C160.193 210.166 161.196 212.337 158.771 212.42Z" fill="#D2B2BF" stroke="#8C3660" stroke-width="2.683" stroke-miterlimit="10" stroke-linecap="round" stroke-linejoin="round"/>
<path fill-rule="evenodd" clip-rule="evenodd" d="M140.628 214.008C142.383 213.59 142.551 216.262 140.795 216.68C137.869 217.348 135.193 216.596 134.19 213.591C133.605 211.754 135.026 210.251 135.946 212.672C136.698 214.342 139.123 214.342 140.628 214.008Z" fill="#8C3660"/>
<path fill-rule="evenodd" clip-rule="evenodd" d="M154.84 191.795C153.168 194.884 152.917 194.55 150.827 194.717C148.988 194.801 146.563 194.717 144.64 194.3C143.135 194.049 141.965 193.966 141.296 193.465C140.209 192.63 139.373 193.298 140.376 191.544C142.466 187.787 147.399 176.097 148.57 169.668C148.737 168.749 148.737 163.656 148.904 163.572C150.911 163.322 152.332 162.988 155.425 162.904C158.602 162.821 161.78 161.318 162.198 165.66C162.866 173.509 158.686 184.864 154.84 191.795Z" fill="#F2A45E" stroke="#C55434" stroke-width="3.0849" stroke-miterlimit="10" stroke-linecap="round" stroke-linejoin="round"/>
<path fill-rule="evenodd" clip-rule="evenodd" d="M149.909 170.084C148.07 176.514 146.815 181.44 140.963 192.545C143.638 193.297 146.063 193.881 148.237 193.547C153.337 184.697 157.935 167.83 149.909 170.084Z" fill="#F8B981"/>
<path fill-rule="evenodd" clip-rule="evenodd" d="M161.613 164.24C161.53 166.328 161.112 169.835 160.443 172.256C159.356 168.916 153.42 166.161 149.908 167.163C149.992 166.077 149.825 165.159 149.992 164.157C153.42 163.155 157.516 163.405 161.613 164.24Z" fill="#F09341"/>
<path fill-rule="evenodd" clip-rule="evenodd" d="M163.201 164.742C158.101 163.072 152.165 163.824 147.65 165.41C144.64 166.496 144.807 164.325 147.065 162.905C150.827 160.484 158.77 159.649 164.371 161.82C167.298 163.072 166.462 165.828 163.201 164.742Z" fill="#34378C"/>
<path fill-rule="evenodd" clip-rule="evenodd" d="M138.203 191.964C140.209 192.465 148.068 194.135 155.175 193.216C157.265 192.966 158.018 195.471 154.673 195.805C148.57 196.473 142.216 195.471 139.122 194.886C134.357 193.968 136.029 191.463 138.203 191.964Z" fill="#8C3660"/>
<path fill-rule="evenodd" clip-rule="evenodd" d="M137.367 90.5105C143.805 91.2619 149.323 89.5085 159.607 83.6635C162.7 81.8265 160.025 79.0711 157.767 77.2341C149.657 70.8047 137.534 65.5442 140.795 80.4071C141.715 84.6655 143.052 85.25 136.782 86.8365C130.678 88.423 129.173 88.0055 128.421 83.3295C122.903 50.1804 153.336 53.1864 171.061 71.3057C173.067 73.3096 175.241 75.8981 175.826 78.4866C179.422 78.4031 183.184 79.1546 187.448 81.1586C204.755 89.3415 214.119 90.7609 214.202 103.787C214.369 125.246 201.327 145.202 183.267 156.057C179.505 158.312 181.177 162.737 171.562 162.236C155.928 161.401 145.393 155.473 135.695 145.703C125.662 135.6 124.575 121.489 127.25 112.053C129.508 103.286 132.852 95.8544 137.367 90.5105Z" fill="#C2CEFF" stroke="#99A9EB" stroke-width="3.0419" stroke-miterlimit="22.9256"/>
<path fill-rule="evenodd" clip-rule="evenodd" d="M134.441 94.4339C132.1 105.456 129.759 116.561 127.418 127.583C127.836 131.006 129.592 136.35 132.184 139.523C131.431 137.686 134.107 135.432 136.782 137.603C137.451 137.185 143.303 139.273 143.889 138.772C140.962 135.515 144.223 133.01 146.982 129.086C149.407 125.579 150.744 120.068 149.992 113.555C157.099 114.14 167.048 108.044 162.45 96.7719C159.69 96.6049 163.035 92.1794 160.276 92.0124C155.761 89.1735 156.179 86.8355 159.523 85.082C149.658 90.6765 140.544 93.0979 134.441 94.4339Z" fill="#A7B6F2"/>
<path fill-rule="evenodd" clip-rule="evenodd" d="M168.134 156.56C144.891 151.299 126.665 132.261 129.508 116.313C129.842 114.309 130.595 113.725 131.681 113.307C132.936 112.89 134.608 112.973 134.106 115.729C131.598 130.341 150.159 149.379 168.552 154.222C173.903 155.558 172.733 157.562 168.134 156.56Z" fill="#99A9EB"/>
<path fill-rule="evenodd" clip-rule="evenodd" d="M212.698 98.1944C199.99 97.2759 187.951 96.3575 175.242 95.3555C178.085 108.548 202.665 122.827 212.113 111.638C213.2 106.628 213.367 104.457 212.698 98.1944Z" fill="#A7B6F2"/>
<path fill-rule="evenodd" clip-rule="evenodd" d="M195.39 66.2132C208.099 67.8832 218.048 78.0701 217.63 88.925C217.295 99.8633 206.677 107.295 194.053 105.625C182.849 104.122 172.398 96.1894 171.813 84.249C171.646 81.2431 175.325 73.7282 169.639 66.7142C166.128 62.4558 188.618 65.2948 195.39 66.2132Z" fill="#4F5FD6" stroke="#3A4AC4" stroke-width="3.0419" stroke-miterlimit="22.9256"/>
<path fill-rule="evenodd" clip-rule="evenodd" d="M216.794 91.0132C205.758 91.0132 194.721 90.9297 183.769 90.9297C186.277 94.0192 190.625 95.8561 193.802 97.8601C201.076 102.369 190.959 105.125 183.602 100.699C189.956 104.874 198.902 106.21 206.176 103.037C211.108 100.866 216.041 96.3571 216.794 91.0132Z" fill="#3A4AC4"/>
<path fill-rule="evenodd" clip-rule="evenodd" d="M175.91 86.0025C177.08 90.3445 181.595 94.7699 187.866 97.4419C191.126 98.8614 187.782 100.949 184.689 99.4458C178.92 96.6069 175.575 92.3484 174.238 86.086C173.485 81.9945 174.739 81.5771 175.91 86.0025Z" fill="#6473E8"/>
<path fill-rule="evenodd" clip-rule="evenodd" d="M103.756 73.6459C69.8116 82.8308 40.549 83.5823 25.3325 77.0694C23.4931 76.2344 23.8275 75.9004 25.1653 75.0654C33.108 69.638 41.9704 61.2046 53.5082 65.7135C67.387 71.0575 82.4364 72.811 103.589 71.475C108.773 71.0575 108.104 72.477 103.756 73.6459Z" fill="#5F6FE3"/>
<path fill-rule="evenodd" clip-rule="evenodd" d="M129.591 82.3298C132.016 81.4114 134.524 80.4929 136.949 79.5744C135.611 72.2265 136.865 66.0475 143.219 63.7096C145.895 62.7076 147.734 61.2046 145.226 59.2006C136.865 58.7831 132.1 61.9561 130.009 67.968C128.588 72.143 129.257 77.9879 129.591 82.3298Z" fill="#D6E0FF"/>
<path fill-rule="evenodd" clip-rule="evenodd" d="M128.169 90.9283C125.912 83.9979 125.243 83.1629 135.108 80.7414C143.887 78.5704 149.154 84.4154 142.549 91.2623C139.038 94.8528 129.841 96.3557 128.169 90.9283Z" fill="#DED1D6" stroke="#C2A7B1" stroke-width="2.7651" stroke-miterlimit="10" stroke-linecap="round" stroke-linejoin="round"/>
<path fill-rule="evenodd" clip-rule="evenodd" d="M128.671 88.6722C127.667 85.5827 127.333 84.4972 130.008 83.4118C130.928 82.9943 132.349 82.6603 134.105 82.1593C137.031 81.4078 139.958 80.7398 142.717 82.4933C142.633 82.7438 142.132 83.4953 141.964 83.7457C140.71 85.4992 139.205 86.2507 136.112 86.7517C133.938 87.1692 131.681 87.5032 129.089 88.4217L128.671 88.6722Z" fill="white"/>
<path fill-rule="evenodd" clip-rule="evenodd" d="M147.149 93.8495C149.406 99.8614 153.419 97.3565 155.593 93.766C158.436 89.0901 161.613 95.0185 161.864 97.774C162.867 107.794 149.573 112.553 144.473 103.702C143.972 102.283 143.219 101.114 143.303 103.368C143.303 104.37 144.975 109.13 145.226 113.806C146.145 131.591 127.334 134.096 131.431 125.663C130.845 126.581 128.086 127.834 125.829 127.834C123.906 127.834 122.234 126.331 123.571 123.742C118.388 127.166 113.789 125.412 118.471 119.066C120.394 116.394 123.153 111.551 124.073 107.794C124.826 104.788 123.822 102.199 123.739 99.11C123.655 94.6845 124.909 91.0105 130.678 89.8416C133.186 89.3406 137.116 88.8396 140.126 89.0901C143.721 89.5076 145.895 90.3426 147.149 93.8495Z" fill="white" stroke="#C2A7B1" stroke-width="2.7651" stroke-miterlimit="10" stroke-linecap="round" stroke-linejoin="round"/>
<path fill-rule="evenodd" clip-rule="evenodd" d="M136.866 109.045C137.2 114.473 135.11 121.904 132.602 126.246C132.267 126.831 131.515 126.998 130.93 126.664C130.344 126.33 127.92 126.664 128.254 126.079C131.849 124.242 134.943 114.974 135.11 108.878C135.194 104.87 136.699 105.789 136.866 109.045Z" fill="#C2A7B1"/>
<path fill-rule="evenodd" clip-rule="evenodd" d="M130.762 110.381C130.428 115.057 128.421 119.148 125.746 122.989C125.328 123.657 124.91 124.075 124.575 124.826C123.739 126.496 120.562 124.743 121.482 123.574C125.161 121.653 128.421 115.307 129.09 110.548C129.675 105.955 131.013 106.79 130.762 110.381Z" fill="#C2A7B1"/>
<path fill-rule="evenodd" clip-rule="evenodd" d="M133.354 129.088C136.113 128.169 138.37 126.332 139.959 124.245C144.139 118.651 142.634 112.305 140.878 106.209C140.209 103.955 139.875 101.951 140.711 100.615C141.129 99.9468 142.049 99.8633 143.721 101.032C142.968 101.032 142.467 101.533 142.383 102.452C142.216 103.621 142.801 105.207 143.219 107.211C143.804 109.549 144.306 112.472 144.306 114.726C144.306 117.064 144.139 119.653 142.968 122.074C141.045 126.165 137.032 129.672 133.354 129.088Z" fill="#DED1D6"/>
<path fill-rule="evenodd" clip-rule="evenodd" d="M145.645 103.368C151.497 108.128 157.935 103.953 158.855 99.3603C159.607 95.5193 157.768 93.0144 156.43 94.6009C157.015 93.6824 157.517 92.5134 158.771 93.4319C160.945 95.1853 161.53 98.3583 160.694 101.03C158.353 107.961 149.574 109.464 145.645 103.368Z" fill="#DED1D6"/>
<path fill-rule="evenodd" clip-rule="evenodd" d="M174.823 57.6119C170.559 55.7749 166.797 55.1069 163.285 55.0234C167.131 56.9439 165.961 62.5384 159.021 60.8684C164.623 63.9578 169.556 67.2978 171.73 72.0572C172.733 67.2143 173.82 62.4548 174.823 57.6119Z" fill="#3A4AC4"/>
<path fill-rule="evenodd" clip-rule="evenodd" d="M226.326 32.5632C226.911 26.3843 232.011 15.8634 238.7 14.5275C246.559 12.941 250.489 27.9708 250.489 27.9708L241.794 26.8018C238.616 22.2929 235.105 24.7143 233.266 28.1378C231.343 31.6448 231.259 34.8177 231.426 35.9032C231.593 37.2392 226.326 32.5632 226.326 32.5632Z" fill="#DC7545" stroke="#C55434" stroke-width="3.0328" stroke-miterlimit="10"/>
<path fill-rule="evenodd" clip-rule="evenodd" d="M236.275 19.4541C236.609 19.2871 236.693 18.8696 236.526 18.6192C236.359 18.2852 235.941 18.2017 235.69 18.3687C235.69 18.3687 233.6 19.5376 231.509 22.9611C230.506 24.5476 229.336 27.1361 228.75 29.8915C228.5 31.0605 228.918 31.812 229.252 30.5595C230.004 28.138 231.509 25.4661 232.345 23.9631C234.268 20.5396 236.275 19.4541 236.275 19.4541Z" fill="#C55434"/>
<path fill-rule="evenodd" clip-rule="evenodd" d="M236.86 16.4492C236.693 17.1172 237.028 18.0357 237.195 18.6202C237.529 20.2067 237.864 21.6262 238.114 23.1291C236.777 23.0456 235.272 23.5466 233.767 25.1331C234.268 24.2146 233.182 22.8786 232.429 23.7971C232.262 23.3796 231.844 22.9621 231.677 22.5446C231.927 22.1272 231.677 21.7097 231.426 22.1272C233.098 19.2882 235.188 17.3677 236.86 16.4492Z" fill="#C55434"/>
<path fill-rule="evenodd" clip-rule="evenodd" d="M213.2 27.1371C213.2 27.1371 217.381 13.7773 216.294 6.09535C215.123 -1.58656 206.93 11.6898 206.93 11.6898C206.93 11.6898 209.522 18.2027 208.1 24.2146C206.679 30.2266 213.2 27.1371 213.2 27.1371Z" fill="#DC7545" stroke="#C55434" stroke-width="3.0162" stroke-miterlimit="10" stroke-linecap="round" stroke-linejoin="round"/>
<path fill-rule="evenodd" clip-rule="evenodd" d="M215.375 10.1016C213.535 13.2745 211.696 16.4475 209.857 19.6204C209.94 20.7059 209.773 22.2924 209.689 22.9604C210.526 21.1234 212.783 18.201 214.288 18.034C214.789 15.195 215.124 12.6065 215.375 10.1016Z" fill="#C55434"/>
<path fill-rule="evenodd" clip-rule="evenodd" d="M199.238 18.9526C198.151 18.9526 193.552 18.4516 196.061 13.0242C198.569 7.59672 203 2.67028 208.351 2.00229C210.357 1.75179 211.862 2.00229 212.949 2.41978C216.21 3.58877 217.213 5.50925 215.29 8.76571C213.702 11.5212 212.949 13.1077 212.531 14.9446C212.113 16.5311 211.528 19.1196 206.512 18.7856C202.666 18.3681 201.077 18.8691 199.238 18.9526Z" fill="#F2A45E" stroke="#D56344" stroke-width="3.0162" stroke-miterlimit="10" stroke-linecap="round" stroke-linejoin="round"/>
<path fill-rule="evenodd" clip-rule="evenodd" d="M213.116 6.51239C211.862 7.93187 210.692 9.76885 209.939 11.6058C208.184 15.6138 207.515 14.6953 203.669 15.2798C201.746 15.6138 201.829 16.4488 203.836 16.4488C205.174 16.4488 206.595 16.6993 207.933 16.6158C209.438 16.5323 210.274 15.8643 211.026 13.6933C211.946 10.8543 212.782 9.43485 214.203 7.18038C215.207 5.6774 214.538 4.92591 213.116 6.51239Z" fill="#F8B981"/>
<path fill-rule="evenodd" clip-rule="evenodd" d="M196.729 15.0273C201.661 7.01143 207.932 2.33549 214.035 4.17247C211.36 2.50249 208.015 2.83648 205.591 4.00547C201.494 6.09294 197.648 11.1864 196.729 15.0273Z" fill="#F18B42"/>
<path fill-rule="evenodd" clip-rule="evenodd" d="M241.877 62.9552C241.877 62.9552 245.555 40.327 221.393 29.6391C195.307 18.0327 182.683 39.0745 181.763 40.4105C173.402 51.6828 167.8 70.4701 179.756 85.3329C193.05 101.949 212.53 94.4343 212.53 94.4343C212.53 94.4343 237.947 86.5019 241.877 62.9552Z" fill="#F2A45E"/>
<path fill-rule="evenodd" clip-rule="evenodd" d="M241.877 62.9552C241.877 62.9552 245.555 40.327 221.393 29.6391C195.307 18.0327 182.683 39.0745 181.763 40.4105C173.402 51.6828 167.8 70.4701 179.756 85.3329C193.05 101.949 212.53 94.4343 212.53 94.4343C212.53 94.4343 237.947 86.5019 241.877 62.9552Z" stroke="#D56344" stroke-width="2.683" stroke-miterlimit="10"/>
<path fill-rule="evenodd" clip-rule="evenodd" d="M200.994 55.0246C193.636 52.7701 185.275 51.4342 177.918 49.1797C172.316 60.786 172.483 73.8954 179.924 83.9153C190.041 97.5256 206.428 97.6091 220.307 89.5932C202.415 97.7761 182.851 91.0127 179.005 71.6409C178.252 68.0505 178.42 64.293 179.172 60.4521C179.674 57.8636 181.429 56.1101 184.857 57.6131C188.954 59.2831 194.221 59.7006 200.994 55.0246Z" fill="#F18B42"/>
<path fill-rule="evenodd" clip-rule="evenodd" d="M182.516 62.7886C182.851 60.2836 184.941 58.0292 187.366 59.8661C188.202 60.5341 189.038 61.6196 190.125 63.2061C197.148 73.6435 205.676 80.7409 218.718 78.9874C219.638 78.8204 220.809 78.4029 219.22 80.4904C214.705 83.7469 208.602 84.0809 202.331 82.6614C199.823 82.0769 199.321 82.1604 196.813 82.6614C195.308 82.9954 191.211 83.7469 187.616 80.2399C183.185 75.731 182.098 68.55 182.516 62.7886Z" fill="#F18B42"/>
<path fill-rule="evenodd" clip-rule="evenodd" d="M209.605 27.3008C218.969 28.6368 228.083 33.7302 232.096 38.2391C231.26 40.2431 230.424 42.3306 229.504 44.3346C226.411 46.2551 219.471 57.1099 216.378 59.0304C215.542 51.098 220.391 46.0046 223.317 44.3346C227.163 42.2471 224.822 42.3306 226.411 38.9071C226.996 37.7382 225.909 36.7362 224.32 35.5672C221.645 33.5632 216.043 29.3883 209.605 27.3008Z" fill="#F18B42"/>
<path fill-rule="evenodd" clip-rule="evenodd" d="M241.376 49.7628C242.63 45.0034 239.369 38.9915 235.941 37.572C234.52 36.9875 233.182 37.4885 232.095 38.24C228.835 40.4944 229.336 43.7509 232.095 46.4229C235.523 49.8463 241.376 49.7628 241.376 49.7628Z" fill="#B83932" stroke="#8C1A14" stroke-width="3.0328" stroke-miterlimit="10"/>
<path fill-rule="evenodd" clip-rule="evenodd" d="M231.593 43.834C232.596 43.7506 233.265 43.834 234.519 43.834C233.265 41.3291 235.606 38.9911 237.613 40.5776C236.275 38.8241 234.352 37.9056 232.429 39.4086C231.175 40.3271 230.59 42.1641 231.593 43.834Z" fill="#A12822"/>
<path fill-rule="evenodd" clip-rule="evenodd" d="M211.527 61.2021C207.681 56.5261 201.327 56.1921 198.317 58.7806C194.053 62.4546 195.224 66.546 198.317 69.9695C201.411 73.4764 207.598 77.4844 213.116 77.5679C219.721 77.6514 217.631 68.6335 211.527 61.2021Z" fill="#F8B981"/>
<path fill-rule="evenodd" clip-rule="evenodd" d="M223.316 82.0792C224.319 81.3277 223.399 80.1587 222.396 80.9102L222.145 81.1607C221.142 81.9122 222.062 83.0812 223.065 82.3297L223.316 82.0792ZM219.804 82.7472C221.058 82.0792 221.811 83.0812 220.64 83.9997C214.537 88.7591 204.755 91.5981 195.056 87.0891C193.133 86.1706 192.381 85.3357 193.217 84.8347C194.387 83.9997 198.401 84.3337 199.822 84.5842C207.765 86.4211 213.199 86.2541 219.804 82.7472Z" fill="#F8B981"/>
<path fill-rule="evenodd" clip-rule="evenodd" d="M192.633 29.8076C195.894 26.3841 200.826 23.1277 205.676 25.0481C211.026 27.1356 212.615 35.1515 204.505 33.6485C197.482 32.3961 193.803 32.8136 193.803 32.8136L192.633 29.8076Z" fill="#B83932" stroke="#8C1A14" stroke-width="3.0328" stroke-miterlimit="10"/>
<path fill-rule="evenodd" clip-rule="evenodd" d="M198.82 26.7186C200.074 27.3031 201.412 28.1381 202.499 29.0566C203.001 27.6371 204.84 26.3846 205.927 26.5516C203.92 25.3826 201.496 25.1321 198.82 26.7186Z" fill="#A12822"/>
<path fill-rule="evenodd" clip-rule="evenodd" d="M247.145 40.9954C254.335 45.2538 255.004 37.4884 254.586 32.228C253.75 21.6236 246.81 17.0311 244.804 15.7787C243.131 14.6932 239.202 13.5242 238.282 16.1127C238.031 16.6971 238.199 17.4486 238.366 18.2001C239.62 23.2936 239.704 26.049 239.871 31.1425C239.954 35.5679 243.466 38.7409 247.145 40.9954Z" fill="#F2A45E" stroke="#D56344" stroke-width="3.0328" stroke-miterlimit="10"/>
<path fill-rule="evenodd" clip-rule="evenodd" d="M247.898 19.8688C245.808 17.9483 241.376 15.7773 242.212 19.1173C242.965 22.1233 243.467 26.2147 243.467 29.9722C243.55 34.7316 245.891 38.7396 250.406 40.9105C248.734 40.9105 244.219 37.9881 242.38 35.0656C241.46 33.5626 241.126 32.3101 241.126 30.3062C241.042 28.4692 240.958 25.0457 240.54 22.3738C240.206 20.5368 239.788 19.0338 239.621 17.9483C239.37 16.8628 239.37 15.8608 240.791 15.7773C243.299 15.7773 246.226 18.1153 247.898 19.8688Z" fill="#F18B42"/>
<path fill-rule="evenodd" clip-rule="evenodd" d="M201.243 78.0711C192.381 86.922 181.763 76.7351 183.518 64.1267C183.936 61.3713 185.692 61.1208 187.114 63.4588C189.204 66.7152 194.387 74.8981 201.243 78.0711Z" fill="#85142C"/>
<path fill-rule="evenodd" clip-rule="evenodd" d="M196.061 79.9066C195.308 77.2346 192.048 72.9762 188.62 71.8072C188.453 71.7237 190.041 73.1432 191.044 74.7297C191.797 75.9822 191.379 75.3977 190.794 74.7297C187.449 71.3897 185.861 70.3877 184.857 69.8867C186.53 76.8171 190.71 81.7436 196.061 79.9066Z" fill="#BF1937"/>
<path fill-rule="evenodd" clip-rule="evenodd" d="M198.986 78.3199C190.625 84.6658 184.02 73.7275 184.605 65.4611C184.689 64.2086 185.274 62.4551 186.445 64.7096C189.622 70.7215 192.966 75.2304 198.986 78.3199ZM219.971 80.3239C220.891 79.8229 220.64 78.9044 219.553 78.9879C219.052 78.9879 218.299 79.2384 217.797 79.3219C209.269 80.9919 201.076 77.8189 195.056 71.8905C192.13 68.8845 189.705 65.2941 187.782 62.2046C185.692 58.8646 182.766 59.9501 182.181 63.8746C180.509 75.7314 189.12 88.5068 200.742 79.0714C208.015 82.6618 214.788 81.5764 217.965 80.8249C218.466 80.7414 219.553 80.4909 219.971 80.3239Z" fill="#85142C"/>
<path d="M201.437 53.0961C207.992 47.9177 209.102 38.4128 203.917 31.8664C198.732 25.32 189.215 24.2109 182.66 29.3893C176.105 34.5677 174.994 44.0726 180.18 50.619C185.365 57.1654 194.882 58.2745 201.437 53.0961Z" fill="white"/>
<path fill-rule="evenodd" clip-rule="evenodd" d="M181.847 28.3862C178.335 31.2252 176.245 35.1497 175.743 39.3246C175.242 43.4996 176.328 47.8415 179.171 51.3485C182.014 54.8554 185.943 56.9429 190.124 57.4439H190.207C194.304 57.8614 198.652 56.7759 202.163 54.0204L202.247 53.9369C205.758 51.098 207.848 47.1735 208.35 42.9986V42.9151C208.768 38.8236 207.681 34.4817 204.922 30.9747C202.08 27.4677 198.15 25.3803 193.97 24.8793C189.789 24.4618 185.442 25.6308 181.847 28.3862Z" fill="#B594A0"/>
<path fill-rule="evenodd" clip-rule="evenodd" d="M178.252 39.6621C178.67 36.1552 180.425 32.8152 183.435 30.3937C186.445 28.0558 190.124 27.0538 193.635 27.4713C197.147 27.8888 200.491 29.6422 202.832 32.5647L202.916 32.6482C205.257 35.5707 206.177 39.2446 205.759 42.6681V42.7516C205.34 46.2585 203.585 49.5985 200.658 51.9365L200.575 52.02C197.649 54.3579 193.97 55.2764 190.542 54.8589H190.458C186.947 54.4414 183.603 52.688 181.262 49.7655L181.178 49.682C178.753 46.843 177.834 43.1691 178.252 39.6621Z" fill="white"/>
<path fill-rule="evenodd" clip-rule="evenodd" d="M178.252 39.6621C178.67 36.1552 180.426 32.8152 183.436 30.3937C186.445 28.0558 190.124 27.0538 193.636 27.4713C194.89 27.6383 196.144 27.9723 197.314 28.3898C194.221 28.3063 191.128 29.3082 188.452 31.3957C185.442 33.7337 183.686 37.1572 183.268 40.6641C182.85 44.1711 183.77 47.845 186.111 50.851L186.195 50.9345C187.7 52.855 189.623 54.2745 191.796 55.1094C191.378 55.1094 190.96 55.1094 190.459 55.0259H190.375C186.864 54.6084 183.519 52.855 181.178 49.9325L181.095 49.849C178.754 46.843 177.834 43.1691 178.252 39.6621Z" fill="#E6E6E6"/>
<path fill-rule="evenodd" clip-rule="evenodd" d="M221.895 88.6725C226.577 86.0005 232.513 80.9071 235.105 76.3146C229.587 76.8156 225.072 75.2291 221.393 71.9727C221.226 72.6406 222.062 75.6466 225.657 76.8156C233.014 79.2371 226.159 85.3325 221.895 88.6725Z" fill="#F18B42"/>
<path fill-rule="evenodd" clip-rule="evenodd" d="M224.82 76.8998C225.824 77.6513 226.66 76.3988 225.656 75.6473C225.656 75.6473 216.376 68.8839 218.884 57.361C218.968 56.86 218.633 56.3591 218.132 56.1921C217.63 56.1086 216.627 57.194 216.543 57.695C213.784 70.4704 224.737 76.8998 224.82 76.8998Z" fill="#DC7545"/>
<path d="M242.134 71.8969C248.689 66.7185 249.799 57.2136 244.614 50.6672C239.429 44.1207 229.912 43.0117 223.357 48.1901C216.802 53.3685 215.692 62.8733 220.877 69.4198C226.062 75.9662 235.579 77.0752 242.134 71.8969Z" fill="white"/>
<path fill-rule="evenodd" clip-rule="evenodd" d="M222.563 47.2573C219.052 50.0963 216.962 54.0208 216.46 58.1957C215.958 62.3707 217.045 66.7126 219.888 70.2196C222.731 73.7265 226.66 75.814 230.84 76.315H230.924C235.021 76.7325 239.368 75.647 242.88 72.8915L242.964 72.808C246.475 69.9691 248.565 66.0446 249.067 61.8697V61.7862C249.485 57.6947 248.398 53.3528 245.639 49.8458C242.796 46.3388 238.867 44.2514 234.686 43.7504C230.506 43.3329 226.158 44.4184 222.563 47.2573Z" fill="#B594A0"/>
<path fill-rule="evenodd" clip-rule="evenodd" d="M218.968 58.4473C219.386 54.9403 221.142 51.6004 224.152 49.1789C227.162 46.8409 230.841 45.8389 234.352 46.2564C237.864 46.6739 241.208 48.4274 243.549 51.3499L243.633 51.4334C245.974 54.4393 246.893 58.0298 246.475 61.4532V61.5367C246.057 65.0437 244.302 68.3837 241.375 70.7216L241.292 70.8051C238.365 73.1431 234.687 74.0616 231.259 73.6441H231.175C227.664 73.2266 224.319 71.4731 221.978 68.5507L221.895 68.4672C219.47 65.6282 218.55 61.9542 218.968 58.4473Z" fill="white"/>
<path fill-rule="evenodd" clip-rule="evenodd" d="M218.969 58.4473C219.387 54.9403 221.143 51.6004 224.152 49.1789C227.162 46.8409 230.841 45.8389 234.353 46.2564C235.607 46.4234 236.861 46.7574 238.031 47.1749C234.938 47.0914 231.844 48.0934 229.169 50.1809C226.159 52.5188 224.403 55.9423 223.985 59.4493C223.567 62.9562 224.487 66.6302 226.828 69.6362L226.911 69.7196C228.416 71.6401 230.339 73.0596 232.513 73.8946C232.095 73.8946 231.677 73.8946 231.175 73.8111H231.092C227.58 73.3936 224.236 71.6401 221.895 68.7177L221.811 68.6342C219.47 65.6282 218.551 61.9542 218.969 58.4473Z" fill="#E6E6E6"/>
<path d="M191.492 46.8003C193.695 45.1216 194.117 41.9778 192.437 39.7783C190.756 37.5789 187.608 37.1568 185.406 38.8355C183.203 40.5142 182.781 43.658 184.461 45.8574C186.142 48.0568 189.29 48.479 191.492 46.8003Z" stroke="#3A3E8C" stroke-width="5.3665" stroke-miterlimit="22.9256"/>
<path fill-rule="evenodd" clip-rule="evenodd" d="M184.189 40.1619C183.102 41.9153 183.185 44.1698 184.439 45.8398C185.526 47.3428 187.366 48.0108 189.038 47.7603C190.125 46.0068 190.041 43.7523 188.787 42.0823C187.7 40.6628 185.861 39.9949 184.189 40.1619Z" fill="#5464D9"/>
<path d="M190.297 45.3342C191.691 44.271 191.959 42.2799 190.894 40.887C189.83 39.494 187.836 39.2266 186.441 40.2898C185.047 41.353 184.779 43.3441 185.844 44.737C186.908 46.13 188.902 46.3973 190.297 45.3342Z" fill="#333791"/>
<path d="M192.575 43.5467C192.873 42.1955 192.236 40.9075 191.154 40.6699C190.072 40.4322 188.953 41.335 188.656 42.6862C188.358 44.0374 188.995 45.3254 190.077 45.5631C191.159 45.8007 192.278 44.8979 192.575 43.5467Z" fill="#FEFEFE"/>
<path d="M186.262 42.6167C186.31 42.0655 186.014 41.5893 185.6 41.5533C185.186 41.5172 184.811 41.9349 184.763 42.4862C184.715 43.0375 185.011 43.5136 185.425 43.5497C185.839 43.5857 186.214 43.168 186.262 42.6167Z" fill="#5464D9"/>
<path d="M232.201 66.6675C234.404 64.9888 234.826 61.8449 233.146 59.6455C231.465 57.4461 228.317 57.024 226.115 58.7027C223.912 60.3813 223.49 63.5252 225.17 65.7246C226.851 67.924 229.999 68.3461 232.201 66.6675Z" stroke="#3A3E8C" stroke-width="5.3665" stroke-miterlimit="22.9256"/>
<path fill-rule="evenodd" clip-rule="evenodd" d="M224.905 60.0329C223.818 61.7864 223.902 64.0409 225.156 65.7109C226.243 67.2139 228.082 67.8818 229.755 67.6314C230.842 65.8779 230.758 63.6234 229.504 61.9534C228.417 60.5339 226.578 59.8659 224.905 60.0329Z" fill="#5464D9"/>
<path d="M231.027 65.2059C232.422 64.1427 232.69 62.1515 231.626 60.7584C230.561 59.3652 228.567 59.0977 227.172 60.1609C225.777 61.2241 225.509 63.2153 226.574 64.6084C227.639 66.0016 229.632 66.2691 231.027 65.2059Z" fill="#333791"/>
<path d="M233.27 63.4174C233.568 62.0662 232.931 60.7783 231.849 60.5407C230.766 60.3032 229.648 61.2061 229.351 62.5573C229.053 63.9085 229.69 65.1964 230.772 65.434C231.855 65.6715 232.973 64.7686 233.27 63.4174Z" fill="#FEFEFE"/>
<path d="M226.967 62.475C227.014 61.9237 226.718 61.4478 226.304 61.412C225.889 61.3762 225.515 61.7941 225.467 62.3455C225.42 62.8968 225.717 63.3728 226.131 63.4085C226.545 63.4443 226.919 63.0264 226.967 62.475Z" fill="#5464D9"/>
</g>
<defs>
<clipPath id="clip0">
<rect width="305" height="252" fill="white"/>
</clipPath>
</defs>
</svg>
