<svg width="46" height="46" viewBox="0 0 46 46" fill="none" xmlns="http://www.w3.org/2000/svg">
<circle cx="23" cy="23" r="23" fill="#006DB3"/>
<g clip-path="url(#clip0)">
<path d="M31.9959 32.0002V31.9994H32.0004V25.3979C32.0004 22.1684 31.3052 19.6807 27.5297 19.6807C25.7147 19.6807 24.4967 20.6767 23.9994 21.6209H23.9469V19.9822H20.3672V31.9994H24.0947V26.0489C24.0947 24.4822 24.3917 22.9672 26.3319 22.9672C28.2437 22.9672 28.2722 24.7552 28.2722 26.1494V32.0002H31.9959Z" fill="white"/>
<path d="M14.2969 19.9829H18.0289V32.0002H14.2969V19.9829Z" fill="white"/>
<path d="M16.1615 14C14.9683 14 14 14.9683 14 16.1615C14 17.3548 14.9683 18.3433 16.1615 18.3433C17.3547 18.3433 18.323 17.3548 18.323 16.1615C18.3222 14.9683 17.354 14 16.1615 14V14Z" fill="white"/>
</g>
<defs>
<clipPath id="clip0">
<rect width="18" height="18" fill="white" transform="translate(14 14)"/>
</clipPath>
</defs>
</svg>
