<svg width="41" height="40" viewBox="0 0 41 40" fill="none" xmlns="http://www.w3.org/2000/svg">
<circle cx="20.2637" cy="20" r="20" transform="rotate(-90 20.2637 20)" fill="url(#paint0_linear)"/>
<g clip-path="url(#clip0)">
<path d="M23.2964 11.4514H16.7746C13.7735 11.4514 11.3398 13.8851 11.3398 16.8862V23.4079C11.3398 26.409 13.7735 28.8427 16.7746 28.8427H23.2964C26.2975 28.8427 28.7311 26.409 28.7311 23.4079V16.8862C28.7311 13.8851 26.2975 11.4514 23.2964 11.4514ZM27.1007 23.4079C27.1007 25.5058 25.3942 27.2123 23.2964 27.2123H16.7746C14.6768 27.2123 12.9703 25.5058 12.9703 23.4079V16.8862C12.9703 14.7884 14.6768 13.0819 16.7746 13.0819H23.2964C25.3942 13.0819 27.1007 14.7884 27.1007 16.8862V23.4079Z" fill="white"/>
<path d="M20.0353 15.7993C17.6342 15.7993 15.6875 17.7461 15.6875 20.1471C15.6875 22.5482 17.6342 24.495 20.0353 24.495C22.4364 24.495 24.3832 22.5482 24.3832 20.1471C24.3832 17.7461 22.4364 15.7993 20.0353 15.7993ZM20.0353 22.8645C18.5375 22.8645 17.3179 21.645 17.3179 20.1471C17.3179 18.6482 18.5375 17.4298 20.0353 17.4298C21.5332 17.4298 22.7527 18.6482 22.7527 20.1471C22.7527 21.645 21.5332 22.8645 20.0353 22.8645Z" fill="white"/>
<path d="M24.7102 16.0522C25.0302 16.0522 25.2896 15.7929 25.2896 15.4729C25.2896 15.1529 25.0302 14.8936 24.7102 14.8936C24.3902 14.8936 24.1309 15.1529 24.1309 15.4729C24.1309 15.7929 24.3902 16.0522 24.7102 16.0522Z" fill="white"/>
</g>
<defs>
<linearGradient id="paint0_linear" x1="20.2637" y1="3.8147e-06" x2="20.2637" y2="40" gradientUnits="userSpaceOnUse">
<stop stop-color="#FFC150"/>
<stop offset="0.526042" stop-color="#FE5440"/>
<stop offset="1" stop-color="#CB39A5"/>
</linearGradient>
<clipPath id="clip0">
<rect width="17.3913" height="17.3913" fill="white" transform="translate(11.3398 11.4514)"/>
</clipPath>
</defs>
</svg>
