<svg width="46" height="46" viewBox="0 0 46 46" fill="none" xmlns="http://www.w3.org/2000/svg">
<circle cx="23" cy="23" r="23" fill="#03A9F4"/>
<g clip-path="url(#clip0)">
<path d="M33 16.7988C32.2563 17.125 31.4637 17.3412 30.6375 17.4462C31.4875 16.9388 32.1363 16.1412 32.4412 15.18C31.6488 15.6525 30.7738 15.9863 29.8412 16.1725C29.0887 15.3713 28.0162 14.875 26.8462 14.875C24.5763 14.875 22.7487 16.7175 22.7487 18.9763C22.7487 19.3012 22.7762 19.6137 22.8438 19.9112C19.435 19.745 16.4188 18.1113 14.3925 15.6225C14.0387 16.2363 13.8313 16.9388 13.8313 17.695C13.8313 19.115 14.5625 20.3737 15.6525 21.1025C14.9937 21.09 14.3475 20.8988 13.8 20.5975C13.8 20.61 13.8 20.6262 13.8 20.6425C13.8 22.635 15.2212 24.29 17.085 24.6712C16.7512 24.7625 16.3875 24.8062 16.01 24.8062C15.7475 24.8062 15.4825 24.7913 15.2337 24.7362C15.765 26.36 17.2725 27.5538 19.065 27.5925C17.67 28.6838 15.8988 29.3412 13.9813 29.3412C13.645 29.3412 13.3225 29.3263 13 29.285C14.8162 30.4563 16.9688 31.125 19.29 31.125C26.835 31.125 30.96 24.875 30.96 19.4575C30.96 19.2762 30.9538 19.1013 30.945 18.9275C31.7588 18.35 32.4425 17.6288 33 16.7988Z" fill="white"/>
</g>
<defs>
<clipPath id="clip0">
<rect width="20" height="20" fill="white" transform="translate(13 13)"/>
</clipPath>
</defs>
</svg>
