<svg width="20" height="20" viewBox="0 0 20 20" fill="none" xmlns="http://www.w3.org/2000/svg">
<path d="M19.4872 16.226L3.81314 0.551998C3.12955 -0.131591 2.02128 -0.131591 1.33876 0.551998L0.512691 1.37679C-0.170897 2.06059 -0.170897 3.16886 0.512691 3.85138L16.1867 19.5254C16.8705 20.209 17.9788 20.209 18.6613 19.5254L19.4861 18.7006C20.171 18.0181 20.171 16.9096 19.4872 16.226Z" fill="#E51670"/>
<path d="M16.1867 0.551838L0.51269 16.2259C-0.170897 16.9095 -0.170897 18.018 0.51269 18.7005L1.33748 19.5253C2.02128 20.2089 3.12955 20.2089 3.81207 19.5253L19.4872 3.85229C20.171 3.1687 20.171 2.06043 19.4872 1.37791L18.6624 0.55312C17.9788 -0.131751 16.8705 -0.131751 16.1867 0.551838Z" fill="#E51670"/>
</svg>
