<svg width="14" height="19" viewBox="0 0 14 19" fill="none" xmlns="http://www.w3.org/2000/svg">
<path d="M9.3822 6.71338C9.15923 6.71338 8.97852 6.90765 8.97852 7.14734V15.3493C8.97852 15.5888 9.15923 15.7832 9.3822 15.7832C9.60518 15.7832 9.78589 15.5888 9.78589 15.3493V7.14734C9.78589 6.90765 9.60518 6.71338 9.3822 6.71338Z" fill="white"/>
<path d="M4.61853 6.71338C4.39556 6.71338 4.21484 6.90765 4.21484 7.14734V15.3493C4.21484 15.5888 4.39556 15.7832 4.61853 15.7832C4.84151 15.7832 5.02222 15.5888 5.02222 15.3493V7.14734C5.02222 6.90765 4.84151 6.71338 4.61853 6.71338Z" fill="white"/>
<path d="M1.14654 5.51665V16.2086C1.14654 16.8406 1.3621 17.434 1.73866 17.8599C2.11349 18.2869 2.63513 18.5293 3.18106 18.5303H10.8189C11.365 18.5293 11.8867 18.2869 12.2613 17.8599C12.6379 17.434 12.8535 16.8406 12.8535 16.2086V5.51665C13.602 5.30306 14.0871 4.52565 13.9869 3.69994C13.8867 2.87439 13.2324 2.25684 12.4578 2.25667H10.391V1.71421C10.3933 1.25804 10.2256 0.820011 9.92515 0.497759C9.62475 0.175677 9.21665 -0.00367235 8.79231 5.70193e-05H5.20769C4.78335 -0.00367235 4.37525 0.175677 4.07485 0.497759C3.77445 0.820011 3.60666 1.25804 3.60903 1.71421V2.25667H1.54218C0.767607 2.25684 0.113351 2.87439 0.0130595 3.69994C-0.0870738 4.52565 0.397981 5.30306 1.14654 5.51665ZM10.8189 17.6624H3.18106C2.49085 17.6624 1.95391 17.025 1.95391 16.2086V5.55479H12.0461V16.2086C12.0461 17.025 11.5092 17.6624 10.8189 17.6624ZM4.4164 1.71421C4.41372 1.48825 4.49635 1.27076 4.64553 1.11124C4.79454 0.951726 4.99733 0.864085 5.20769 0.867984H8.79231C9.00267 0.864085 9.20546 0.951726 9.35447 1.11124C9.50365 1.27059 9.58628 1.48825 9.5836 1.71421V2.25667H4.4164V1.71421ZM1.54218 3.12459H12.4578C12.8591 3.12459 13.1845 3.47431 13.1845 3.90573C13.1845 4.33715 12.8591 4.68686 12.4578 4.68686H1.54218C1.14086 4.68686 0.815545 4.33715 0.815545 3.90573C0.815545 3.47431 1.14086 3.12459 1.54218 3.12459Z" fill="white"/>
<path d="M7.00134 6.71338C6.77837 6.71338 6.59766 6.90765 6.59766 7.14734V15.3493C6.59766 15.5888 6.77837 15.7832 7.00134 15.7832C7.22431 15.7832 7.40503 15.5888 7.40503 15.3493V7.14734C7.40503 6.90765 7.22431 6.71338 7.00134 6.71338Z" fill="white"/>
</svg>
