<svg width="14" height="14" viewBox="0 0 14 14" fill="none" xmlns="http://www.w3.org/2000/svg">
<path d="M12.8107 0.629021C11.972 -0.209674 10.6123 -0.209674 9.7736 0.629021L1.25952 9.1431C1.20117 9.20145 1.15904 9.27378 1.13704 9.35319L0.0174146 13.3953C-0.0286307 13.561 0.0181602 13.7385 0.139705 13.8602C0.261436 13.9818 0.438906 14.0286 0.604631 13.9827L4.64673 12.8629C4.72615 12.8409 4.79848 12.7988 4.85682 12.7404L13.3707 4.22614C14.2081 3.38689 14.2081 2.02827 13.3707 1.18902L12.8107 0.629021ZM2.29936 9.4533L9.26747 2.485L11.5147 4.73227L4.54644 11.7006L2.29936 9.4533ZM1.85046 10.3541L3.64585 12.1496L1.16239 12.8377L1.85046 10.3541ZM12.6959 3.55131L12.1898 4.05743L9.94231 1.80998L10.4486 1.30385C10.9145 0.837995 11.6698 0.837995 12.1357 1.30385L12.6959 1.86385C13.161 2.33027 13.161 3.08508 12.6959 3.55131Z" fill="#7958AB"/>
</svg>
