<svg width="15" height="16" viewBox="0 0 15 16" fill="none" xmlns="http://www.w3.org/2000/svg">
<path d="M13.727 0.718881C12.8283 -0.239627 11.3713 -0.239627 10.4726 0.718881L1.3496 10.4493C1.28708 10.5159 1.24194 10.5986 1.21837 10.6894L0.0186601 15.3089C-0.0306784 15.4983 0.0194591 15.7011 0.149697 15.8403C0.280134 15.9792 0.470298 16.0326 0.647876 15.9802L4.97908 14.7004C5.06418 14.6753 5.14168 14.6271 5.2042 14.5605L14.327 4.82987C15.2243 3.87073 15.2243 2.31803 14.327 1.35888L13.727 0.718881ZM2.46381 10.8038L9.93032 2.84L12.3383 5.4083L4.87162 13.3721L2.46381 10.8038ZM1.98281 11.8332L3.90662 13.8853L1.24553 14.6717L1.98281 11.8332ZM13.6039 4.05864L13.0616 4.63707L10.6534 2.06855L11.1959 1.49012C11.6951 0.957709 12.5045 0.957709 13.0037 1.49012L13.6039 2.13012C14.1023 2.66317 14.1023 3.5258 13.6039 4.05864Z" fill="white"/>
</svg>
