<svg width="20" height="21" viewBox="0 0 20 21" fill="none" xmlns="http://www.w3.org/2000/svg">
<path d="M18.3026 0.941474C17.1044 -0.313825 15.1618 -0.313825 13.9635 0.941474L1.79947 13.6848C1.71611 13.7721 1.65592 13.8803 1.62449 13.9992L0.0248802 20.0491C-0.0409046 20.2972 0.0259454 20.5628 0.199596 20.745C0.373513 20.9269 0.627063 20.997 0.863835 20.9283L6.63878 19.2523C6.75223 19.2193 6.85557 19.1563 6.93894 19.069L19.1027 6.32539C20.2991 5.06926 20.2991 3.03578 19.1027 1.77964L18.3026 0.941474ZM3.28509 14.149L13.2404 3.71937L16.4511 7.08292L6.49549 17.5126L3.28509 14.149ZM2.64375 15.4973L5.20882 18.1847L1.66071 19.2146L2.64375 15.4973ZM18.1386 5.31535L17.4155 6.07288L14.2046 2.70905L14.9279 1.95152C15.5935 1.25425 16.6727 1.25425 17.3382 1.95152L18.1386 2.78969C18.8031 3.48779 18.8031 4.61753 18.1386 5.31535Z" fill="black" fill-opacity="0.3"/>
</svg>
