<svg width="15" height="15" viewBox="0 0 15 15" fill="none" xmlns="http://www.w3.org/2000/svg">
<path d="M7.5 10.625C7.24125 10.625 7.03125 10.415 7.03125 10.1563V0.46875C7.03125 0.209999 7.24125 0 7.5 0C7.75875 0 7.96875 0.209999 7.96875 0.46875V10.1563C7.96875 10.415 7.75875 10.625 7.5 10.625Z" fill="#3F0F3F"/>
<path d="M7.49997 10.625C7.37992 10.625 7.25999 10.5794 7.16866 10.4875L4.6687 7.98753C4.4856 7.80442 4.4856 7.50756 4.6687 7.32434C4.85181 7.14124 5.14867 7.14124 5.33189 7.32434L7.50054 9.49311L9.66931 7.32434C9.85242 7.14124 10.1494 7.14124 10.3325 7.32434C10.5156 7.50756 10.5156 7.80442 10.3325 7.98753L7.83242 10.4875C7.73995 10.5794 7.62002 10.625 7.49997 10.625Z" fill="#3F0F3F"/>
<path d="M13.2812 15H1.71879C0.770645 15 0 14.2294 0 13.2812V10.4687C0 10.21 0.209999 9.99997 0.46875 9.99997C0.727501 9.99997 0.9375 10.21 0.9375 10.4687V13.2812C0.9375 13.7119 1.28815 14.0625 1.71879 14.0625H13.2812C13.7119 14.0625 14.0625 13.7119 14.0625 13.2812V10.4687C14.0625 10.21 14.2725 9.99997 14.5312 9.99997C14.79 9.99997 15 10.21 15 10.4687V13.2812C15 14.2294 14.2294 15 13.2812 15Z" fill="#3F0F3F"/>
</svg>
