<svg width="14" height="16" viewBox="0 0 14 16" fill="none" xmlns="http://www.w3.org/2000/svg">
<path d="M12.2505 2.0963H10.6941V1.44874C10.6941 1.23923 10.4483 1.14401 10.2231 1.14401H9.01484C8.72814 0.382157 8.01137 0.00123321 7.19221 0.00123321C6.38207 -0.0270928 5.64518 0.434909 5.36958 1.14401H4.18181C3.95654 1.14401 3.73126 1.23923 3.73126 1.44874V2.0963H2.17483C1.2525 2.10545 0.497943 2.78214 0.45459 3.63902V14.5525C0.45459 15.3905 1.27375 16 2.17483 16H12.2505C13.1516 16 13.9707 15.3905 13.9707 14.5525V3.63906C13.9274 2.78214 13.1728 2.10545 12.2505 2.0963ZM4.55038 1.90585H5.67674C5.87335 1.88354 6.03128 1.74443 6.06586 1.56303C6.18713 1.07182 6.65049 0.719225 7.19221 0.705956C7.72891 0.721085 8.18529 1.07478 8.29806 1.56303C8.33479 1.7507 8.50315 1.8916 8.70764 1.90585H9.87496V3.42955H4.55038V1.90585ZM13.1516 14.5525C13.1516 14.9715 12.701 15.2382 12.2505 15.2382H2.17483C1.72429 15.2382 1.27375 14.9715 1.27375 14.5525V3.63906C1.31553 3.20291 1.70406 2.86617 2.17483 2.85818H3.73123V3.82954C3.75286 4.04295 3.9516 4.20259 4.18177 4.19143H10.223C10.4574 4.20336 10.6624 4.0459 10.694 3.82954V2.85815H12.2504C12.7212 2.86617 13.1097 3.20287 13.1515 3.63902V14.5525H13.1516Z" fill="black" fill-opacity="0.3"/>
<path d="M5.63576 8.51475C5.48214 8.36416 5.22712 8.35566 5.06233 8.49572L3.75167 9.65752L3.19875 9.12421C3.04513 8.97362 2.79011 8.96516 2.62532 9.10518C2.46669 9.25975 2.46669 9.50295 2.62532 9.65752L3.46494 10.4575C3.53761 10.5331 3.64259 10.575 3.75163 10.5717C3.85966 10.5703 3.96272 10.5292 4.03833 10.4575L5.63568 9.04806C5.79404 8.91295 5.80462 8.68401 5.65932 8.53677C5.65187 8.52908 5.64399 8.52175 5.63576 8.51475Z" fill="black" fill-opacity="0.3"/>
<path d="M11.5133 9.33374H6.80313C6.57692 9.33374 6.39355 9.50428 6.39355 9.71466C6.39355 9.92505 6.57692 10.0956 6.80313 10.0956H11.5133C11.7395 10.0956 11.9229 9.92505 11.9229 9.71466C11.9229 9.50428 11.7395 9.33374 11.5133 9.33374Z" fill="black" fill-opacity="0.3"/>
<path d="M5.63576 5.46739C5.48214 5.31679 5.22712 5.3083 5.06233 5.44836L3.75167 6.61016L3.19875 6.07685C3.04513 5.92626 2.79011 5.91776 2.62532 6.05782C2.46669 6.2124 2.46669 6.45559 2.62532 6.61016L3.46494 7.41011C3.53761 7.48579 3.64259 7.52764 3.75163 7.5244C3.85966 7.52297 3.96272 7.48189 4.03833 7.41011L5.63568 6.0007C5.79404 5.86559 5.80462 5.63665 5.65932 5.48941C5.65187 5.48172 5.64399 5.47439 5.63576 5.46739Z" fill="black" fill-opacity="0.3"/>
<path d="M11.5133 6.28638H6.80313C6.57692 6.28638 6.39355 6.45692 6.39355 6.6673C6.39355 6.87769 6.57692 7.04822 6.80313 7.04822H11.5133C11.7395 7.04822 11.9229 6.87769 11.9229 6.6673C11.9229 6.45692 11.7395 6.28638 11.5133 6.28638Z" fill="black" fill-opacity="0.3"/>
<path d="M5.63576 11.5621C5.48214 11.4115 5.22712 11.403 5.06233 11.5431L3.75167 12.7049L3.19875 12.1716C3.04513 12.021 2.79011 12.0125 2.62532 12.1525C2.46669 12.3071 2.46669 12.5503 2.62532 12.7049L3.46494 13.5048C3.53761 13.5805 3.64259 13.6224 3.75163 13.6191C3.85966 13.6177 3.96272 13.5766 4.03833 13.5048L5.63568 12.0954C5.79404 11.9603 5.80462 11.7314 5.65932 11.5841C5.65187 11.5765 5.64399 11.5691 5.63576 11.5621Z" fill="black" fill-opacity="0.3"/>
<path d="M11.5133 12.3811H6.80313C6.57692 12.3811 6.39355 12.5516 6.39355 12.762C6.39355 12.9724 6.57692 13.143 6.80313 13.143H11.5133C11.7395 13.143 11.9229 12.9724 11.9229 12.762C11.9229 12.5516 11.7395 12.3811 11.5133 12.3811Z" fill="black" fill-opacity="0.3"/>
</svg>
