<svg width="20" height="20" viewBox="0 0 20 20" fill="none" xmlns="http://www.w3.org/2000/svg">
<path d="M17.623 2.35762C15.9977 0.742476 13.8475 -0.597851 12.9692 0.276325C12.9015 0.343484 12.8283 0.442092 12.7728 0.574493C12.2018 1.33677 11.8806 2.21226 11.827 3.1357L8.4721 5.57427C6.6747 5.25756 4.8643 5.6119 3.34734 6.55792C2.90445 6.83453 2.66458 7.35305 2.73643 7.87958C3.03506 10.0512 3.97427 12.0201 5.35142 13.5963L0.121608 19.2362C-0.0446278 19.4155 -0.0397698 19.6943 0.133156 19.867C0.221836 19.9558 0.338 20.0002 0.454123 20.0002C0.564961 20.0002 0.675799 19.9598 0.763115 19.8785L6.39511 14.6413C7.96926 16.0203 9.93537 16.9607 12.1038 17.2596C12.1663 17.2684 12.2284 17.2724 12.29 17.2724C12.7484 17.2724 13.1803 17.0393 13.4236 16.6478C14.1459 15.4868 14.5275 14.1523 14.5275 12.788C14.5275 12.3627 14.4791 11.9304 14.402 11.4991L16.8366 8.15661C17.8376 8.09964 18.7836 7.73781 19.5853 7.07529C19.6284 7.04542 19.6793 7.0297 19.7177 6.99156C19.8467 6.86372 20.0001 6.63015 20.0001 6.24347C20.0001 5.31752 19.0674 3.79204 17.623 2.35762Z" fill="#3F0F3F"/>
</svg>
