<svg width="20" height="23" viewBox="0 0 20 23" fill="none" xmlns="http://www.w3.org/2000/svg">
<path d="M10.1032 0.527668C10.0359 0.489478 9.96412 0.489478 9.89681 0.527668L0.677703 5.7658C0.677687 5.76581 0.67767 5.76582 0.677654 5.76583C0.57783 5.82259 0.499068 5.9509 0.499026 6.12612C0.498983 6.30129 0.577622 6.42949 0.677604 6.48628L0.677662 6.48631L3.88972 8.31143L4.65334 8.74533L3.8897 9.17919L0.677703 11.0041C0.677684 11.0041 0.677664 11.0041 0.677645 11.0041C0.577801 11.0609 0.499068 11.1892 0.499026 11.3644C0.498983 11.5395 0.577603 11.6678 0.677703 11.7246L3.88972 13.5497L4.65334 13.9836L3.8897 14.4175L0.677703 16.2424C0.577832 16.2992 0.499068 16.4275 0.499026 16.6027C0.498983 16.7778 0.577578 16.906 0.677654 16.9629C0.67767 16.9629 0.677686 16.9629 0.677703 16.9629L9.89694 22.2012C9.96404 22.2393 10.0356 22.2394 10.1029 22.2012L10.1032 0.527668ZM10.1032 0.527668L19.3223 5.7658C19.3223 5.76581 19.3223 5.76582 19.3223 5.76583C19.4224 5.82272 19.501 5.951 19.501 6.12614C19.5009 6.3014 19.4221 6.42962 19.3224 6.48628L19.3223 6.48631L16.1103 8.31143L15.3467 8.74533L16.1103 9.17919L19.3223 11.0041C19.3223 11.0041 19.3223 11.0041 19.3224 11.0041C19.4224 11.061 19.501 11.1893 19.501 11.3644C19.5009 11.5397 19.4221 11.6679 19.3224 11.7246L19.3223 11.7246L16.1103 13.5497L15.3467 13.9836L16.1103 14.4175L19.3223 16.2424C19.3223 16.2424 19.3223 16.2424 19.3224 16.2424C19.4224 16.2993 19.501 16.4276 19.501 16.6027C19.5009 16.7779 19.4222 16.9061 19.3223 16.9629C19.3223 16.9629 19.3223 16.9629 19.3223 16.9629L10.1031 22.2012L10.1032 0.527668ZM18.4825 16.6028L17.7188 17.0366L10.2465 21.2822L10 21.4223L9.75348 21.2822L2.28117 17.0366L1.51755 16.6028L2.28115 16.1689L5.14376 14.5423L5.39028 14.4022L5.63681 14.5423L9.89681 16.9628L18.4825 16.6028ZM18.4825 16.6028L17.7188 16.1689M18.4825 16.6028L17.7188 16.1689M17.7188 16.1689L14.8562 14.5423L14.6097 14.4022M17.7188 16.1689L14.6097 14.4022M14.6097 14.4022L14.3632 14.5423M14.6097 14.4022L14.3632 14.5423M14.3632 14.5423L10.1031 16.9628M14.3632 14.5423L10.1031 16.9628M10 16.184L9.75348 16.0439L2.28117 11.7983L1.51755 11.3645L2.28115 10.9306L5.14376 9.30402L5.39028 9.16394L5.63681 9.30401L9.89681 11.7245C9.96419 11.7627 10.0357 11.7627 10.1029 11.7246L10 16.184ZM10 16.184L10.2465 16.0439L17.7188 11.7983L18.4825 11.3645L17.7188 10.9306L14.8562 9.30402L14.6097 9.16394L14.3632 9.30401L10.1031 11.7245L10 16.184ZM10.1031 16.9628L10.1029 16.9629C10.0358 17.001 9.96437 17.001 9.89707 16.9629L10.1031 16.9628ZM10.2465 1.44656L10 1.30648L9.75347 1.44656L2.28116 5.69228L1.51753 6.12616L2.28117 6.56004L9.75348 10.8056L10 10.9456L10.2465 10.8056L17.7188 6.56004L18.4825 6.12616L17.7188 5.69228L10.2465 1.44656Z" stroke="black" stroke-opacity="0.5" stroke-width="0.998051"/>
</svg>
