<svg width="20" height="24" viewBox="0 0 20 24" fill="none" xmlns="http://www.w3.org/2000/svg">
<path d="M14.5007 3.125H16.667C17.2416 3.125 17.7926 3.34888 18.1988 3.7474C18.6051 4.14591 18.8333 4.68641 18.8333 5.25V20.125C18.8333 20.6886 18.6051 21.2291 18.1988 21.6276C17.7926 22.0261 17.2416 22.25 16.667 22.25H3.6691C3.09455 22.25 2.54354 22.0261 2.13728 21.6276C1.73101 21.2291 1.50278 20.6886 1.50278 20.125V5.25C1.50278 4.68641 1.73101 4.14591 2.13728 3.7474C2.54354 3.34888 3.09455 3.125 3.6691 3.125H5.83542" stroke="#B3B3B3" stroke-width="2" stroke-linecap="round" stroke-linejoin="round"/>
<path d="M13.4175 1H6.91856C6.32035 1 5.8354 1.4757 5.8354 2.0625V4.1875C5.8354 4.7743 6.32035 5.25 6.91856 5.25H13.4175C14.0157 5.25 14.5007 4.7743 14.5007 4.1875V2.0625C14.5007 1.4757 14.0157 1 13.4175 1Z" stroke="#B3B3B3" stroke-width="2" stroke-linecap="round" stroke-linejoin="round"/>
</svg>
