<svg width="20" height="25" viewBox="0 0 20 25" fill="none" xmlns="http://www.w3.org/2000/svg">
<path d="M19.1784 3.26467L17.7572 0.211372C17.6696 0.0227352 17.4563 -0.0538835 17.2807 0.040244C17.2806 0.0402917 17.2805 0.0403394 17.2804 0.0403871L14.4381 1.56704C14.2625 1.66126 14.1913 1.89059 14.279 2.07923C14.3667 2.26786 14.5802 2.34444 14.7558 2.25021L16.8143 1.1453L16.2526 2.86812C13.7837 10.4216 7.42451 15.7208 0 16.4118L0.0603986 17.1751C7.76465 16.4582 14.3631 10.9586 16.9237 3.12002L17.4972 1.35979L18.5424 3.60588C18.6301 3.79451 18.8436 3.87108 19.0192 3.77686C19.1948 3.68264 19.2661 3.45336 19.1784 3.26467Z" fill="black" fill-opacity="0.5"/>
<path d="M5.23979 3.13843H1.45551V3.90175H5.23979V3.13843Z" fill="black" fill-opacity="0.5"/>
<path d="M5.23979 4.6651H1.45551V5.42843H5.23979V4.6651Z" fill="black" fill-opacity="0.5"/>
<path d="M4.07539 6.19171H1.45551V6.95504H4.07539V6.19171Z" fill="black" fill-opacity="0.5"/>
<path d="M4.07539 7.71838H1.45551V8.48171H4.07539V7.71838Z" fill="black" fill-opacity="0.5"/>
<path d="M18.3141 23.7482H0.848145V24.5116H18.3141V23.7482Z" fill="black" fill-opacity="0.5"/>
<path d="M3.49316 19.1683H1.45547C1.29471 19.1683 1.16437 19.3392 1.16437 19.5499V21.8399C1.16437 22.0507 1.29471 22.2216 1.45547 22.2216H3.49316C3.65391 22.2216 3.78425 22.0507 3.78425 21.8399V19.5499C3.78425 19.3392 3.65391 19.1683 3.49316 19.1683ZM3.20206 21.4582H1.74656V19.9316H3.20206V21.4582Z" fill="black" fill-opacity="0.5"/>
<path d="M6.69531 18.0233H4.65762C4.49686 18.0233 4.36652 18.1941 4.36652 18.4049V21.8399C4.36652 22.0507 4.49686 22.2215 4.65762 22.2215H6.69531C6.85607 22.2215 6.98641 22.0507 6.98641 21.8399V18.4049C6.98641 18.1941 6.85607 18.0233 6.69531 18.0233ZM6.40421 21.4582H4.94871V18.7866H6.40421V21.4582Z" fill="black" fill-opacity="0.5"/>
<path d="M11.3238 16.1149H8.83679C8.64059 16.1149 8.48151 16.2858 8.48151 16.4965V21.8398C8.48151 22.0506 8.64059 22.2215 8.83679 22.2215H11.3238C11.52 22.2215 11.6791 22.0506 11.6791 21.8398V16.4965C11.6791 16.2858 11.52 16.1149 11.3238 16.1149ZM10.9685 21.4581H9.19208V16.8782H10.9685V21.4581Z" fill="black" fill-opacity="0.5"/>
<path d="M15.7366 13.4433H13.2496C13.0534 13.4433 12.8943 13.6142 12.8943 13.825V21.8399C12.8943 22.0506 13.0534 22.2215 13.2496 22.2215H15.7366C15.9328 22.2215 16.0919 22.0506 16.0919 21.8399V13.825C16.0919 13.6142 15.9328 13.4433 15.7366 13.4433ZM15.3813 21.4582H13.6049V14.2066H15.3813V21.4582Z" fill="black" fill-opacity="0.5"/>
<path d="M19.6447 8.10004H17.1577C16.9615 8.10004 16.8024 8.27093 16.8024 8.4817V21.8399C16.8024 22.0507 16.9615 22.2215 17.1577 22.2215H19.6447C19.8409 22.2215 20 22.0507 20 21.8399V8.4817C20 8.27093 19.8409 8.10004 19.6447 8.10004ZM19.2894 21.4582H17.513V8.86336H19.2894V21.4582Z" fill="black" fill-opacity="0.5"/>
</svg>
