<svg width="13" height="14" viewBox="0 0 13 14" fill="none" xmlns="http://www.w3.org/2000/svg">
<path d="M12.9207 12.502L9.14425 8.6177C9.86052 7.70815 10.2917 6.55183 10.2917 5.29288C10.2917 2.3744 7.98324 0 5.14583 0C2.30842 0 0 2.3744 0 5.29288C0 8.21136 2.30845 10.5858 5.14585 10.5858C6.36984 10.5858 7.49404 10.1423 8.37832 9.40554L12.1547 13.2898C12.2605 13.3986 12.432 13.3986 12.5378 13.2898L12.9207 12.896C13.0264 12.7872 13.0264 12.6108 12.9207 12.502ZM5.14585 9.47146C2.90566 9.47146 1.08334 7.59708 1.08334 5.29288C1.08334 2.98868 2.90566 1.1143 5.14585 1.1143C7.38605 1.1143 9.20836 2.98868 9.20836 5.29288C9.20836 7.59708 7.38605 9.47146 5.14585 9.47146Z" fill="#C8BFCC"/>
</svg>
