<svg width="25" height="25" viewBox="0 0 25 25" fill="none" xmlns="http://www.w3.org/2000/svg">
<path d="M24.2625 11.975L13.0188 0.731249C12.5625 0.28125 11.9375 0 11.25 0H2.50002C1.11873 0 0 1.11873 0 2.50002V11.25C0 11.9437 0.28125 12.5688 0.737519 13.0188L11.9875 24.2688C12.4375 24.7188 13.0625 25 13.75 25C14.4375 25 15.0688 24.7188 15.5188 24.2688L24.2688 15.5188C24.7188 15.0625 25 14.4375 25 13.75C25 13.0563 24.7188 12.4312 24.2625 11.975ZM4.37502 6.25001C3.3375 6.25001 2.50002 5.41254 2.50002 4.37502C2.50002 3.3375 3.3375 2.50002 4.37502 2.50002C5.41254 2.50002 6.25001 3.3375 6.25001 4.37502C6.25001 5.41254 5.41248 6.25001 4.37502 6.25001Z" fill="white"/>
</svg>
