<svg width="23" height="15" viewBox="0 0 23 15" fill="none" xmlns="http://www.w3.org/2000/svg">
<path d="M19.8918 6.5059C20.5653 6.02671 21.0113 5.2296 21.0113 4.33112C21.0113 2.86131 19.8372 1.67255 18.3854 1.67255C16.9337 1.67255 15.7596 2.86131 15.7596 4.33112C15.7596 5.2296 16.201 6.02671 16.8791 6.5059C16.3011 6.70863 15.7732 7.02195 15.3273 7.42741C14.7129 6.89754 13.9893 6.49208 13.1975 6.25248C14.1577 5.66271 14.8039 4.58915 14.8039 3.36814C14.8039 1.50668 13.3158 0 11.4772 0C9.6387 0 8.15057 1.51129 8.15057 3.36814C8.15057 4.58915 8.79224 5.66271 9.75702 6.25248C8.97428 6.49208 8.25979 6.89293 7.64998 7.41359C7.204 7.01734 6.6852 6.70863 6.11634 6.51051C6.78987 6.03132 7.23585 5.23421 7.23585 4.33573C7.23585 2.86591 6.06173 1.67716 4.61001 1.67716C3.15829 1.67716 1.98417 2.86591 1.98417 4.33573C1.98417 5.23421 2.4256 6.03132 3.10368 6.51051C1.29699 7.14174 0 8.8788 0 10.92V11.2241C0 11.2333 0.0091017 11.2425 0.0182034 11.2425H5.58389C5.55204 11.4959 5.53383 11.7585 5.53383 12.0212V12.3345C5.53383 13.6891 6.61694 14.7857 7.95489 14.7857H15.0087C16.3467 14.7857 17.4298 13.6891 17.4298 12.3345V12.0212C17.4298 11.7585 17.4116 11.4959 17.3797 11.2425H22.9818C22.9909 11.2425 23 11.2333 23 11.2241V10.92C22.9909 8.87419 21.6985 7.13714 19.8918 6.5059ZM16.4877 4.32651C16.4877 3.26677 17.3387 2.40515 18.3854 2.40515C19.4321 2.40515 20.2831 3.26677 20.2831 4.32651C20.2831 5.37243 19.4503 6.22484 18.4218 6.24787C18.4082 6.24787 18.3991 6.24787 18.3854 6.24787C18.3718 6.24787 18.3627 6.24787 18.349 6.24787C17.316 6.22944 16.4877 5.37704 16.4877 4.32651ZM8.86961 3.36814C8.86961 1.91675 10.0346 0.737212 11.4681 0.737212C12.9017 0.737212 14.0667 1.91675 14.0667 3.36814C14.0667 4.76884 12.979 5.91613 11.6183 5.99446C11.5683 5.99446 11.5182 5.99446 11.4681 5.99446C11.4181 5.99446 11.368 5.99446 11.318 5.99446C9.95726 5.91613 8.86961 4.76884 8.86961 3.36814ZM2.69865 4.32651C2.69865 3.26677 3.54966 2.40515 4.59636 2.40515C5.64305 2.40515 6.49406 3.26677 6.49406 4.32651C6.49406 5.37243 5.66126 6.22484 4.63277 6.24787C4.61911 6.24787 4.61001 6.24787 4.59636 6.24787C4.58271 6.24787 4.57361 6.24787 4.55995 6.24787C3.53146 6.22944 2.69865 5.37704 2.69865 4.32651ZM5.71132 10.5007H0.737238C0.942026 8.53784 2.58033 6.99891 4.56905 6.98509C4.57816 6.98509 4.58726 6.98509 4.59636 6.98509C4.60546 6.98509 4.61456 6.98509 4.62366 6.98509C5.57024 6.98969 6.4349 7.34448 7.10388 7.92042C6.44856 8.63921 5.96161 9.52386 5.71132 10.5007ZM16.6925 12.3345C16.6925 13.279 15.9325 14.0485 14.9996 14.0485H7.94579C7.01286 14.0485 6.25287 13.279 6.25287 12.3345V12.0212C6.25287 9.15986 8.51009 6.81921 11.318 6.73628C11.368 6.74088 11.4226 6.74089 11.4727 6.74089C11.5228 6.74089 11.5774 6.74088 11.6274 6.73628C14.4353 6.81921 16.6925 9.15986 16.6925 12.0212V12.3345ZM17.2341 10.5007C16.9838 9.52847 16.5059 8.65764 15.8552 7.93885C16.5287 7.34908 17.4025 6.9943 18.3581 6.98509C18.3672 6.98509 18.3763 6.98509 18.3854 6.98509C18.3945 6.98509 18.4036 6.98509 18.4127 6.98509C20.4015 6.99891 22.0398 8.53784 22.2446 10.5007H17.2341Z" fill="black" fill-opacity="0.5"/>
</svg>
