<svg width="20" height="14" viewBox="0 0 20 14" fill="none" xmlns="http://www.w3.org/2000/svg">
<path d="M10 0.333313C4.48566 0.333313 0 4.81941 0 10.3333C0 11.3676 0.160313 12.3914 0.475273 13.3769C0.530625 13.5495 0.690938 13.6667 0.872422 13.6667H19.1276C19.3091 13.6667 19.4694 13.5495 19.5248 13.3769C19.8397 12.3914 20 11.3677 20 10.3333C20 4.81941 15.5143 0.333313 10 0.333313ZM17.9167 10.75H19.1378C19.1056 11.4547 19.0113 12.1542 18.8184 12.8333H1.18164C0.988672 12.1541 0.894414 11.4547 0.862227 10.75H2.08332C2.31363 10.75 2.5 10.5636 2.5 10.3333C2.5 10.103 2.31363 9.91663 2.08332 9.91663H0.854414C0.916172 8.55261 1.2716 7.26566 1.86801 6.11944L2.93535 6.73589C3.00129 6.77374 3.07289 6.79163 3.14367 6.79163C3.28691 6.79163 3.4277 6.71718 3.50418 6.58331C3.61973 6.38394 3.55137 6.12921 3.35199 6.01405L2.28703 5.39898C3.00277 4.28417 3.95117 3.33585 5.06602 2.62015L5.68109 3.68577C5.75758 3.81925 5.8984 3.89409 6.0416 3.89409C6.11242 3.89409 6.18402 3.8762 6.24992 3.83835C6.4493 3.7232 6.51766 3.46847 6.40211 3.26909L5.78582 2.20144C6.93211 1.60495 8.21914 1.24948 9.58328 1.18773V2.41663C9.58328 2.64695 9.76965 2.83331 9.99996 2.83331C10.2303 2.83331 10.4166 2.64695 10.4166 2.41663V1.18773C11.7808 1.24948 13.0678 1.60495 14.2141 2.20144L13.5978 3.26909C13.4823 3.46847 13.5506 3.7232 13.75 3.83835C13.8159 3.8762 13.8875 3.89409 13.9583 3.89409C14.1016 3.89409 14.2423 3.81921 14.3188 3.68577L14.9339 2.62015C16.0487 3.33585 16.9971 4.28417 17.7129 5.39898L16.6479 6.01405C16.4486 6.12921 16.3802 6.38394 16.4957 6.58331C16.5722 6.71718 16.713 6.79163 16.8562 6.79163C16.927 6.79163 16.9987 6.77374 17.0646 6.73589L18.1319 6.11944C18.7283 7.26569 19.0837 8.55261 19.1455 9.91663H17.9166C17.6863 9.91663 17.4999 10.103 17.4999 10.3333C17.5 10.5636 17.6864 10.75 17.9167 10.75Z" fill="#7958AB"/>
</svg>
